{"glyphs":{"0":{"ha":765,"x_min":43,"x_max":750,"o":"m 460 965 q 220 872 314 965 q 85 633 126 778 q 43 329 43 489 q 117 63 43 153 q 333 -28 192 -28 q 572 67 478 -28 q 708 306 665 161 q 750 610 750 451 q 676 875 750 785 q 460 965 601 965 m 446 775 q 485 754 472 775 q 499 682 499 733 q 481 457 499 579 q 430 249 464 335 q 349 164 396 164 q 309 185 322 164 q 296 260 296 207 q 313 481 296 360 q 363 688 329 601 q 446 775 397 775 z "},"1":{"ha":606,"x_min":42,"x_max":601,"o":"m 601 944 l 469 0 l 219 0 l 313 679 l 129 565 l 42 744 l 369 944 l 601 944 z "},"2":{"ha":656,"x_min":-29,"x_max":663,"o":"m 375 965 q 588 896 514 965 q 663 719 663 826 q 626 567 663 643 q 506 402 589 492 q 279 197 422 313 l 608 199 l 554 0 l -29 0 l -6 183 q 232 415 150 329 q 355 568 314 501 q 396 694 396 635 q 377 749 396 731 q 325 768 358 768 q 255 747 289 768 q 174 678 221 725 l 40 800 q 190 923 108 881 q 375 965 272 965 z "},"3":{"ha":661,"x_min":-65,"x_max":653,"o":"m 374 965 q 580 902 507 965 q 653 742 653 839 q 598 589 653 653 q 431 497 543 525 q 568 440 518 486 q 618 310 618 394 q 573 146 618 224 q 440 20 528 68 q 233 -28 353 -28 q -65 125 39 -28 l 88 251 q 156 189 122 208 q 232 169 189 169 q 319 208 283 169 q 356 317 356 247 q 251 404 356 404 l 178 404 l 231 581 l 278 581 q 367 615 338 581 q 397 703 397 650 q 321 775 397 775 q 156 696 239 775 l 46 836 q 374 965 190 965 z "},"4":{"ha":732,"x_min":-4,"x_max":718,"o":"m 718 385 l 690 189 l 607 189 l 581 0 l 332 0 l 357 189 l -4 189 l 19 363 l 332 972 l 543 894 l 294 385 l 388 385 l 447 593 l 664 593 l 635 385 l 718 385 z "},"5":{"ha":694,"x_min":-32,"x_max":699,"o":"m 646 760 l 357 760 l 333 596 q 460 628 397 628 q 606 564 550 628 q 661 381 661 500 q 615 180 661 274 q 476 29 568 86 q 256 -28 383 -28 q -32 125 68 -28 l 122 250 q 185 188 153 210 q 261 167 217 167 q 363 224 328 167 q 399 365 399 281 q 329 451 399 451 q 283 444 306 451 q 232 418 261 436 l 64 418 l 139 944 l 699 944 l 646 760 z "},"6":{"ha":735,"x_min":38,"x_max":718,"o":"m 507 642 q 660 576 604 642 q 715 394 715 511 q 673 190 715 286 q 546 33 631 93 q 339 -28 461 -28 q 113 58 188 -28 q 38 306 38 144 q 96 627 38 475 q 264 872 154 779 q 519 965 374 965 q 718 900 640 965 l 608 753 q 513 783 558 783 q 408 732 454 783 q 336 575 363 681 q 507 642 413 642 m 351 157 q 432 235 406 157 q 458 397 458 314 q 447 453 458 438 q 410 468 435 468 q 311 414 365 468 q 297 249 297 292 q 310 178 297 199 q 351 157 322 157 z "},"7":{"ha":596,"x_min":15,"x_max":669,"o":"m 669 943 l 644 769 l 238 -26 l 15 53 l 375 749 l 57 749 l 85 943 l 669 943 z "},"8":{"ha":746,"x_min":4,"x_max":744,"o":"m 575 506 q 678 409 646 461 q 711 292 711 357 q 663 126 711 199 q 525 13 614 53 q 319 -28 436 -28 q 147 6 218 -28 q 40 97 76 39 q 4 225 4 154 q 51 373 4 307 q 196 483 99 439 q 99 667 99 556 q 140 817 99 749 q 260 925 181 885 q 450 965 339 965 q 665 906 586 965 q 744 746 744 846 q 575 506 744 597 m 435 793 q 365 757 385 793 q 344 672 344 721 q 358 621 344 642 q 403 582 371 600 l 421 574 q 479 646 463 608 q 496 726 496 683 q 435 793 496 793 m 342 157 q 428 194 399 157 q 457 288 457 231 q 438 347 457 325 q 371 393 419 369 l 339 407 q 278 331 297 375 q 258 243 258 288 q 280 179 258 201 q 342 157 301 157 z "},"9":{"ha":735,"x_min":40,"x_max":744,"o":"m 438 965 q 665 886 586 965 q 744 669 744 807 q 581 208 744 399 q 72 -43 417 17 l 40 138 q 295 233 208 178 q 433 392 382 288 q 352 337 392 354 q 263 319 313 319 q 112 388 171 319 q 53 572 53 456 q 97 765 53 675 q 228 910 142 856 q 438 965 315 965 m 471 564 q 482 704 482 646 q 468 767 482 749 q 422 786 454 786 q 340 722 367 786 q 313 583 313 658 q 368 497 313 497 q 471 564 419 497 z "},"\r":{"ha":251,"x_min":0,"x_max":0,"o":""}," ":{"ha":251,"x_min":0,"x_max":0,"o":""},"A":{"ha":753,"x_min":-82,"x_max":729,"o":"m 450 0 l 444 192 l 253 192 l 197 0 l -82 0 l 299 967 l 619 967 l 729 0 l 450 0 m 308 383 l 439 383 l 428 792 l 308 383 z "},"Á":{"ha":753,"x_min":-82,"x_max":729,"o":"m 450 0 l 444 192 l 253 192 l 197 0 l -82 0 l 299 967 l 619 967 l 729 0 l 450 0 m 308 383 l 439 383 l 428 792 l 308 383 m 618 1340 l 700 1154 l 367 1032 l 308 1156 l 618 1340 z "},"Ă":{"ha":753,"x_min":-82,"x_max":735,"o":"m 450 0 l 444 192 l 253 192 l 197 0 l -82 0 l 299 967 l 619 967 l 729 0 l 450 0 m 308 383 l 439 383 l 428 792 l 308 383 m 474 1038 q 322 1102 372 1038 q 271 1263 271 1167 q 272 1290 271 1281 l 404 1311 q 428 1243 407 1269 q 488 1217 449 1217 q 600 1314 564 1217 l 735 1288 q 647 1109 714 1181 q 474 1038 581 1038 z "},"Ắ":{"ha":753,"x_min":-82,"x_max":751,"o":"m 751 1471 l 503 1261 l 415 1344 l 631 1603 l 751 1471 m 488 1200 q 600 1297 564 1200 l 735 1271 q 647 1092 714 1164 q 474 1021 581 1021 q 322 1085 372 1021 q 271 1246 271 1150 q 272 1274 271 1264 l 404 1294 q 428 1226 407 1253 q 488 1200 449 1200 m 299 967 l 619 967 l 729 0 l 450 0 l 444 192 l 253 192 l 197 0 l -82 0 l 299 967 m 308 383 l 439 383 l 428 792 l 308 383 z "},"Ặ":{"ha":753,"x_min":-82,"x_max":735,"o":"m 450 0 l 444 192 l 253 192 l 197 0 l -82 0 l 299 967 l 619 967 l 729 0 l 450 0 m 308 383 l 439 383 l 428 792 l 308 383 m 474 1038 q 322 1102 372 1038 q 271 1263 271 1167 q 272 1290 271 1281 l 404 1311 q 428 1243 407 1269 q 488 1217 449 1217 q 600 1314 564 1217 l 735 1288 q 647 1109 714 1181 q 474 1038 581 1038 m 306 -75 q 400 -109 365 -75 q 435 -199 435 -143 q 388 -314 435 -268 q 272 -360 340 -360 q 178 -326 213 -360 q 143 -236 143 -292 q 190 -121 143 -167 q 306 -75 236 -75 z "},"Ằ":{"ha":753,"x_min":-82,"x_max":736,"o":"m 592 1338 l 485 1261 l 296 1481 l 450 1599 l 592 1338 m 475 1021 q 323 1085 374 1021 q 272 1246 272 1150 q 274 1274 272 1264 l 406 1294 q 429 1226 408 1253 q 489 1200 450 1200 q 601 1297 565 1200 l 736 1271 q 649 1092 715 1164 q 475 1021 582 1021 m 299 967 l 619 967 l 729 0 l 450 0 l 444 192 l 253 192 l 197 0 l -82 0 l 299 967 m 308 383 l 439 383 l 428 792 l 308 383 z "},"Ẳ":{"ha":753,"x_min":-82,"x_max":739,"o":"m 450 0 l 444 192 l 253 192 l 197 0 l -82 0 l 299 967 l 619 967 l 729 0 l 450 0 m 308 383 l 439 383 l 428 792 l 308 383 m 478 1021 q 326 1085 376 1021 q 275 1246 275 1150 q 276 1274 275 1264 l 408 1294 q 432 1226 411 1253 q 492 1200 453 1200 q 604 1297 568 1200 l 739 1271 q 651 1092 718 1164 q 478 1021 585 1021 m 449 1413 q 521 1428 499 1415 q 543 1469 543 1442 q 534 1494 543 1486 q 503 1501 525 1501 q 426 1483 469 1501 l 403 1586 q 547 1622 467 1622 q 667 1585 625 1622 q 708 1486 708 1547 q 674 1390 708 1428 q 579 1340 639 1353 l 574 1285 l 433 1285 l 449 1413 z "},"Ẵ":{"ha":753,"x_min":-82,"x_max":778,"o":"m 447 1389 q 410 1376 426 1389 q 375 1333 394 1363 l 267 1390 q 356 1509 304 1463 q 463 1556 407 1556 q 510 1547 490 1556 q 553 1522 529 1538 q 601 1500 582 1500 q 635 1513 619 1500 q 669 1554 650 1525 l 778 1499 q 690 1381 743 1426 q 582 1335 638 1335 q 541 1343 560 1335 q 499 1367 522 1351 q 478 1379 494 1369 q 447 1389 461 1389 m 486 1200 q 599 1297 563 1200 l 733 1271 q 646 1092 713 1164 q 472 1021 579 1021 q 320 1085 371 1021 q 269 1246 269 1150 q 271 1274 269 1264 l 403 1294 q 426 1226 406 1253 q 486 1200 447 1200 m 299 967 l 619 967 l 729 0 l 450 0 l 444 192 l 253 192 l 197 0 l -82 0 l 299 967 m 308 383 l 439 383 l 428 792 l 308 383 z "},"Ǎ":{"ha":753,"x_min":-82,"x_max":754,"o":"m 450 0 l 444 192 l 253 192 l 197 0 l -82 0 l 299 967 l 619 967 l 729 0 l 450 0 m 308 383 l 439 383 l 428 792 l 308 383 m 669 1332 l 754 1231 l 546 1039 l 393 1039 l 232 1239 l 332 1332 l 486 1211 l 669 1332 z "},"Â":{"ha":753,"x_min":-82,"x_max":736,"o":"m 450 0 l 444 192 l 253 192 l 197 0 l -82 0 l 299 967 l 619 967 l 729 0 l 450 0 m 308 383 l 439 383 l 428 792 l 308 383 m 299 1047 l 214 1150 l 422 1342 l 576 1342 l 736 1142 l 636 1047 l 482 1168 l 299 1047 z "},"Ấ":{"ha":753,"x_min":-82,"x_max":951,"o":"m 951 1436 l 703 1226 l 615 1310 l 831 1568 l 951 1436 m 419 1301 l 574 1301 l 733 1101 l 633 1007 l 479 1128 l 296 1007 l 211 1110 l 419 1301 m 299 967 l 619 967 l 729 0 l 450 0 l 444 192 l 253 192 l 197 0 l -82 0 l 299 967 m 308 383 l 439 383 l 428 792 l 308 383 z "},"Ậ":{"ha":753,"x_min":-82,"x_max":736,"o":"m 450 0 l 444 192 l 253 192 l 197 0 l -82 0 l 299 967 l 619 967 l 729 0 l 450 0 m 308 383 l 439 383 l 428 792 l 308 383 m 299 1047 l 214 1150 l 422 1342 l 576 1342 l 736 1142 l 636 1047 l 482 1168 l 299 1047 m 306 -75 q 400 -109 365 -75 q 435 -199 435 -143 q 388 -314 435 -268 q 272 -360 340 -360 q 178 -326 213 -360 q 143 -236 143 -292 q 190 -121 143 -167 q 306 -75 236 -75 z "},"Ầ":{"ha":753,"x_min":-82,"x_max":735,"o":"m 372 1303 l 265 1226 l 76 1446 l 231 1564 l 372 1303 m 297 1007 l 213 1110 l 421 1301 l 575 1301 l 735 1101 l 635 1007 l 481 1128 l 297 1007 m 299 967 l 619 967 l 729 0 l 450 0 l 444 192 l 253 192 l 197 0 l -82 0 l 299 967 m 308 383 l 439 383 l 428 792 l 308 383 z "},"Ẩ":{"ha":753,"x_min":-82,"x_max":917,"o":"m 450 0 l 444 192 l 253 192 l 197 0 l -82 0 l 299 967 l 619 967 l 729 0 l 450 0 m 308 383 l 439 383 l 428 792 l 308 383 m 292 1007 l 207 1110 l 415 1301 l 569 1301 l 729 1101 l 629 1007 l 475 1128 l 292 1007 m 657 1343 q 729 1359 707 1346 q 751 1400 751 1372 q 742 1424 751 1417 q 711 1432 733 1432 q 635 1414 678 1432 l 611 1517 q 756 1553 675 1553 q 875 1515 833 1553 q 917 1417 917 1478 q 882 1321 917 1358 q 788 1271 847 1283 l 782 1215 l 642 1215 l 657 1343 z "},"Ẫ":{"ha":753,"x_min":-82,"x_max":776,"o":"m 446 1393 q 409 1380 425 1393 q 374 1338 393 1367 l 265 1394 q 354 1513 303 1467 q 461 1560 406 1560 q 508 1551 489 1560 q 551 1526 528 1542 q 600 1504 581 1504 q 633 1517 618 1504 q 668 1558 649 1529 l 776 1503 q 689 1385 742 1431 q 581 1339 636 1339 q 540 1347 558 1339 q 497 1371 521 1356 q 476 1383 493 1374 q 446 1393 460 1393 m 418 1301 l 572 1301 l 732 1101 l 632 1007 l 478 1128 l 294 1007 l 210 1110 l 418 1301 m 299 967 l 619 967 l 729 0 l 450 0 l 444 192 l 253 192 l 197 0 l -82 0 l 299 967 m 308 383 l 439 383 l 428 792 l 308 383 z "},"Ȁ":{"ha":753,"x_min":-82,"x_max":729,"o":"m 450 0 l 444 192 l 253 192 l 197 0 l -82 0 l 299 967 l 619 967 l 729 0 l 450 0 m 308 383 l 439 383 l 428 792 l 308 383 m 347 1389 l 439 1096 l 303 1038 l 171 1311 l 347 1389 m 585 1389 l 667 1093 l 531 1043 l 408 1318 l 585 1389 z "},"Ä":{"ha":753,"x_min":-82,"x_max":765,"o":"m 450 0 l 444 192 l 253 192 l 197 0 l -82 0 l 299 967 l 619 967 l 729 0 l 450 0 m 308 383 l 439 383 l 428 792 l 308 383 m 315 1057 q 234 1087 264 1057 q 204 1165 204 1117 q 245 1265 204 1225 q 344 1306 286 1306 q 427 1276 397 1306 q 457 1197 457 1246 q 416 1097 457 1138 q 315 1057 375 1057 m 625 1057 q 544 1087 574 1057 q 514 1165 514 1117 q 554 1265 514 1225 q 654 1306 594 1306 q 735 1276 706 1306 q 765 1197 765 1246 q 725 1097 765 1138 q 625 1057 685 1057 z "},"Ǟ":{"ha":753,"x_min":-82,"x_max":764,"o":"m 450 0 l 444 192 l 253 192 l 197 0 l -82 0 l 299 967 l 619 967 l 729 0 l 450 0 m 308 383 l 439 383 l 428 792 l 308 383 m 314 1035 q 233 1065 263 1035 q 203 1143 203 1094 q 244 1243 203 1203 q 343 1283 285 1283 q 426 1253 396 1283 q 456 1175 456 1224 q 415 1075 456 1115 q 314 1035 374 1035 m 624 1035 q 542 1065 572 1035 q 513 1143 513 1094 q 553 1243 513 1203 q 653 1283 593 1283 q 734 1253 704 1283 q 764 1175 764 1224 q 724 1075 764 1115 q 624 1035 683 1035 m 704 1335 l 299 1335 l 325 1515 l 732 1515 l 704 1335 z "},"Ȧ":{"ha":753,"x_min":-82,"x_max":729,"o":"m 450 0 l 444 192 l 253 192 l 197 0 l -82 0 l 299 967 l 619 967 l 729 0 l 450 0 m 308 383 l 439 383 l 428 792 l 308 383 m 478 1036 q 383 1070 418 1036 q 349 1160 349 1104 q 396 1275 349 1229 q 511 1321 443 1321 q 606 1287 571 1321 q 640 1197 640 1253 q 594 1082 640 1128 q 478 1036 547 1036 z "},"Ạ":{"ha":753,"x_min":-82,"x_max":729,"o":"m 450 0 l 444 192 l 253 192 l 197 0 l -82 0 l 299 967 l 619 967 l 729 0 l 450 0 m 308 383 l 439 383 l 428 792 l 308 383 m 306 -75 q 400 -109 365 -75 q 435 -199 435 -143 q 388 -314 435 -268 q 272 -360 340 -360 q 178 -326 213 -360 q 143 -236 143 -292 q 190 -121 143 -167 q 306 -75 236 -75 z "},"Ǡ":{"ha":753,"x_min":-82,"x_max":744,"o":"m 450 0 l 444 192 l 253 192 l 197 0 l -82 0 l 299 967 l 619 967 l 729 0 l 450 0 m 308 383 l 439 383 l 428 792 l 308 383 m 468 1019 q 374 1053 408 1019 q 339 1143 339 1088 q 386 1258 339 1213 q 501 1304 433 1304 q 596 1270 561 1304 q 631 1181 631 1236 q 584 1065 631 1111 q 468 1019 538 1019 m 717 1335 l 311 1335 l 338 1515 l 744 1515 l 717 1335 z "},"À":{"ha":753,"x_min":-82,"x_max":729,"o":"m 450 0 l 444 192 l 253 192 l 197 0 l -82 0 l 299 967 l 619 967 l 729 0 l 450 0 m 308 383 l 439 383 l 428 792 l 308 383 m 421 1338 l 688 1153 l 617 1033 l 314 1151 l 421 1338 z "},"Ả":{"ha":753,"x_min":-82,"x_max":729,"o":"m 450 0 l 444 192 l 253 192 l 197 0 l -82 0 l 299 967 l 619 967 l 729 0 l 450 0 m 308 383 l 439 383 l 428 792 l 308 383 m 419 1189 q 492 1205 469 1192 q 514 1246 514 1218 q 505 1270 514 1263 q 474 1278 496 1278 q 397 1260 440 1278 l 374 1363 q 518 1399 438 1399 q 638 1361 596 1399 q 679 1263 679 1324 q 644 1167 679 1204 q 550 1117 610 1129 l 544 1061 l 404 1061 l 419 1189 z "},"Ȃ":{"ha":753,"x_min":-82,"x_max":729,"o":"m 450 0 l 444 192 l 253 192 l 197 0 l -82 0 l 299 967 l 619 967 l 729 0 l 450 0 m 308 383 l 439 383 l 428 792 l 308 383 m 240 1076 q 333 1266 264 1192 q 510 1340 401 1340 q 664 1274 614 1340 q 714 1104 714 1208 q 713 1074 714 1085 l 575 1054 q 492 1161 568 1161 q 419 1131 450 1161 q 372 1050 389 1101 l 240 1076 z "},"Ɑ":{"ha":860,"x_min":33,"x_max":885,"o":"m 782 225 q 779 194 779 203 q 785 165 779 176 q 808 147 792 154 l 732 -22 q 543 81 601 -12 q 447 1 500 29 q 325 -26 394 -26 q 108 70 183 -26 q 33 338 33 167 q 85 661 33 511 q 234 902 138 811 q 456 993 331 993 q 560 967 518 993 q 633 893 603 940 l 658 967 l 885 967 l 782 225 m 310 331 q 333 201 310 239 q 403 163 356 163 q 510 213 463 163 l 586 744 q 499 799 550 799 q 394 729 436 799 q 331 552 351 660 q 310 331 310 444 z "},"Ā":{"ha":753,"x_min":-82,"x_max":729,"o":"m 450 0 l 444 192 l 253 192 l 197 0 l -82 0 l 299 967 l 619 967 l 729 0 l 450 0 m 308 383 l 439 383 l 428 792 l 308 383 m 674 1076 l 268 1076 l 294 1257 l 701 1257 l 674 1076 z "},"Ą":{"ha":753,"x_min":-82,"x_max":729,"o":"m 599 0 q 472 -75 507 -35 q 438 -150 438 -115 q 493 -196 438 -196 q 567 -187 514 -196 l 531 -339 q 438 -350 489 -350 q 308 -308 358 -350 q 257 -193 257 -267 q 449 39 257 -47 l 444 192 l 253 192 l 197 0 l -82 0 l 299 967 l 619 967 l 729 0 l 599 0 m 308 383 l 439 383 l 428 792 l 308 383 z "},"Å":{"ha":753,"x_min":-82,"x_max":729,"o":"m 450 0 l 444 192 l 253 192 l 197 0 l -82 0 l 299 967 l 619 967 l 729 0 l 450 0 m 308 383 l 439 383 l 428 792 l 308 383 m 518 1400 q 645 1351 600 1400 q 690 1224 690 1303 q 663 1115 690 1165 q 585 1034 636 1064 q 468 1004 535 1004 q 341 1053 386 1004 q 296 1181 296 1101 q 324 1288 296 1238 q 402 1369 351 1339 q 518 1400 453 1400 m 506 1271 q 457 1246 475 1271 q 439 1188 439 1221 q 482 1135 439 1135 q 529 1160 511 1135 q 547 1217 547 1185 q 506 1271 547 1271 z "},"Ǻ":{"ha":753,"x_min":-82,"x_max":729,"o":"m 450 0 l 444 192 l 253 192 l 197 0 l -82 0 l 299 967 l 619 967 l 729 0 l 450 0 m 308 383 l 439 383 l 428 792 l 308 383 m 511 1403 q 638 1354 593 1403 q 683 1226 683 1306 q 656 1117 683 1168 q 578 1037 629 1067 q 461 1007 528 1007 q 334 1056 379 1007 q 289 1183 289 1104 q 317 1291 289 1240 q 395 1372 344 1342 q 511 1403 446 1403 m 499 1274 q 450 1249 468 1274 q 432 1190 432 1224 q 475 1138 432 1138 q 522 1163 504 1138 q 540 1219 540 1188 q 499 1274 540 1274 m 625 1713 l 707 1526 l 374 1404 l 315 1528 l 625 1713 z "},"Ⱥ":{"ha":753,"x_min":-82,"x_max":729,"o":"m 485 0 l 472 192 l 351 192 l 239 -106 l 160 -86 l 264 192 l 232 192 l 171 0 l -82 0 l 299 967 l 557 967 l 589 1053 l 668 1033 l 625 919 l 729 0 l 485 0 m 289 371 l 332 371 l 442 663 l 432 819 l 289 371 m 418 371 l 461 371 l 454 467 l 418 371 z "},"Ã":{"ha":753,"x_min":-82,"x_max":749,"o":"m 450 0 l 444 192 l 253 192 l 197 0 l -82 0 l 299 967 l 619 967 l 729 0 l 450 0 m 308 383 l 439 383 l 428 792 l 308 383 m 549 1043 q 507 1052 526 1043 q 464 1078 488 1061 q 434 1097 446 1090 q 411 1103 422 1103 q 374 1088 390 1103 q 338 1042 358 1074 l 228 1106 q 317 1236 265 1185 q 426 1288 369 1288 q 474 1278 454 1288 q 519 1250 493 1268 q 546 1232 535 1238 q 568 1226 557 1226 q 603 1240 588 1226 q 638 1286 618 1254 l 749 1225 q 659 1094 713 1146 q 549 1043 606 1043 z "},"Æ":{"ha":1071,"x_min":-82,"x_max":1093,"o":"m 1038 775 l 744 775 l 744 581 l 1029 581 l 1003 394 l 744 394 l 744 193 l 1029 193 l 1000 0 l 499 0 l 501 192 l 285 192 l 210 0 l -82 0 l 369 967 l 1093 967 l 1038 775 m 361 385 l 506 385 l 513 771 l 361 385 z "},"Ǽ":{"ha":1071,"x_min":-82,"x_max":1093,"o":"m 1038 775 l 744 775 l 744 581 l 1029 581 l 1003 394 l 744 394 l 744 193 l 1029 193 l 1000 0 l 499 0 l 501 192 l 285 192 l 210 0 l -82 0 l 369 967 l 1093 967 l 1038 775 m 361 385 l 506 385 l 513 771 l 361 385 m 850 1340 l 932 1154 l 599 1032 l 540 1156 l 850 1340 z "},"Ǣ":{"ha":1071,"x_min":-82,"x_max":1093,"o":"m 1038 775 l 744 775 l 744 581 l 1029 581 l 1003 394 l 744 394 l 744 193 l 1029 193 l 1000 0 l 499 0 l 501 192 l 285 192 l 210 0 l -82 0 l 369 967 l 1093 967 l 1038 775 m 361 385 l 506 385 l 513 771 l 361 385 m 906 1076 l 500 1076 l 526 1257 l 933 1257 l 906 1076 z "},"B":{"ha":771,"x_min":-1,"x_max":772,"o":"m 569 511 q 699 448 651 493 q 747 314 747 403 q 635 82 747 164 q 307 0 522 0 l -1 0 l 135 967 l 407 967 q 676 913 581 967 q 772 746 772 858 q 715 592 772 650 q 569 511 657 533 m 382 590 q 497 713 497 590 q 476 762 497 746 q 408 778 456 778 l 375 778 l 349 590 l 382 590 m 335 194 q 474 333 474 194 q 375 415 474 415 l 325 415 l 294 194 l 335 194 z "},"Ḃ":{"ha":771,"x_min":-1,"x_max":772,"o":"m 569 511 q 699 448 651 493 q 747 314 747 403 q 635 82 747 164 q 307 0 522 0 l -1 0 l 135 967 l 407 967 q 676 913 581 967 q 772 746 772 858 q 715 592 772 650 q 569 511 657 533 m 382 590 q 497 713 497 590 q 476 762 497 746 q 408 778 456 778 l 375 778 l 349 590 l 382 590 m 335 194 q 474 333 474 194 q 375 415 474 415 l 325 415 l 294 194 l 335 194 m 454 1036 q 360 1070 394 1036 q 325 1160 325 1104 q 372 1275 325 1229 q 488 1321 419 1321 q 582 1287 547 1321 q 617 1197 617 1253 q 570 1082 617 1128 q 454 1036 524 1036 z "},"Ḅ":{"ha":771,"x_min":-1,"x_max":772,"o":"m 569 511 q 699 448 651 493 q 747 314 747 403 q 635 82 747 164 q 307 0 522 0 l -1 0 l 135 967 l 407 967 q 676 913 581 967 q 772 746 772 858 q 715 592 772 650 q 569 511 657 533 m 382 590 q 497 713 497 590 q 476 762 497 746 q 408 778 456 778 l 375 778 l 349 590 l 382 590 m 335 194 q 474 333 474 194 q 375 415 474 415 l 325 415 l 294 194 l 335 194 m 311 -75 q 406 -109 371 -75 q 440 -199 440 -143 q 393 -314 440 -268 q 278 -360 346 -360 q 183 -326 218 -360 q 149 -236 149 -292 q 195 -121 149 -167 q 311 -75 242 -75 z "},"Ꞵ":{"ha":771,"x_min":-43,"x_max":767,"o":"m 571 511 q 699 451 650 497 q 749 321 749 406 q 697 144 749 217 q 561 36 646 72 q 376 0 476 0 q 269 10 331 0 l 226 -299 l -43 -299 l 135 967 l 401 967 q 671 912 575 967 q 767 742 767 857 q 710 588 767 646 q 571 511 653 531 m 365 415 l 403 590 l 408 590 q 468 622 446 590 q 490 707 490 653 q 471 761 490 744 q 408 778 451 778 l 376 778 l 296 197 q 346 194 329 194 q 441 232 407 194 q 475 335 475 269 q 393 415 475 415 l 365 415 z "},"Ɓ":{"ha":1006,"x_min":53,"x_max":1007,"o":"m 804 511 q 934 448 886 493 q 982 314 982 403 q 869 82 982 164 q 542 0 757 0 l 233 0 l 343 775 l 307 775 q 265 756 279 775 q 250 701 250 736 q 258 631 250 681 l 83 567 q 60 636 68 604 q 53 708 53 668 q 128 897 53 828 q 326 967 204 967 l 642 967 q 911 913 815 967 q 1007 746 1007 858 q 949 592 1007 650 q 804 511 892 533 m 617 590 q 732 713 732 590 q 711 762 732 746 q 643 778 690 778 l 610 778 l 583 590 l 617 590 m 569 194 q 708 333 708 194 q 610 415 708 415 l 560 415 l 529 194 l 569 194 z "},"Ƀ":{"ha":782,"x_min":-10,"x_max":783,"o":"m 581 511 q 710 448 663 493 q 758 314 758 403 q 646 82 758 164 q 318 0 533 0 l 10 0 l 44 249 l -10 249 l 7 367 l 61 367 l 146 967 l 418 967 q 688 913 592 967 q 783 746 783 858 q 726 592 783 650 q 581 511 668 533 m 393 590 q 508 713 508 590 q 488 762 508 746 q 419 778 467 778 l 386 778 l 360 590 l 393 590 m 346 194 q 485 333 485 194 q 386 415 485 415 l 336 415 l 329 367 l 431 367 l 414 249 l 313 249 l 306 194 l 346 194 z "},"Ƃ":{"ha":758,"x_min":0,"x_max":744,"o":"m 421 632 q 659 565 574 632 q 744 369 744 497 q 703 194 744 278 q 574 55 663 110 q 349 0 485 0 l 0 0 l 135 967 l 721 967 l 665 763 l 375 763 l 357 632 l 421 632 m 338 194 q 431 240 399 194 q 463 356 463 286 q 442 423 463 400 q 375 446 421 446 l 331 446 l 296 194 l 338 194 z "},"C":{"ha":728,"x_min":35,"x_max":792,"o":"m 519 993 q 792 876 690 993 l 651 738 q 519 796 589 796 q 399 726 446 796 q 333 554 353 656 q 313 354 313 453 q 342 222 313 264 q 431 179 372 179 q 508 198 471 179 q 596 254 544 217 l 694 103 q 378 -28 553 -28 q 127 72 219 -28 q 35 361 35 171 q 87 670 35 526 q 248 903 139 814 q 519 993 357 993 z "},"Ć":{"ha":728,"x_min":35,"x_max":792,"o":"m 519 993 q 792 876 690 993 l 651 738 q 519 796 589 796 q 399 726 446 796 q 333 554 353 656 q 313 354 313 453 q 342 222 313 264 q 431 179 372 179 q 508 198 471 179 q 596 254 544 217 l 694 103 q 378 -28 553 -28 q 127 72 219 -28 q 35 361 35 171 q 87 670 35 526 q 248 903 139 814 q 519 993 357 993 m 683 1340 l 765 1154 l 432 1032 l 374 1156 l 683 1340 z "},"Č":{"ha":728,"x_min":35,"x_max":819,"o":"m 519 993 q 792 876 690 993 l 651 738 q 519 796 589 796 q 399 726 446 796 q 333 554 353 656 q 313 354 313 453 q 342 222 313 264 q 431 179 372 179 q 508 198 471 179 q 596 254 544 217 l 694 103 q 378 -28 553 -28 q 127 72 219 -28 q 35 361 35 171 q 87 670 35 526 q 248 903 139 814 q 519 993 357 993 m 735 1332 l 819 1231 l 611 1039 l 458 1039 l 297 1239 l 397 1332 l 551 1211 l 735 1332 z "},"Ç":{"ha":728,"x_min":35,"x_max":792,"o":"m 694 103 q 436 -24 579 -6 l 429 -65 q 519 -105 488 -74 q 550 -190 550 -136 q 528 -276 550 -233 q 453 -349 506 -319 q 318 -378 401 -378 q 232 -365 271 -378 q 165 -331 193 -351 l 236 -221 q 313 -242 274 -242 q 372 -201 371 -242 q 347 -172 372 -181 q 261 -164 321 -164 l 297 -21 q 104 100 174 3 q 35 361 35 197 q 87 670 35 526 q 248 903 139 814 q 519 993 357 993 q 792 876 690 993 l 651 738 q 519 796 589 796 q 399 726 446 796 q 333 554 353 656 q 313 354 313 453 q 342 222 313 264 q 431 179 372 179 q 508 198 471 179 q 596 254 544 217 l 694 103 z "},"Ĉ":{"ha":728,"x_min":35,"x_max":801,"o":"m 519 993 q 792 876 690 993 l 651 738 q 519 796 589 796 q 399 726 446 796 q 333 554 353 656 q 313 354 313 453 q 342 222 313 264 q 431 179 372 179 q 508 198 471 179 q 596 254 544 217 l 694 103 q 378 -28 553 -28 q 127 72 219 -28 q 35 361 35 171 q 87 670 35 526 q 248 903 139 814 q 519 993 357 993 m 364 1047 l 279 1150 l 488 1342 l 642 1342 l 801 1142 l 701 1047 l 547 1168 l 364 1047 z "},"Ċ":{"ha":728,"x_min":35,"x_max":792,"o":"m 519 993 q 792 876 690 993 l 651 738 q 519 796 589 796 q 399 726 446 796 q 333 554 353 656 q 313 354 313 453 q 342 222 313 264 q 431 179 372 179 q 508 198 471 179 q 596 254 544 217 l 694 103 q 378 -28 553 -28 q 127 72 219 -28 q 35 361 35 171 q 87 670 35 526 q 248 903 139 814 q 519 993 357 993 m 543 1036 q 449 1070 483 1036 q 414 1160 414 1104 q 461 1275 414 1229 q 576 1321 508 1321 q 671 1287 636 1321 q 706 1197 706 1253 q 659 1082 706 1128 q 543 1036 613 1036 z "},"Ꭓ":{"ha":739,"x_min":-101,"x_max":824,"o":"m 824 967 l 525 393 l 667 -244 l 386 -244 l 339 211 l 190 -244 l -101 -244 l 206 390 l 86 967 l 367 967 l 394 560 l 539 967 l 824 967 z "},"Ƈ":{"ha":738,"x_min":35,"x_max":1021,"o":"m 843 1196 q 1021 1143 943 1196 l 932 983 q 861 1006 896 1006 q 818 986 833 1006 q 797 926 803 967 l 790 876 l 665 746 q 592 783 626 771 q 521 796 558 796 q 400 726 447 796 q 333 554 353 656 q 313 354 313 453 q 342 222 313 264 q 431 179 372 179 q 508 198 471 179 q 596 256 546 217 l 693 103 q 552 8 632 44 q 382 -28 472 -28 q 127 72 219 -28 q 35 361 35 171 q 89 667 35 522 q 244 903 143 813 q 481 993 346 993 q 586 974 539 993 q 665 1135 600 1075 q 843 1196 729 1196 z "},"Ȼ":{"ha":728,"x_min":35,"x_max":792,"o":"m 431 179 q 508 198 471 179 q 596 254 544 217 l 694 103 q 378 -28 553 -28 q 303 -21 342 -28 l 271 -106 l 186 -85 l 219 4 q 83 135 132 44 q 35 361 35 226 q 87 670 35 526 q 248 903 139 814 q 519 993 357 993 q 594 988 547 993 l 619 1053 l 703 1032 l 676 963 q 792 876 743 933 l 651 738 q 604 772 624 763 l 382 188 q 431 179 403 179 m 313 354 q 321 269 313 306 l 522 796 l 519 796 q 399 726 446 796 q 333 554 353 656 q 313 354 313 453 z "},"D":{"ha":822,"x_min":-1,"x_max":818,"o":"m 417 967 q 709 889 600 967 q 818 610 818 811 q 694 165 818 331 q 299 0 571 0 l -1 0 l 135 967 l 417 967 m 376 772 l 296 194 l 339 194 q 497 323 450 194 q 543 614 543 451 q 514 737 543 701 q 424 772 485 772 l 376 772 z "},"Ǳ":{"ha":1475,"x_min":-1,"x_max":1529,"o":"m 417 967 q 709 889 600 967 q 818 610 818 811 q 694 165 818 331 q 299 0 571 0 l -1 0 l 135 967 l 417 967 m 376 772 l 296 194 l 339 194 q 497 323 450 194 q 543 614 543 451 q 514 737 543 701 q 424 772 485 772 l 376 772 m 744 0 l 772 201 l 1197 758 l 882 758 l 913 967 l 1529 967 l 1500 763 l 1078 215 l 1440 215 l 1382 0 l 744 0 z "},"Ǆ":{"ha":1475,"x_min":-1,"x_max":1529,"o":"m 417 967 q 709 889 600 967 q 818 610 818 811 q 694 165 818 331 q 299 0 571 0 l -1 0 l 135 967 l 417 967 m 376 772 l 296 194 l 339 194 q 497 323 450 194 q 543 614 543 451 q 514 737 543 701 q 424 772 485 772 l 376 772 m 744 0 l 772 201 l 1197 758 l 882 758 l 913 967 l 1529 967 l 1500 763 l 1078 215 l 1440 215 l 1382 0 l 744 0 m 1422 1332 l 1507 1231 l 1299 1039 l 1146 1039 l 985 1239 l 1085 1332 l 1239 1211 l 1422 1332 z "},"Ɖ":{"ha":833,"x_min":10,"x_max":829,"o":"m 428 967 q 720 889 611 967 q 829 610 829 811 q 706 165 829 331 q 310 0 582 0 l 10 0 l 68 413 l 13 413 l 36 568 l 90 568 l 146 967 l 428 967 m 350 194 q 508 323 461 194 q 554 614 554 451 q 525 737 554 701 q 435 772 496 772 l 388 772 l 360 568 l 500 568 l 478 413 l 338 413 l 307 194 l 350 194 z "},"Ð":{"ha":833,"x_min":10,"x_max":829,"o":"m 428 967 q 720 889 611 967 q 829 610 829 811 q 706 165 829 331 q 310 0 582 0 l 10 0 l 68 413 l 13 413 l 36 568 l 90 568 l 146 967 l 428 967 m 350 194 q 508 323 461 194 q 554 614 554 451 q 525 737 554 701 q 435 772 496 772 l 388 772 l 360 568 l 500 568 l 478 413 l 338 413 l 307 194 l 350 194 z "},"Ď":{"ha":822,"x_min":-1,"x_max":818,"o":"m 417 967 q 709 889 600 967 q 818 610 818 811 q 694 165 818 331 q 299 0 571 0 l -1 0 l 135 967 l 417 967 m 376 772 l 296 194 l 339 194 q 497 323 450 194 q 543 614 543 451 q 514 737 543 701 q 424 772 485 772 l 376 772 m 654 1332 l 739 1231 l 531 1039 l 378 1039 l 217 1239 l 317 1332 l 471 1211 l 654 1332 z "},"Ḓ":{"ha":822,"x_min":-1,"x_max":818,"o":"m 417 967 q 709 889 600 967 q 818 610 818 811 q 694 165 818 331 q 299 0 571 0 l -1 0 l 135 967 l 417 967 m 376 772 l 296 194 l 339 194 q 497 323 450 194 q 543 614 543 451 q 514 737 543 701 q 424 772 485 772 l 376 772 m 96 -392 l 14 -290 l 224 -85 l 378 -85 l 535 -297 l 432 -392 l 282 -258 l 96 -392 z "},"Đ":{"ha":833,"x_min":10,"x_max":829,"o":"m 428 967 q 720 889 611 967 q 829 610 829 811 q 706 165 829 331 q 310 0 582 0 l 10 0 l 68 413 l 13 413 l 36 568 l 90 568 l 146 967 l 428 967 m 350 194 q 508 323 461 194 q 554 614 554 451 q 525 737 554 701 q 435 772 496 772 l 388 772 l 360 568 l 500 568 l 478 413 l 338 413 l 307 194 l 350 194 z "},"Ḋ":{"ha":822,"x_min":-1,"x_max":818,"o":"m 417 967 q 709 889 600 967 q 818 610 818 811 q 694 165 818 331 q 299 0 571 0 l -1 0 l 135 967 l 417 967 m 376 772 l 296 194 l 339 194 q 497 323 450 194 q 543 614 543 451 q 514 737 543 701 q 424 772 485 772 l 376 772 m 463 1036 q 368 1070 403 1036 q 333 1160 333 1104 q 381 1275 333 1229 q 496 1321 428 1321 q 590 1287 556 1321 q 625 1197 625 1253 q 578 1082 625 1128 q 463 1036 532 1036 z "},"Ḍ":{"ha":822,"x_min":-1,"x_max":818,"o":"m 417 967 q 709 889 600 967 q 818 610 818 811 q 694 165 818 331 q 299 0 571 0 l -1 0 l 135 967 l 417 967 m 376 772 l 296 194 l 339 194 q 497 323 450 194 q 543 614 543 451 q 514 737 543 701 q 424 772 485 772 l 376 772 m 303 -75 q 397 -109 363 -75 q 432 -199 432 -143 q 385 -314 432 -268 q 269 -360 338 -360 q 175 -326 210 -360 q 140 -236 140 -292 q 187 -121 140 -167 q 303 -75 233 -75 z "},"Ɗ":{"ha":1056,"x_min":53,"x_max":1051,"o":"m 650 967 q 942 889 833 967 q 1051 610 1051 811 q 928 165 1051 331 q 532 0 804 0 l 232 0 l 342 775 l 307 775 q 265 756 279 775 q 250 701 250 736 q 258 631 250 681 l 83 567 q 60 636 68 604 q 53 708 53 668 q 128 897 53 828 q 326 967 204 967 l 650 967 m 572 194 q 730 323 683 194 q 776 614 776 451 q 747 737 776 701 q 657 772 718 772 l 610 772 l 529 194 l 572 194 z "},"Ḏ":{"ha":822,"x_min":-1,"x_max":818,"o":"m 417 967 q 709 889 600 967 q 818 610 818 811 q 694 165 818 331 q 299 0 571 0 l -1 0 l 135 967 l 417 967 m 376 772 l 296 194 l 339 194 q 497 323 450 194 q 543 614 543 451 q 514 737 543 701 q 424 772 485 772 l 376 772 m 114 -97 l 519 -97 l 493 -278 l 86 -278 l 114 -97 z "},"Ƌ":{"ha":758,"x_min":1,"x_max":790,"o":"m 789 965 l 654 0 l 321 0 q 85 73 169 0 q 1 281 1 146 q 110 540 1 449 q 399 631 219 631 l 472 631 l 492 763 l 182 763 l 211 967 l 790 967 l 789 965 m 413 194 l 447 446 l 403 446 q 313 404 343 446 q 283 293 283 363 q 306 218 283 242 q 374 194 328 194 l 413 194 z "},"ǲ":{"ha":1394,"x_min":-1,"x_max":1426,"o":"m 417 967 q 709 889 600 967 q 818 610 818 811 q 694 165 818 331 q 299 0 571 0 l -1 0 l 135 967 l 417 967 m 376 772 l 296 194 l 339 194 q 497 323 450 194 q 543 614 543 451 q 514 737 543 701 q 424 772 485 772 l 376 772 m 1426 742 l 1401 558 l 1101 196 l 1363 196 l 1311 0 l 761 0 l 786 185 l 1088 549 l 860 549 l 888 742 l 1426 742 z "},"ǅ":{"ha":1394,"x_min":-1,"x_max":1458,"o":"m 417 967 q 709 889 600 967 q 818 610 818 811 q 694 165 818 331 q 299 0 571 0 l -1 0 l 135 967 l 417 967 m 376 772 l 296 194 l 339 194 q 497 323 450 194 q 543 614 543 451 q 514 737 543 701 q 424 772 485 772 l 376 772 m 1426 742 l 1401 558 l 1101 196 l 1363 196 l 1311 0 l 761 0 l 786 185 l 1088 549 l 860 549 l 888 742 l 1426 742 m 1376 1146 l 1458 1044 l 1250 839 l 1096 839 l 944 1044 l 1039 1146 l 1189 1013 l 1376 1146 z "},"E":{"ha":640,"x_min":-1,"x_max":707,"o":"m 707 967 l 650 775 l 376 775 l 350 583 l 592 583 l 565 397 l 324 397 l 296 193 l 592 193 l 564 0 l -1 0 l 135 967 l 707 967 z "},"É":{"ha":640,"x_min":-1,"x_max":707,"o":"m 707 967 l 650 775 l 376 775 l 350 583 l 592 583 l 565 397 l 324 397 l 296 193 l 592 193 l 564 0 l -1 0 l 135 967 l 707 967 m 579 1340 l 661 1154 l 328 1032 l 269 1156 l 579 1340 z "},"Ĕ":{"ha":640,"x_min":-1,"x_max":707,"o":"m 707 967 l 650 775 l 376 775 l 350 583 l 592 583 l 565 397 l 324 397 l 296 193 l 592 193 l 564 0 l -1 0 l 135 967 l 707 967 m 435 1038 q 283 1102 333 1038 q 232 1263 232 1167 q 233 1290 232 1281 l 365 1311 q 389 1243 368 1269 q 449 1217 410 1217 q 561 1314 525 1217 l 696 1288 q 608 1109 675 1181 q 435 1038 542 1038 z "},"Ě":{"ha":640,"x_min":-1,"x_max":715,"o":"m 707 967 l 650 775 l 376 775 l 350 583 l 592 583 l 565 397 l 324 397 l 296 193 l 592 193 l 564 0 l -1 0 l 135 967 l 707 967 m 631 1332 l 715 1231 l 507 1039 l 354 1039 l 193 1239 l 293 1332 l 447 1211 l 631 1332 z "},"Ȩ":{"ha":640,"x_min":-1,"x_max":707,"o":"m 376 775 l 350 583 l 592 583 l 565 397 l 324 397 l 296 193 l 592 193 l 564 0 l 350 0 l 340 -65 q 430 -105 399 -74 q 461 -190 461 -136 q 439 -276 461 -233 q 365 -349 417 -319 q 229 -378 313 -378 q 143 -365 182 -378 q 76 -331 104 -351 l 147 -221 q 225 -242 185 -242 q 283 -201 283 -242 q 258 -172 283 -181 q 172 -164 232 -164 l 214 0 l -1 0 l 135 967 l 707 967 l 650 775 l 376 775 z "},"Ê":{"ha":640,"x_min":-1,"x_max":707,"o":"m 707 967 l 650 775 l 376 775 l 350 583 l 592 583 l 565 397 l 324 397 l 296 193 l 592 193 l 564 0 l -1 0 l 135 967 l 707 967 m 260 1047 l 175 1150 l 383 1342 l 538 1342 l 697 1142 l 597 1047 l 443 1168 l 260 1047 z "},"Ế":{"ha":640,"x_min":-1,"x_max":913,"o":"m 792 1568 l 913 1436 l 664 1226 l 576 1310 l 792 1568 m 257 1007 l 172 1110 l 381 1301 l 535 1301 l 694 1101 l 594 1007 l 440 1128 l 257 1007 m 707 967 l 650 775 l 376 775 l 350 583 l 592 583 l 565 397 l 324 397 l 296 193 l 592 193 l 564 0 l -1 0 l 135 967 l 707 967 z "},"Ệ":{"ha":640,"x_min":-1,"x_max":707,"o":"m 707 967 l 650 775 l 376 775 l 350 583 l 592 583 l 565 397 l 324 397 l 296 193 l 592 193 l 564 0 l -1 0 l 135 967 l 707 967 m 260 1047 l 175 1150 l 383 1342 l 538 1342 l 697 1142 l 597 1047 l 443 1168 l 260 1047 m 267 -75 q 361 -109 326 -75 q 396 -199 396 -143 q 349 -314 396 -268 q 233 -360 301 -360 q 139 -326 174 -360 q 104 -236 104 -292 q 151 -121 104 -167 q 267 -75 197 -75 z "},"Ề":{"ha":640,"x_min":-1,"x_max":707,"o":"m 192 1564 l 333 1303 l 226 1226 l 38 1446 l 192 1564 m 258 1007 l 174 1110 l 382 1301 l 536 1301 l 696 1101 l 596 1007 l 442 1128 l 258 1007 m 707 967 l 650 775 l 376 775 l 350 583 l 592 583 l 565 397 l 324 397 l 296 193 l 592 193 l 564 0 l -1 0 l 135 967 l 707 967 z "},"Ể":{"ha":640,"x_min":-1,"x_max":878,"o":"m 707 967 l 650 775 l 376 775 l 350 583 l 592 583 l 565 397 l 324 397 l 296 193 l 592 193 l 564 0 l -1 0 l 135 967 l 707 967 m 253 1007 l 168 1110 l 376 1301 l 531 1301 l 690 1101 l 590 1007 l 436 1128 l 253 1007 m 618 1343 q 690 1359 668 1346 q 713 1400 713 1372 q 703 1424 713 1417 q 672 1432 694 1432 q 596 1414 639 1432 l 572 1517 q 717 1553 636 1553 q 836 1515 794 1553 q 878 1417 878 1478 q 843 1321 878 1358 q 749 1271 808 1283 l 743 1215 l 603 1215 l 618 1343 z "},"Ễ":{"ha":640,"x_min":-1,"x_max":738,"o":"m 542 1339 q 501 1347 519 1339 q 458 1371 482 1356 q 438 1383 454 1374 q 407 1393 421 1393 q 370 1380 386 1393 q 335 1338 354 1367 l 226 1394 q 315 1513 264 1467 q 422 1560 367 1560 q 469 1551 450 1560 q 513 1526 489 1542 q 561 1504 542 1504 q 594 1517 579 1504 q 629 1558 610 1529 l 738 1503 q 650 1385 703 1431 q 542 1339 597 1339 m 256 1007 l 171 1110 l 379 1301 l 533 1301 l 693 1101 l 593 1007 l 439 1128 l 256 1007 m 707 967 l 650 775 l 376 775 l 350 583 l 592 583 l 565 397 l 324 397 l 296 193 l 592 193 l 564 0 l -1 0 l 135 967 l 707 967 z "},"Ȅ":{"ha":640,"x_min":-1,"x_max":707,"o":"m 707 967 l 650 775 l 376 775 l 350 583 l 592 583 l 565 397 l 324 397 l 296 193 l 592 193 l 564 0 l -1 0 l 135 967 l 707 967 m 308 1389 l 400 1096 l 264 1038 l 132 1311 l 308 1389 m 546 1389 l 628 1093 l 492 1043 l 369 1318 l 546 1389 z "},"Ë":{"ha":640,"x_min":-1,"x_max":726,"o":"m 707 967 l 650 775 l 376 775 l 350 583 l 592 583 l 565 397 l 324 397 l 296 193 l 592 193 l 564 0 l -1 0 l 135 967 l 707 967 m 276 1057 q 195 1087 225 1057 q 165 1165 165 1117 q 206 1265 165 1225 q 306 1306 247 1306 q 388 1276 358 1306 q 418 1197 418 1246 q 377 1097 418 1138 q 276 1057 336 1057 m 586 1057 q 505 1087 535 1057 q 475 1165 475 1117 q 515 1265 475 1225 q 615 1306 556 1306 q 697 1276 667 1306 q 726 1197 726 1246 q 686 1097 726 1138 q 586 1057 646 1057 z "},"Ė":{"ha":640,"x_min":-1,"x_max":707,"o":"m 707 967 l 650 775 l 376 775 l 350 583 l 592 583 l 565 397 l 324 397 l 296 193 l 592 193 l 564 0 l -1 0 l 135 967 l 707 967 m 439 1036 q 344 1070 379 1036 q 310 1160 310 1104 q 357 1275 310 1229 q 472 1321 404 1321 q 567 1287 532 1321 q 601 1197 601 1253 q 555 1082 601 1128 q 439 1036 508 1036 z "},"Ẹ":{"ha":640,"x_min":-1,"x_max":707,"o":"m 707 967 l 650 775 l 376 775 l 350 583 l 592 583 l 565 397 l 324 397 l 296 193 l 592 193 l 564 0 l -1 0 l 135 967 l 707 967 m 267 -75 q 361 -109 326 -75 q 396 -199 396 -143 q 349 -314 396 -268 q 233 -360 301 -360 q 139 -326 174 -360 q 104 -236 104 -292 q 151 -121 104 -167 q 267 -75 197 -75 z "},"È":{"ha":640,"x_min":-1,"x_max":707,"o":"m 707 967 l 650 775 l 376 775 l 350 583 l 592 583 l 565 397 l 324 397 l 296 193 l 592 193 l 564 0 l -1 0 l 135 967 l 707 967 m 382 1338 l 649 1153 l 578 1033 l 275 1151 l 382 1338 z "},"Ẻ":{"ha":640,"x_min":-1,"x_max":707,"o":"m 707 967 l 650 775 l 376 775 l 350 583 l 592 583 l 565 397 l 324 397 l 296 193 l 592 193 l 564 0 l -1 0 l 135 967 l 707 967 m 381 1189 q 453 1205 431 1192 q 475 1246 475 1218 q 466 1270 475 1263 q 435 1278 457 1278 q 358 1260 401 1278 l 335 1363 q 479 1399 399 1399 q 599 1361 557 1399 q 640 1263 640 1324 q 606 1167 640 1204 q 511 1117 571 1129 l 506 1061 l 365 1061 l 381 1189 z "},"Ȇ":{"ha":640,"x_min":-1,"x_max":707,"o":"m 707 967 l 650 775 l 376 775 l 350 583 l 592 583 l 565 397 l 324 397 l 296 193 l 592 193 l 564 0 l -1 0 l 135 967 l 707 967 m 201 1076 q 294 1266 225 1192 q 471 1340 363 1340 q 625 1274 575 1340 q 675 1104 675 1208 q 674 1074 675 1085 l 536 1054 q 453 1161 529 1161 q 381 1131 411 1161 q 333 1050 350 1101 l 201 1076 z "},"Ē":{"ha":640,"x_min":-1,"x_max":707,"o":"m 707 967 l 650 775 l 376 775 l 350 583 l 592 583 l 565 397 l 324 397 l 296 193 l 592 193 l 564 0 l -1 0 l 135 967 l 707 967 m 635 1076 l 229 1076 l 256 1257 l 663 1257 l 635 1076 z "},"Ę":{"ha":640,"x_min":-1,"x_max":707,"o":"m 376 775 l 350 583 l 592 583 l 565 397 l 324 397 l 296 193 l 592 193 l 564 0 l 515 0 q 389 -75 424 -35 q 354 -150 354 -115 q 410 -196 354 -196 q 483 -187 431 -196 l 447 -339 q 354 -350 406 -350 q 224 -308 275 -350 q 174 -193 174 -267 q 293 0 174 -78 l -1 0 l 135 967 l 707 967 l 650 775 l 376 775 z "},"Ɛ":{"ha":683,"x_min":-3,"x_max":743,"o":"m 447 993 q 618 960 549 993 q 743 860 688 928 l 603 731 q 467 800 539 800 q 389 768 417 800 q 361 683 361 736 q 457 603 361 603 l 547 603 l 490 413 l 433 413 q 315 375 357 413 q 274 269 274 338 q 298 193 274 217 q 371 169 322 169 q 453 188 414 169 q 542 247 493 207 l 660 110 q 322 -26 526 -26 q 85 44 174 -26 q -3 236 -3 115 q 276 510 -3 481 q 92 704 92 550 q 142 856 92 790 q 274 958 192 922 q 447 993 356 993 z "},"Ǝ":{"ha":633,"x_min":-36,"x_max":665,"o":"m 104 967 l 665 967 l 531 0 l -36 0 l -8 193 l 288 193 l 317 397 l 74 397 l 100 583 l 342 583 l 369 775 l 76 775 l 104 967 z "},"Ʃ":{"ha":625,"x_min":-37,"x_max":694,"o":"m 694 967 l 667 772 l 346 772 l 496 517 l 483 422 l 278 199 l 590 199 l 561 0 l -37 0 l -10 193 l 243 482 l 68 774 l 94 967 l 694 967 z "},"Ɇ":{"ha":640,"x_min":-1,"x_max":707,"o":"m 650 775 l 600 775 l 526 583 l 592 583 l 565 397 l 456 397 l 379 193 l 592 193 l 564 0 l 306 0 l 265 -106 l 182 -85 l 214 0 l -1 0 l 135 967 l 581 967 l 614 1053 l 697 1032 l 672 967 l 707 967 l 650 775 m 436 583 l 508 775 l 376 775 l 350 583 l 436 583 m 300 228 l 365 397 l 324 397 l 300 228 z "},"Ẽ":{"ha":640,"x_min":-1,"x_max":710,"o":"m 707 967 l 650 775 l 376 775 l 350 583 l 592 583 l 565 397 l 324 397 l 296 193 l 592 193 l 564 0 l -1 0 l 135 967 l 707 967 m 510 1043 q 468 1052 488 1043 q 425 1078 449 1061 q 395 1097 407 1090 q 372 1103 383 1103 q 335 1088 351 1103 q 299 1042 319 1074 l 189 1106 q 278 1236 226 1185 q 388 1288 331 1288 q 435 1278 415 1288 q 481 1250 454 1268 q 507 1232 496 1238 q 529 1226 518 1226 q 564 1240 549 1226 q 599 1286 579 1254 l 710 1225 q 620 1094 674 1146 q 510 1043 567 1043 z "},"Ʒ":{"ha":706,"x_min":-29,"x_max":719,"o":"m 693 781 l 469 563 q 628 495 571 554 q 685 335 685 436 q 630 140 685 222 q 483 16 575 58 q 279 -26 390 -26 q 93 13 165 -26 q -29 125 21 51 l 122 251 q 195 190 161 208 q 278 171 229 171 q 370 213 332 171 q 408 321 408 254 q 300 414 408 414 l 167 414 l 189 558 l 401 774 l 115 774 l 144 967 l 719 967 l 693 781 z "},"Ǯ":{"ha":706,"x_min":-29,"x_max":726,"o":"m 693 781 l 469 563 q 628 495 571 554 q 685 335 685 436 q 630 140 685 222 q 483 16 575 58 q 279 -26 390 -26 q 93 13 165 -26 q -29 125 21 51 l 122 251 q 195 190 161 208 q 278 171 229 171 q 370 213 332 171 q 408 321 408 254 q 300 414 408 414 l 167 414 l 189 558 l 401 774 l 115 774 l 144 967 l 719 967 l 693 781 m 642 1332 l 726 1231 l 518 1039 l 365 1039 l 204 1239 l 304 1332 l 458 1211 l 642 1332 z "},"Ƹ":{"ha":710,"x_min":0,"x_max":726,"o":"m 697 774 l 399 774 l 571 556 l 549 414 l 425 414 q 317 375 354 414 q 281 265 281 336 q 303 196 281 221 q 367 171 325 171 q 455 192 413 171 q 550 257 497 213 l 668 122 q 520 12 603 50 q 326 -26 438 -26 q 85 49 171 -26 q 0 256 0 125 q 39 409 0 342 q 147 516 78 476 q 301 563 215 556 l 125 781 l 153 967 l 726 967 l 697 774 z "},"F":{"ha":600,"x_min":-1,"x_max":688,"o":"m 688 967 l 629 775 l 376 775 l 346 554 l 572 554 l 543 363 l 319 363 l 268 0 l -1 0 l 135 967 l 688 967 z "},"Ḟ":{"ha":600,"x_min":-1,"x_max":688,"o":"m 688 967 l 629 775 l 376 775 l 346 554 l 572 554 l 543 363 l 319 363 l 268 0 l -1 0 l 135 967 l 688 967 m 428 1036 q 333 1070 368 1036 q 299 1160 299 1104 q 346 1275 299 1229 q 461 1321 393 1321 q 556 1287 521 1321 q 590 1197 590 1253 q 544 1082 590 1128 q 428 1036 497 1036 z "},"Ƒ":{"ha":600,"x_min":-261,"x_max":688,"o":"m 376 775 l 346 554 l 572 554 l 543 363 l 319 363 l 268 0 l 263 -37 q 153 -244 242 -174 q -67 -315 65 -315 q -261 -251 -187 -315 l -156 -96 q -117 -114 -133 -108 q -79 -119 -101 -119 q -32 -101 -50 -119 q -8 -50 -14 -83 l -1 0 l 135 967 l 688 967 l 629 775 l 376 775 z "},"G":{"ha":817,"x_min":33,"x_max":843,"o":"m 551 993 q 719 958 644 993 q 843 867 793 924 l 700 736 q 624 786 658 771 q 546 801 590 801 q 363 654 418 801 q 307 314 307 507 q 331 201 307 235 q 403 168 354 168 q 494 194 450 168 l 521 379 l 439 379 l 440 565 l 801 565 l 735 81 q 566 1 658 29 q 389 -26 474 -26 q 33 349 33 -26 q 90 666 33 519 q 264 903 147 813 q 551 993 381 993 z "},"Ǵ":{"ha":817,"x_min":33,"x_max":843,"o":"m 551 993 q 719 958 644 993 q 843 867 793 924 l 700 736 q 624 786 658 771 q 546 801 590 801 q 363 654 418 801 q 307 314 307 507 q 331 201 307 235 q 403 168 354 168 q 494 194 450 168 l 521 379 l 439 379 l 440 565 l 801 565 l 735 81 q 566 1 658 29 q 389 -26 474 -26 q 33 349 33 -26 q 90 666 33 519 q 264 903 147 813 q 551 993 381 993 m 688 1340 l 769 1154 l 436 1032 l 378 1156 l 688 1340 z "},"Ɣ":{"ha":726,"x_min":54,"x_max":839,"o":"m 460 132 q 505 13 490 60 q 519 -85 519 -33 q 456 -255 519 -196 q 275 -314 392 -314 q 130 -267 178 -314 q 82 -140 82 -221 q 113 -4 82 -71 q 204 143 143 63 l 54 967 l 331 967 l 361 318 l 564 967 l 839 967 l 460 132 m 335 -90 q 317 10 335 -46 q 267 -119 267 -72 q 293 -151 267 -151 q 335 -90 335 -151 z "},"Ğ":{"ha":817,"x_min":33,"x_max":843,"o":"m 551 993 q 719 958 644 993 q 843 867 793 924 l 700 736 q 624 786 658 771 q 546 801 590 801 q 363 654 418 801 q 307 314 307 507 q 331 201 307 235 q 403 168 354 168 q 494 194 450 168 l 521 379 l 439 379 l 440 565 l 801 565 l 735 81 q 566 1 658 29 q 389 -26 474 -26 q 33 349 33 -26 q 90 666 33 519 q 264 903 147 813 q 551 993 381 993 m 543 1038 q 391 1102 442 1038 q 340 1263 340 1167 q 342 1290 340 1281 l 474 1311 q 497 1243 476 1269 q 557 1217 518 1217 q 669 1314 633 1217 l 804 1288 q 717 1109 783 1181 q 543 1038 650 1038 z "},"Ǧ":{"ha":817,"x_min":33,"x_max":843,"o":"m 551 993 q 719 958 644 993 q 843 867 793 924 l 700 736 q 624 786 658 771 q 546 801 590 801 q 363 654 418 801 q 307 314 307 507 q 331 201 307 235 q 403 168 354 168 q 494 194 450 168 l 521 379 l 439 379 l 440 565 l 801 565 l 735 81 q 566 1 658 29 q 389 -26 474 -26 q 33 349 33 -26 q 90 666 33 519 q 264 903 147 813 q 551 993 381 993 m 739 1332 l 824 1231 l 615 1039 l 463 1039 l 301 1239 l 401 1332 l 556 1211 l 739 1332 z "},"Ĝ":{"ha":817,"x_min":33,"x_max":843,"o":"m 551 993 q 719 958 644 993 q 843 867 793 924 l 700 736 q 624 786 658 771 q 546 801 590 801 q 363 654 418 801 q 307 314 307 507 q 331 201 307 235 q 403 168 354 168 q 494 194 450 168 l 521 379 l 439 379 l 440 565 l 801 565 l 735 81 q 566 1 658 29 q 389 -26 474 -26 q 33 349 33 -26 q 90 666 33 519 q 264 903 147 813 q 551 993 381 993 m 368 1047 l 283 1150 l 492 1342 l 646 1342 l 806 1142 l 706 1047 l 551 1168 l 368 1047 z "},"Ģ":{"ha":817,"x_min":33,"x_max":843,"o":"m 551 993 q 719 958 644 993 q 843 867 793 924 l 700 736 q 624 786 658 771 q 546 801 590 801 q 363 654 418 801 q 307 314 307 507 q 331 201 307 235 q 403 168 354 168 q 494 194 450 168 l 521 379 l 439 379 l 440 565 l 801 565 l 735 81 q 566 1 658 29 q 389 -26 474 -26 q 33 349 33 -26 q 90 666 33 519 q 264 903 147 813 q 551 993 381 993 m 379 -87 q 459 -117 428 -87 q 490 -194 490 -147 q 478 -259 490 -229 q 438 -336 467 -289 l 356 -471 l 235 -471 l 292 -308 q 249 -228 249 -279 q 286 -127 249 -167 q 379 -87 324 -87 z "},"Ġ":{"ha":817,"x_min":33,"x_max":843,"o":"m 551 993 q 719 958 644 993 q 843 867 793 924 l 700 736 q 624 786 658 771 q 546 801 590 801 q 363 654 418 801 q 307 314 307 507 q 331 201 307 235 q 403 168 354 168 q 494 194 450 168 l 521 379 l 439 379 l 440 565 l 801 565 l 735 81 q 566 1 658 29 q 389 -26 474 -26 q 33 349 33 -26 q 90 666 33 519 q 264 903 147 813 q 551 993 381 993 m 547 1036 q 453 1070 488 1036 q 418 1160 418 1104 q 465 1275 418 1229 q 581 1321 513 1321 q 675 1287 640 1321 q 710 1197 710 1253 q 663 1082 710 1128 q 547 1036 617 1036 z "},"Ɠ":{"ha":790,"x_min":32,"x_max":1075,"o":"m 896 1196 q 1075 1143 994 1196 l 986 983 q 914 1006 947 1006 q 871 986 886 1006 q 850 926 856 967 l 842 867 l 713 744 q 546 801 635 801 q 361 654 417 801 q 306 314 306 507 q 329 201 306 235 q 403 168 353 168 q 493 194 449 168 l 519 379 l 438 379 l 440 565 l 800 565 l 733 81 q 566 1 658 29 q 389 -26 474 -26 q 32 349 32 -26 q 90 663 32 515 q 259 902 149 811 q 519 993 369 993 q 640 971 585 993 l 640 974 q 718 1136 654 1076 q 896 1196 782 1196 z "},"Ɂ":{"ha":681,"x_min":78,"x_max":701,"o":"m 201 467 l 257 485 q 383 563 340 513 q 425 699 425 614 q 340 800 425 800 q 265 782 301 800 q 185 728 229 764 l 78 863 q 226 962 151 931 q 399 993 300 993 q 619 919 538 993 q 701 717 701 846 q 651 525 701 600 q 500 410 601 450 l 461 394 l 406 0 l 138 0 l 201 467 z "},"Ǥ":{"ha":861,"x_min":33,"x_max":857,"o":"m 838 244 l 757 244 l 735 81 q 566 1 658 29 q 389 -26 474 -26 q 33 349 33 -26 q 90 666 33 519 q 264 903 147 813 q 551 993 381 993 q 719 958 644 993 q 843 867 793 924 l 697 733 q 626 785 660 769 q 546 801 592 801 q 363 654 418 801 q 307 314 307 507 q 331 201 307 235 q 403 168 354 168 q 507 194 457 168 l 514 244 l 417 244 l 435 385 l 532 385 l 540 443 l 444 443 l 442 596 l 803 596 l 775 385 l 857 385 l 838 244 z "},"Ȝ":{"ha":653,"x_min":6,"x_max":668,"o":"m 383 993 q 592 927 515 993 q 668 753 668 861 q 418 496 668 553 q 576 447 524 494 q 629 308 629 399 q 453 7 629 126 q 6 -165 276 -112 l 17 28 q 199 99 129 64 q 308 184 268 133 q 349 310 349 235 q 322 378 349 358 q 233 399 296 399 l 144 399 l 199 589 l 265 589 q 360 625 331 589 q 390 724 390 661 q 321 801 390 801 q 160 729 250 801 l 57 863 q 383 993 197 993 z "},"H":{"ha":813,"x_min":-1,"x_max":844,"o":"m 267 0 l -1 0 l 135 967 l 403 967 l 353 606 l 525 606 l 575 967 l 844 967 l 710 0 l 440 0 l 494 394 l 324 394 l 267 0 z "},"Ħ":{"ha":839,"x_min":13,"x_max":899,"o":"m 899 832 l 878 689 l 819 689 l 724 0 l 454 0 l 508 394 l 338 394 l 281 0 l 13 0 l 110 689 l 49 689 l 69 832 l 129 832 l 149 967 l 417 967 l 399 832 l 571 832 l 589 967 l 858 967 l 839 832 l 899 832 m 539 606 l 550 689 l 378 689 l 367 606 l 539 606 z "},"Ȟ":{"ha":813,"x_min":-1,"x_max":844,"o":"m 267 0 l -1 0 l 135 967 l 403 967 l 353 606 l 525 606 l 575 967 l 844 967 l 710 0 l 440 0 l 494 394 l 324 394 l 267 0 m 700 1332 l 785 1231 l 576 1039 l 424 1039 l 263 1239 l 363 1332 l 517 1211 l 700 1332 z "},"Ĥ":{"ha":813,"x_min":-1,"x_max":844,"o":"m 267 0 l -1 0 l 135 967 l 403 967 l 353 606 l 525 606 l 575 967 l 844 967 l 710 0 l 440 0 l 494 394 l 324 394 l 267 0 m 329 1047 l 244 1150 l 453 1342 l 607 1342 l 767 1142 l 667 1047 l 513 1168 l 329 1047 z "},"Ḥ":{"ha":813,"x_min":-1,"x_max":844,"o":"m 267 0 l -1 0 l 135 967 l 403 967 l 353 606 l 525 606 l 575 967 l 844 967 l 710 0 l 440 0 l 494 394 l 324 394 l 267 0 m 336 -75 q 431 -109 396 -75 q 465 -199 465 -143 q 418 -314 465 -268 q 303 -360 371 -360 q 208 -326 243 -360 q 174 -236 174 -292 q 220 -121 174 -167 q 336 -75 267 -75 z "},"Ɦ":{"ha":1047,"x_min":53,"x_max":1078,"o":"m 1078 967 l 943 0 l 674 0 l 728 394 l 557 394 l 500 0 l 232 0 l 342 775 l 307 775 q 265 756 279 775 q 250 701 250 736 q 258 631 250 681 l 83 567 q 60 636 68 604 q 53 708 53 668 q 128 897 53 828 q 326 967 204 967 l 636 967 l 586 606 l 758 606 l 808 967 l 1078 967 z "},"Ɥ":{"ha":776,"x_min":40,"x_max":807,"o":"m 807 967 l 672 0 l 404 0 l 451 335 q 271 274 372 274 q 99 342 158 274 q 40 529 40 411 q 46 601 40 551 l 96 967 l 360 967 l 310 596 q 307 551 307 579 q 323 490 307 510 q 378 469 339 469 q 475 508 433 469 l 539 967 l 807 967 z "},"Ƕ":{"ha":1160,"x_min":-1,"x_max":1146,"o":"m 744 -26 q 542 40 611 -26 q 472 206 472 107 q 475 242 472 217 l 496 394 l 324 394 l 268 0 l -1 0 l 135 967 l 403 967 l 353 606 l 525 606 l 575 967 l 844 967 l 743 238 q 740 207 740 215 q 775 163 740 163 q 869 310 842 163 q 897 625 897 458 q 893 742 897 683 l 1136 742 q 1146 606 1146 664 q 1115 271 1146 407 q 995 54 1083 135 q 744 -26 907 -26 z "},"I":{"ha":371,"x_min":-1,"x_max":403,"o":"m 403 967 l 268 0 l -1 0 l 135 967 l 403 967 z "},"Ĳ":{"ha":781,"x_min":-1,"x_max":814,"o":"m 403 967 l 268 0 l -1 0 l 135 967 l 403 967 m 700 147 q 627 -59 682 21 q 499 -181 572 -139 q 326 -257 426 -224 l 279 -67 q 389 18 358 -33 q 432 164 419 69 l 544 967 l 814 967 l 700 147 z "},"Í":{"ha":371,"x_min":-1,"x_max":510,"o":"m 403 967 l 268 0 l -1 0 l 135 967 l 403 967 m 428 1340 l 510 1154 l 176 1032 l 118 1156 l 428 1340 z "},"Ĭ":{"ha":371,"x_min":-1,"x_max":544,"o":"m 403 967 l 268 0 l -1 0 l 135 967 l 403 967 m 283 1038 q 131 1102 182 1038 q 81 1263 81 1167 q 82 1290 81 1281 l 214 1311 q 238 1243 217 1269 q 297 1217 258 1217 q 410 1314 374 1217 l 544 1288 q 457 1109 524 1181 q 283 1038 390 1038 z "},"Ǐ":{"ha":371,"x_min":-1,"x_max":564,"o":"m 403 967 l 268 0 l -1 0 l 135 967 l 403 967 m 479 1332 l 564 1231 l 356 1039 l 203 1039 l 42 1239 l 142 1332 l 296 1211 l 479 1332 z "},"Î":{"ha":371,"x_min":-1,"x_max":546,"o":"m 403 967 l 268 0 l -1 0 l 135 967 l 403 967 m 108 1047 l 24 1150 l 232 1342 l 386 1342 l 546 1142 l 446 1047 l 292 1168 l 108 1047 z "},"Ȉ":{"ha":371,"x_min":-19,"x_max":476,"o":"m 403 967 l 268 0 l -1 0 l 135 967 l 403 967 m 157 1389 l 249 1096 l 113 1038 l -19 1311 l 157 1389 m 394 1389 l 476 1093 l 340 1043 l 218 1318 l 394 1389 z "},"Ï":{"ha":371,"x_min":-1,"x_max":575,"o":"m 403 967 l 268 0 l -1 0 l 135 967 l 403 967 m 125 1057 q 44 1087 74 1057 q 14 1165 14 1117 q 55 1265 14 1225 q 154 1306 96 1306 q 237 1276 207 1306 q 267 1197 267 1246 q 226 1097 267 1138 q 125 1057 185 1057 m 435 1057 q 353 1087 383 1057 q 324 1165 324 1117 q 364 1265 324 1225 q 464 1306 404 1306 q 545 1276 515 1306 q 575 1197 575 1246 q 535 1097 575 1138 q 435 1057 494 1057 z "},"Ḯ":{"ha":371,"x_min":-1,"x_max":590,"o":"m 403 967 l 268 0 l -1 0 l 135 967 l 403 967 m 435 1578 l 556 1446 l 307 1236 l 219 1319 l 435 1578 m 115 1040 q 34 1070 64 1040 q 4 1149 4 1100 q 45 1249 4 1208 q 144 1289 86 1289 q 226 1259 197 1289 q 256 1181 256 1229 q 215 1081 256 1121 q 115 1040 174 1040 m 450 1040 q 369 1070 399 1040 q 339 1149 339 1100 q 380 1249 339 1208 q 479 1289 421 1289 q 561 1259 532 1289 q 590 1181 590 1229 q 549 1081 590 1121 q 450 1040 508 1040 z "},"İ":{"ha":371,"x_min":-1,"x_max":450,"o":"m 403 967 l 268 0 l -1 0 l 135 967 l 403 967 m 288 1036 q 193 1070 228 1036 q 158 1160 158 1104 q 206 1275 158 1229 q 321 1321 253 1321 q 415 1287 381 1321 q 450 1197 450 1253 q 403 1082 450 1128 q 288 1036 357 1036 z "},"Ị":{"ha":371,"x_min":-44,"x_max":403,"o":"m 403 967 l 268 0 l -1 0 l 135 967 l 403 967 m 118 -75 q 213 -109 178 -75 q 247 -199 247 -143 q 200 -314 247 -268 q 85 -360 153 -360 q -10 -326 25 -360 q -44 -236 -44 -292 q 2 -121 -44 -167 q 118 -75 49 -75 z "},"Ì":{"ha":371,"x_min":-1,"x_max":497,"o":"m 403 967 l 268 0 l -1 0 l 135 967 l 403 967 m 231 1338 l 497 1153 l 426 1033 l 124 1151 l 231 1338 z "},"Ỉ":{"ha":371,"x_min":-1,"x_max":489,"o":"m 403 967 l 268 0 l -1 0 l 135 967 l 403 967 m 229 1189 q 301 1205 279 1192 q 324 1246 324 1218 q 315 1270 324 1263 q 283 1278 306 1278 q 207 1260 250 1278 l 183 1363 q 328 1399 247 1399 q 447 1361 406 1399 q 489 1263 489 1324 q 454 1167 489 1204 q 360 1117 419 1129 l 354 1061 l 214 1061 l 229 1189 z "},"Ȋ":{"ha":371,"x_min":-1,"x_max":524,"o":"m 403 967 l 268 0 l -1 0 l 135 967 l 403 967 m 50 1076 q 142 1266 74 1192 q 319 1340 211 1340 q 474 1274 424 1340 q 524 1104 524 1208 q 522 1074 524 1085 l 385 1054 q 301 1161 378 1161 q 229 1131 260 1161 q 182 1050 199 1101 l 50 1076 z "},"Ī":{"ha":371,"x_min":-1,"x_max":511,"o":"m 403 967 l 268 0 l -1 0 l 135 967 l 403 967 m 483 1076 l 78 1076 l 104 1257 l 511 1257 l 483 1076 z "},"Į":{"ha":371,"x_min":-137,"x_max":403,"o":"m 403 967 l 268 0 l 204 0 q 78 -75 113 -35 q 43 -150 43 -115 q 99 -196 43 -196 q 172 -187 119 -196 l 136 -339 q 43 -350 94 -350 q -87 -308 -36 -350 q -137 -193 -137 -267 q 0 11 -137 -69 l 135 967 l 403 967 z "},"Ɩ":{"ha":510,"x_min":19,"x_max":483,"o":"m 483 33 q 278 -26 394 -26 q 88 33 156 -26 q 19 206 19 92 q 22 254 19 221 l 26 288 l 122 967 l 390 967 l 294 288 l 296 288 l 289 235 q 288 219 288 229 q 336 168 288 168 q 378 174 360 168 q 424 192 397 179 l 483 33 z "},"Ɨ":{"ha":431,"x_min":7,"x_max":460,"o":"m 460 600 l 433 401 l 356 401 l 300 0 l 31 0 l 88 401 l 7 401 l 35 600 l 115 600 l 167 967 l 435 967 l 383 600 l 460 600 z "},"Ĩ":{"ha":371,"x_min":-1,"x_max":558,"o":"m 403 967 l 268 0 l -1 0 l 135 967 l 403 967 m 358 1043 q 317 1052 336 1043 q 274 1078 297 1061 q 244 1097 256 1090 q 221 1103 232 1103 q 184 1088 200 1103 q 147 1042 168 1074 l 38 1106 q 127 1236 75 1185 q 236 1288 179 1288 q 283 1278 264 1288 q 329 1250 303 1268 q 356 1232 344 1238 q 378 1226 367 1226 q 413 1240 397 1226 q 447 1286 428 1254 l 558 1225 q 469 1094 522 1146 q 358 1043 415 1043 z "},"J":{"ha":410,"x_min":-92,"x_max":443,"o":"m 329 147 q 256 -59 311 21 q 128 -181 201 -139 q -44 -257 56 -224 l -92 -67 q 18 18 -12 -33 q 61 164 49 69 l 174 967 l 443 967 l 329 147 z "},"Ĵ":{"ha":410,"x_min":-92,"x_max":585,"o":"m 329 147 q 256 -59 311 21 q 128 -181 201 -139 q -44 -257 56 -224 l -92 -67 q 18 18 -12 -33 q 61 164 49 69 l 174 967 l 443 967 l 329 147 m 147 1047 l 63 1150 l 271 1342 l 425 1342 l 585 1142 l 485 1047 l 331 1168 l 147 1047 z "},"Ʝ":{"ha":490,"x_min":-168,"x_max":521,"o":"m 385 -11 q 488 -64 440 -31 l 431 -161 q 353 -126 404 -147 q 240 -268 315 -222 q 40 -314 164 -314 q -114 -271 -60 -314 q -168 -149 -168 -228 q -106 -11 -168 -60 q 50 38 -44 38 q 122 35 89 38 l 253 967 l 521 967 l 390 26 l 385 -11 m 25 -186 q 76 -162 58 -186 q 104 -83 94 -139 q 49 -81 76 -81 q -1 -97 17 -81 q -18 -140 -18 -112 q -7 -174 -18 -162 q 25 -186 4 -186 z "},"Ɉ":{"ha":432,"x_min":-94,"x_max":461,"o":"m 435 376 l 358 376 l 326 147 q 253 -59 308 21 q 126 -181 199 -139 q -47 -257 53 -224 l -94 -67 q 15 18 -15 -33 q 58 164 46 69 l 88 376 l 8 376 l 36 576 l 117 576 l 171 967 l 440 967 l 386 576 l 461 576 l 435 376 z "},"K":{"ha":833,"x_min":-1,"x_max":913,"o":"m -1 0 l 135 967 l 403 967 l 268 0 l -1 0 m 504 0 l 347 515 l 639 967 l 913 967 l 619 522 l 800 0 l 504 0 z "},"Ǩ":{"ha":833,"x_min":-1,"x_max":913,"o":"m -1 0 l 135 967 l 403 967 l 268 0 l -1 0 m 504 0 l 347 515 l 639 967 l 913 967 l 619 522 l 800 0 l 504 0 m 704 1332 l 789 1231 l 581 1039 l 428 1039 l 267 1239 l 367 1332 l 521 1211 l 704 1332 z "},"Ķ":{"ha":833,"x_min":-1,"x_max":913,"o":"m -1 0 l 135 967 l 403 967 l 268 0 l -1 0 m 504 0 l 347 515 l 639 967 l 913 967 l 619 522 l 800 0 l 504 0 m 354 -87 q 434 -117 403 -87 q 465 -194 465 -147 q 453 -259 465 -229 q 413 -336 442 -289 l 331 -471 l 210 -471 l 267 -308 q 224 -228 224 -279 q 261 -127 224 -167 q 354 -87 299 -87 z "},"Ƙ":{"ha":847,"x_min":-1,"x_max":947,"o":"m 347 515 l 539 826 q 652 956 596 918 q 794 993 708 993 q 882 979 846 993 q 947 940 918 965 l 867 792 q 853 798 865 793 q 824 803 842 803 q 787 792 803 803 q 753 751 771 781 l 621 524 l 800 0 l 503 0 l 347 515 m -1 0 l 135 967 l 403 967 l 268 0 l -1 0 z "},"L":{"ha":646,"x_min":-1,"x_max":618,"o":"m 403 967 l 299 211 l 618 211 l 560 0 l -1 0 l 135 967 l 403 967 z "},"Ǉ":{"ha":1021,"x_min":-1,"x_max":1054,"o":"m 403 967 l 299 211 l 618 211 l 560 0 l -1 0 l 135 967 l 403 967 m 940 147 q 867 -59 922 21 q 740 -181 813 -139 q 567 -257 667 -224 l 519 -67 q 629 18 599 -33 q 672 164 660 69 l 785 967 l 1054 967 l 940 147 z "},"Ĺ":{"ha":646,"x_min":-1,"x_max":618,"o":"m 403 967 l 299 211 l 618 211 l 560 0 l -1 0 l 135 967 l 403 967 m 428 1340 l 510 1154 l 176 1032 l 118 1156 l 428 1340 z "},"Ƚ":{"ha":674,"x_min":8,"x_max":646,"o":"m 326 211 l 646 211 l 588 0 l 26 0 l 83 404 l 8 404 l 36 604 l 111 604 l 163 967 l 431 967 l 381 604 l 461 604 l 435 404 l 353 404 l 326 211 z "},"Ɬ":{"ha":819,"x_min":17,"x_max":792,"o":"m 792 211 l 733 0 l 172 0 l 221 346 q 68 396 119 350 q 17 518 17 442 q 72 657 17 606 q 218 708 128 708 q 271 701 250 708 l 308 967 l 576 967 l 511 493 q 638 506 571 496 l 640 369 q 492 351 563 354 l 472 211 l 792 211 m 183 532 q 240 488 183 488 l 253 575 q 225 579 240 579 q 194 566 206 579 q 183 532 183 553 z "},"Ľ":{"ha":646,"x_min":-1,"x_max":642,"o":"m 403 967 l 299 211 l 618 211 l 560 0 l -1 0 l 135 967 l 403 967 m 463 988 l 642 965 l 536 644 l 408 656 l 463 988 z "},"Ḽ":{"ha":646,"x_min":-24,"x_max":618,"o":"m 403 967 l 299 211 l 618 211 l 560 0 l -1 0 l 135 967 l 403 967 m 58 -392 l -24 -290 l 186 -85 l 340 -85 l 497 -297 l 394 -392 l 244 -258 l 58 -392 z "},"Ļ":{"ha":646,"x_min":-1,"x_max":618,"o":"m 403 967 l 299 211 l 618 211 l 560 0 l -1 0 l 135 967 l 403 967 m 274 -87 q 353 -117 322 -87 q 385 -194 385 -147 q 373 -259 385 -229 q 332 -336 361 -289 l 250 -471 l 129 -471 l 186 -308 q 143 -228 143 -279 q 181 -127 143 -167 q 274 -87 218 -87 z "},"Ŀ":{"ha":646,"x_min":-1,"x_max":676,"o":"m 403 967 l 299 211 l 618 211 l 560 0 l -1 0 l 135 967 l 403 967 m 514 417 q 419 451 454 417 q 385 540 385 485 q 432 656 385 610 q 547 701 479 701 q 642 667 607 701 q 676 578 676 633 q 630 463 676 508 q 514 417 583 417 z "},"Ḷ":{"ha":646,"x_min":-1,"x_max":618,"o":"m 403 967 l 299 211 l 618 211 l 560 0 l -1 0 l 135 967 l 403 967 m 265 -75 q 360 -109 325 -75 q 394 -199 394 -143 q 347 -314 394 -268 q 232 -360 300 -360 q 138 -326 172 -360 q 103 -236 103 -292 q 149 -121 103 -167 q 265 -75 196 -75 z "},"ǈ":{"ha":976,"x_min":-1,"x_max":1036,"o":"m 403 967 l 299 211 l 618 211 l 560 0 l -1 0 l 135 967 l 403 967 m 467 -126 q 582 -50 544 -96 q 632 88 619 -4 l 724 742 l 982 742 l 892 101 q 822 -108 874 -26 q 699 -234 771 -189 q 526 -314 626 -279 l 467 -126 m 874 861 q 779 895 814 861 q 744 985 744 929 q 792 1100 744 1054 q 907 1146 839 1146 q 1001 1112 967 1146 q 1036 1022 1036 1078 q 990 907 1036 953 q 874 861 943 861 z "},"Ł":{"ha":711,"x_min":-1,"x_max":683,"o":"m 364 211 l 683 211 l 625 0 l 64 0 l 104 290 l 61 264 l -1 393 l 131 475 l 200 967 l 468 967 l 425 656 l 560 739 l 625 610 l 400 472 l 364 211 z "},"M":{"ha":990,"x_min":-32,"x_max":992,"o":"m 917 0 l 654 0 l 697 351 q 765 771 715 500 l 583 99 l 326 99 l 315 768 q 302 538 310 631 q 281 349 294 446 l 231 0 l -32 0 l 163 967 l 485 967 l 483 310 l 650 967 l 992 967 l 917 0 z "},"Ḿ":{"ha":990,"x_min":-32,"x_max":992,"o":"m 917 0 l 654 0 l 697 351 q 765 771 715 500 l 583 99 l 326 99 l 315 768 q 302 538 310 631 q 281 349 294 446 l 231 0 l -32 0 l 163 967 l 485 967 l 483 310 l 650 967 l 992 967 l 917 0 m 726 1340 l 808 1154 l 475 1032 l 417 1156 l 726 1340 z "},"Ṁ":{"ha":990,"x_min":-32,"x_max":992,"o":"m 917 0 l 654 0 l 697 351 q 765 771 715 500 l 583 99 l 326 99 l 315 768 q 302 538 310 631 q 281 349 294 446 l 231 0 l -32 0 l 163 967 l 485 967 l 483 310 l 650 967 l 992 967 l 917 0 m 586 1036 q 492 1070 526 1036 q 457 1160 457 1104 q 504 1275 457 1229 q 619 1321 551 1321 q 714 1287 679 1321 q 749 1197 749 1253 q 702 1082 749 1128 q 586 1036 656 1036 z "},"Ɯ":{"ha":1117,"x_min":13,"x_max":1147,"o":"m 1147 967 l 1013 0 l 775 0 l 768 81 q 672 -2 717 22 q 569 -26 626 -26 q 467 3 508 -26 q 406 86 425 33 q 306 1 358 28 q 192 -26 254 -26 q 60 30 107 -26 q 13 176 13 86 q 17 225 13 200 l 121 967 l 390 967 l 288 235 q 318 172 282 172 q 399 242 354 172 l 500 967 l 768 967 l 667 235 q 665 217 665 228 q 674 184 665 196 q 697 172 682 172 q 776 242 736 172 l 878 967 l 1147 967 z "},"N":{"ha":806,"x_min":0,"x_max":838,"o":"m 703 0 l 376 0 l 283 740 q 289 564 289 626 q 271 296 289 429 l 233 0 l 0 0 l 135 967 l 458 967 l 551 225 q 546 404 546 353 q 563 656 546 524 l 604 967 l 838 967 l 703 0 z "},"Ǌ":{"ha":1215,"x_min":0,"x_max":1249,"o":"m 703 0 l 376 0 l 283 740 q 289 564 289 626 q 271 296 289 429 l 233 0 l 0 0 l 135 967 l 458 967 l 551 225 q 546 404 546 353 q 563 656 546 524 l 604 967 l 838 967 l 703 0 m 1135 147 q 1062 -59 1117 21 q 934 -181 1007 -139 q 761 -257 861 -224 l 714 -67 q 824 18 793 -33 q 867 164 854 69 l 979 967 l 1249 967 l 1135 147 z "},"Ń":{"ha":806,"x_min":0,"x_max":838,"o":"m 703 0 l 376 0 l 283 740 q 289 564 289 626 q 271 296 289 429 l 233 0 l 0 0 l 135 967 l 458 967 l 551 225 q 546 404 546 353 q 563 656 546 524 l 604 967 l 838 967 l 703 0 m 643 1340 l 725 1154 l 392 1032 l 333 1156 l 643 1340 z "},"Ň":{"ha":806,"x_min":0,"x_max":838,"o":"m 703 0 l 376 0 l 283 740 q 289 564 289 626 q 271 296 289 429 l 233 0 l 0 0 l 135 967 l 458 967 l 551 225 q 546 404 546 353 q 563 656 546 524 l 604 967 l 838 967 l 703 0 m 694 1332 l 779 1231 l 571 1039 l 418 1039 l 257 1239 l 357 1332 l 511 1211 l 694 1332 z "},"Ṋ":{"ha":806,"x_min":0,"x_max":838,"o":"m 703 0 l 376 0 l 283 740 q 289 564 289 626 q 271 296 289 429 l 233 0 l 0 0 l 135 967 l 458 967 l 551 225 q 546 404 546 353 q 563 656 546 524 l 604 967 l 838 967 l 703 0 m 129 -392 l 47 -290 l 257 -85 l 411 -85 l 568 -297 l 465 -392 l 315 -258 l 129 -392 z "},"Ņ":{"ha":806,"x_min":0,"x_max":838,"o":"m 703 0 l 376 0 l 283 740 q 289 564 289 626 q 271 296 289 429 l 233 0 l 0 0 l 135 967 l 458 967 l 551 225 q 546 404 546 353 q 563 656 546 524 l 604 967 l 838 967 l 703 0 m 344 -87 q 424 -117 393 -87 q 456 -194 456 -147 q 444 -259 456 -229 q 403 -336 432 -289 l 321 -471 l 200 -471 l 257 -308 q 214 -228 214 -279 q 251 -127 214 -167 q 344 -87 289 -87 z "},"Ṅ":{"ha":806,"x_min":0,"x_max":838,"o":"m 703 0 l 376 0 l 283 740 q 289 564 289 626 q 271 296 289 429 l 233 0 l 0 0 l 135 967 l 458 967 l 551 225 q 546 404 546 353 q 563 656 546 524 l 604 967 l 838 967 l 703 0 m 503 1036 q 408 1070 443 1036 q 374 1160 374 1104 q 421 1275 374 1229 q 536 1321 468 1321 q 631 1287 596 1321 q 665 1197 665 1253 q 619 1082 665 1128 q 503 1036 572 1036 z "},"Ṇ":{"ha":806,"x_min":0,"x_max":838,"o":"m 703 0 l 376 0 l 283 740 q 289 564 289 626 q 271 296 289 429 l 233 0 l 0 0 l 135 967 l 458 967 l 551 225 q 546 404 546 353 q 563 656 546 524 l 604 967 l 838 967 l 703 0 m 336 -75 q 431 -109 396 -75 q 465 -199 465 -143 q 418 -314 465 -268 q 303 -360 371 -360 q 208 -326 243 -360 q 174 -236 174 -292 q 220 -121 174 -167 q 336 -75 267 -75 z "},"Ǹ":{"ha":806,"x_min":0,"x_max":838,"o":"m 703 0 l 376 0 l 283 740 q 289 564 289 626 q 271 296 289 429 l 233 0 l 0 0 l 135 967 l 458 967 l 551 225 q 546 404 546 353 q 563 656 546 524 l 604 967 l 838 967 l 703 0 m 446 1338 l 713 1153 l 642 1033 l 339 1151 l 446 1338 z "},"Ŋ":{"ha":806,"x_min":0,"x_max":838,"o":"m 838 967 l 703 0 l 697 -37 q 588 -244 676 -174 q 368 -315 500 -315 q 174 -251 247 -315 l 279 -96 q 317 -114 301 -108 q 356 -119 333 -119 q 403 -101 385 -119 q 426 -50 421 -83 l 433 0 l 376 0 l 283 740 q 289 564 289 626 q 271 296 289 429 l 233 0 l 0 0 l 135 967 l 458 967 l 551 225 q 546 404 546 353 q 563 656 546 524 l 604 967 l 838 967 z "},"Ɲ":{"ha":806,"x_min":-261,"x_max":838,"o":"m 838 967 l 703 0 l 376 0 l 283 740 q 289 564 289 626 q 271 296 289 429 l 233 0 l 226 -46 q 132 -246 207 -178 q -68 -314 57 -314 q -178 -297 -132 -314 q -261 -250 -224 -279 l -154 -106 q -116 -124 -132 -118 q -78 -129 -100 -129 q -7 -50 -18 -129 l 0 0 l 135 967 l 458 967 l 551 225 q 546 404 546 353 q 563 656 546 524 l 604 967 l 838 967 z "},"ǋ":{"ha":1157,"x_min":0,"x_max":1217,"o":"m 703 0 l 376 0 l 283 740 q 289 564 289 626 q 271 296 289 429 l 233 0 l 0 0 l 135 967 l 458 967 l 551 225 q 546 404 546 353 q 563 656 546 524 l 604 967 l 838 967 l 703 0 m 647 -126 q 763 -50 725 -96 q 813 88 800 -4 l 904 742 l 1163 742 l 1072 101 q 1003 -108 1054 -26 q 879 -234 951 -189 q 707 -314 807 -279 l 647 -126 m 1054 861 q 960 895 994 861 q 925 985 925 929 q 972 1100 925 1054 q 1088 1146 1019 1146 q 1182 1112 1147 1146 q 1217 1022 1217 1078 q 1170 907 1217 953 q 1054 861 1124 861 z "},"Ƞ":{"ha":797,"x_min":-1,"x_max":803,"o":"m 610 993 q 753 938 704 993 q 803 792 803 882 q 800 743 803 760 l 658 -299 l 389 -299 l 528 718 q 531 743 531 738 q 486 794 531 794 q 371 733 439 794 l 267 0 l -1 0 l 135 967 l 369 967 l 376 896 q 488 969 431 946 q 610 993 544 993 z "},"Ñ":{"ha":806,"x_min":0,"x_max":838,"o":"m 703 0 l 376 0 l 283 740 q 289 564 289 626 q 271 296 289 429 l 233 0 l 0 0 l 135 967 l 458 967 l 551 225 q 546 404 546 353 q 563 656 546 524 l 604 967 l 838 967 l 703 0 m 574 1043 q 532 1052 551 1043 q 489 1078 513 1061 q 459 1097 471 1090 q 436 1103 447 1103 q 399 1088 415 1103 q 363 1042 383 1074 l 253 1106 q 342 1236 290 1185 q 451 1288 394 1288 q 499 1278 479 1288 q 544 1250 518 1268 q 571 1232 560 1238 q 593 1226 582 1226 q 628 1240 613 1226 q 663 1286 643 1254 l 774 1225 q 684 1094 738 1146 q 574 1043 631 1043 z "},"O":{"ha":867,"x_min":35,"x_max":864,"o":"m 517 993 q 776 896 688 993 q 864 613 864 799 q 814 301 864 447 q 656 64 764 156 q 382 -28 547 -28 q 123 70 211 -28 q 35 356 35 168 q 85 666 35 521 q 243 902 135 811 q 517 993 351 993 m 497 799 q 387 717 429 799 q 327 522 344 635 q 310 311 310 410 q 331 201 310 235 q 400 168 353 168 q 512 248 469 168 q 572 439 554 328 q 589 653 589 550 q 567 765 589 731 q 497 799 544 799 z "},"Ȣ":{"ha":813,"x_min":15,"x_max":826,"o":"m 796 747 q 644 556 778 615 q 779 351 779 497 q 724 152 779 238 q 574 20 669 67 q 358 -26 478 -26 q 174 12 251 -26 q 56 116 96 50 q 15 264 15 182 q 69 442 15 369 q 219 553 124 514 q 124 715 124 601 q 125 750 124 738 l 153 967 l 422 967 l 389 729 q 388 699 388 718 q 400 652 388 667 q 443 638 413 638 q 500 661 482 638 q 524 732 518 685 l 557 967 l 826 967 l 796 747 m 379 168 q 465 217 432 168 q 499 344 499 265 q 478 424 499 396 q 418 451 458 451 q 331 402 365 451 q 297 274 297 353 q 318 196 297 224 q 379 168 339 168 z "},"Ó":{"ha":867,"x_min":35,"x_max":864,"o":"m 517 993 q 776 896 688 993 q 864 613 864 799 q 814 301 864 447 q 656 64 764 156 q 382 -28 547 -28 q 123 70 211 -28 q 35 356 35 168 q 85 666 35 521 q 243 902 135 811 q 517 993 351 993 m 497 799 q 387 717 429 799 q 327 522 344 635 q 310 311 310 410 q 331 201 310 235 q 400 168 353 168 q 512 248 469 168 q 572 439 554 328 q 589 653 589 550 q 567 765 589 731 q 497 799 544 799 m 672 1340 l 754 1154 l 421 1032 l 363 1156 l 672 1340 z "},"Ŏ":{"ha":867,"x_min":35,"x_max":864,"o":"m 517 993 q 776 896 688 993 q 864 613 864 799 q 814 301 864 447 q 656 64 764 156 q 382 -28 547 -28 q 123 70 211 -28 q 35 356 35 168 q 85 666 35 521 q 243 902 135 811 q 517 993 351 993 m 497 799 q 387 717 429 799 q 327 522 344 635 q 310 311 310 410 q 331 201 310 235 q 400 168 353 168 q 512 248 469 168 q 572 439 554 328 q 589 653 589 550 q 567 765 589 731 q 497 799 544 799 m 528 1038 q 376 1102 426 1038 q 325 1263 325 1167 q 326 1290 325 1281 l 458 1311 q 482 1243 461 1269 q 542 1217 503 1217 q 654 1314 618 1217 l 789 1288 q 701 1109 768 1181 q 528 1038 635 1038 z "},"Ǒ":{"ha":867,"x_min":35,"x_max":864,"o":"m 517 993 q 776 896 688 993 q 864 613 864 799 q 814 301 864 447 q 656 64 764 156 q 382 -28 547 -28 q 123 70 211 -28 q 35 356 35 168 q 85 666 35 521 q 243 902 135 811 q 517 993 351 993 m 497 799 q 387 717 429 799 q 327 522 344 635 q 310 311 310 410 q 331 201 310 235 q 400 168 353 168 q 512 248 469 168 q 572 439 554 328 q 589 653 589 550 q 567 765 589 731 q 497 799 544 799 m 724 1332 l 808 1231 l 600 1039 l 447 1039 l 286 1239 l 386 1332 l 540 1211 l 724 1332 z "},"Ɵ":{"ha":867,"x_min":35,"x_max":864,"o":"m 517 993 q 776 896 688 993 q 864 613 864 799 q 814 301 864 447 q 656 64 764 156 q 382 -28 547 -28 q 123 70 211 -28 q 35 356 35 168 q 85 666 35 521 q 243 902 135 811 q 517 993 351 993 m 504 804 q 390 736 435 804 q 321 560 344 668 l 600 560 q 603 650 603 624 q 580 769 603 733 q 504 804 557 804 m 394 161 q 513 232 468 161 q 581 415 558 303 l 300 415 q 296 314 296 360 q 319 196 296 231 q 394 161 342 161 z "},"Ô":{"ha":867,"x_min":35,"x_max":864,"o":"m 517 993 q 776 896 688 993 q 864 613 864 799 q 814 301 864 447 q 656 64 764 156 q 382 -28 547 -28 q 123 70 211 -28 q 35 356 35 168 q 85 666 35 521 q 243 902 135 811 q 517 993 351 993 m 497 799 q 387 717 429 799 q 327 522 344 635 q 310 311 310 410 q 331 201 310 235 q 400 168 353 168 q 512 248 469 168 q 572 439 554 328 q 589 653 589 550 q 567 765 589 731 q 497 799 544 799 m 353 1047 l 268 1150 l 476 1342 l 631 1342 l 790 1142 l 690 1047 l 536 1168 l 353 1047 z "},"Ố":{"ha":867,"x_min":35,"x_max":1006,"o":"m 885 1568 l 1006 1436 l 757 1226 l 669 1310 l 885 1568 m 350 1007 l 265 1110 l 474 1301 l 628 1301 l 788 1101 l 688 1007 l 533 1128 l 350 1007 m 517 993 q 776 896 688 993 q 864 613 864 799 q 814 301 864 447 q 656 64 764 156 q 382 -28 547 -28 q 123 70 211 -28 q 35 356 35 168 q 85 666 35 521 q 243 902 135 811 q 517 993 351 993 m 497 799 q 387 717 429 799 q 327 522 344 635 q 310 311 310 410 q 331 201 310 235 q 400 168 353 168 q 512 248 469 168 q 572 439 554 328 q 589 653 589 550 q 567 765 589 731 q 497 799 544 799 z "},"Ộ":{"ha":867,"x_min":35,"x_max":864,"o":"m 517 993 q 776 896 688 993 q 864 613 864 799 q 814 301 864 447 q 656 64 764 156 q 382 -28 547 -28 q 123 70 211 -28 q 35 356 35 168 q 85 666 35 521 q 243 902 135 811 q 517 993 351 993 m 497 799 q 387 717 429 799 q 327 522 344 635 q 310 311 310 410 q 331 201 310 235 q 400 168 353 168 q 512 248 469 168 q 572 439 554 328 q 589 653 589 550 q 567 765 589 731 q 497 799 544 799 m 353 1047 l 268 1150 l 476 1342 l 631 1342 l 790 1142 l 690 1047 l 536 1168 l 353 1047 m 368 -75 q 463 -109 428 -75 q 497 -199 497 -143 q 450 -314 497 -268 q 335 -360 403 -360 q 240 -326 275 -360 q 206 -236 206 -292 q 252 -121 206 -167 q 368 -75 299 -75 z "},"Ồ":{"ha":867,"x_min":35,"x_max":864,"o":"m 285 1564 l 426 1303 l 319 1226 l 131 1446 l 285 1564 m 351 1007 l 267 1110 l 475 1301 l 629 1301 l 789 1101 l 689 1007 l 535 1128 l 351 1007 m 517 993 q 776 896 688 993 q 864 613 864 799 q 814 301 864 447 q 656 64 764 156 q 382 -28 547 -28 q 123 70 211 -28 q 35 356 35 168 q 85 666 35 521 q 243 902 135 811 q 517 993 351 993 m 497 799 q 387 717 429 799 q 327 522 344 635 q 310 311 310 410 q 331 201 310 235 q 400 168 353 168 q 512 248 469 168 q 572 439 554 328 q 589 653 589 550 q 567 765 589 731 q 497 799 544 799 z "},"Ổ":{"ha":867,"x_min":35,"x_max":971,"o":"m 517 993 q 776 896 688 993 q 864 613 864 799 q 814 301 864 447 q 656 64 764 156 q 382 -28 547 -28 q 123 70 211 -28 q 35 356 35 168 q 85 666 35 521 q 243 902 135 811 q 517 993 351 993 m 497 799 q 387 717 429 799 q 327 522 344 635 q 310 311 310 410 q 331 201 310 235 q 400 168 353 168 q 512 248 469 168 q 572 439 554 328 q 589 653 589 550 q 567 765 589 731 q 497 799 544 799 m 346 1007 l 261 1110 l 469 1301 l 624 1301 l 783 1101 l 683 1007 l 529 1128 l 346 1007 m 711 1343 q 783 1359 761 1346 q 806 1400 806 1372 q 797 1424 806 1417 q 765 1432 788 1432 q 689 1414 732 1432 l 665 1517 q 810 1553 729 1553 q 929 1515 888 1553 q 971 1417 971 1478 q 936 1321 971 1358 q 842 1271 901 1283 l 836 1215 l 696 1215 l 711 1343 z "},"Ỗ":{"ha":867,"x_min":35,"x_max":864,"o":"m 635 1339 q 594 1347 613 1339 q 551 1371 575 1356 q 531 1383 547 1374 q 500 1393 514 1393 q 463 1380 479 1393 q 428 1338 447 1367 l 319 1394 q 408 1513 357 1467 q 515 1560 460 1560 q 563 1551 543 1560 q 606 1526 582 1542 q 654 1504 635 1504 q 688 1517 672 1504 q 722 1558 703 1529 l 831 1503 q 743 1385 796 1431 q 635 1339 690 1339 m 349 1007 l 264 1110 l 472 1301 l 626 1301 l 786 1101 l 686 1007 l 532 1128 l 349 1007 m 517 993 q 776 896 688 993 q 864 613 864 799 q 814 301 864 447 q 656 64 764 156 q 382 -28 547 -28 q 123 70 211 -28 q 35 356 35 168 q 85 666 35 521 q 243 902 135 811 q 517 993 351 993 m 497 799 q 387 717 429 799 q 327 522 344 635 q 310 311 310 410 q 331 201 310 235 q 400 168 353 168 q 512 248 469 168 q 572 439 554 328 q 589 653 589 550 q 567 765 589 731 q 497 799 544 799 z "},"Ȍ":{"ha":867,"x_min":35,"x_max":864,"o":"m 517 993 q 776 896 688 993 q 864 613 864 799 q 814 301 864 447 q 656 64 764 156 q 382 -28 547 -28 q 123 70 211 -28 q 35 356 35 168 q 85 666 35 521 q 243 902 135 811 q 517 993 351 993 m 497 799 q 387 717 429 799 q 327 522 344 635 q 310 311 310 410 q 331 201 310 235 q 400 168 353 168 q 512 248 469 168 q 572 439 554 328 q 589 653 589 550 q 567 765 589 731 q 497 799 544 799 m 401 1389 l 493 1096 l 357 1038 l 225 1311 l 401 1389 m 639 1389 l 721 1093 l 585 1043 l 463 1318 l 639 1389 z "},"Ö":{"ha":867,"x_min":35,"x_max":864,"o":"m 517 993 q 776 896 688 993 q 864 613 864 799 q 814 301 864 447 q 656 64 764 156 q 382 -28 547 -28 q 123 70 211 -28 q 35 356 35 168 q 85 666 35 521 q 243 902 135 811 q 517 993 351 993 m 497 799 q 387 717 429 799 q 327 522 344 635 q 310 311 310 410 q 331 201 310 235 q 400 168 353 168 q 512 248 469 168 q 572 439 554 328 q 589 653 589 550 q 567 765 589 731 q 497 799 544 799 m 369 1057 q 288 1087 318 1057 q 258 1165 258 1117 q 299 1265 258 1225 q 399 1306 340 1306 q 481 1276 451 1306 q 511 1197 511 1246 q 470 1097 511 1138 q 369 1057 429 1057 m 679 1057 q 598 1087 628 1057 q 568 1165 568 1117 q 608 1265 568 1225 q 708 1306 649 1306 q 790 1276 760 1306 q 819 1197 819 1246 q 779 1097 819 1138 q 679 1057 739 1057 z "},"Ȫ":{"ha":867,"x_min":35,"x_max":864,"o":"m 517 993 q 776 896 688 993 q 864 613 864 799 q 814 301 864 447 q 656 64 764 156 q 382 -28 547 -28 q 123 70 211 -28 q 35 356 35 168 q 85 666 35 521 q 243 902 135 811 q 517 993 351 993 m 497 799 q 387 717 429 799 q 327 522 344 635 q 310 311 310 410 q 331 201 310 235 q 400 168 353 168 q 512 248 469 168 q 572 439 554 328 q 589 653 589 550 q 567 765 589 731 q 497 799 544 799 m 368 1035 q 287 1065 317 1035 q 257 1143 257 1094 q 298 1243 257 1203 q 397 1283 339 1283 q 480 1253 450 1283 q 510 1175 510 1224 q 469 1075 510 1115 q 368 1035 428 1035 m 678 1035 q 597 1065 626 1035 q 567 1143 567 1094 q 607 1243 567 1203 q 707 1283 647 1283 q 788 1253 758 1283 q 818 1175 818 1224 q 778 1075 818 1115 q 678 1035 738 1035 m 758 1335 l 353 1335 l 379 1515 l 786 1515 l 758 1335 z "},"Ȯ":{"ha":867,"x_min":35,"x_max":864,"o":"m 517 993 q 776 896 688 993 q 864 613 864 799 q 814 301 864 447 q 656 64 764 156 q 382 -28 547 -28 q 123 70 211 -28 q 35 356 35 168 q 85 666 35 521 q 243 902 135 811 q 517 993 351 993 m 497 799 q 387 717 429 799 q 327 522 344 635 q 310 311 310 410 q 331 201 310 235 q 400 168 353 168 q 512 248 469 168 q 572 439 554 328 q 589 653 589 550 q 567 765 589 731 q 497 799 544 799 m 532 1036 q 438 1070 472 1036 q 403 1160 403 1104 q 450 1275 403 1229 q 565 1321 497 1321 q 660 1287 625 1321 q 694 1197 694 1253 q 648 1082 694 1128 q 532 1036 601 1036 z "},"Ȱ":{"ha":867,"x_min":35,"x_max":864,"o":"m 517 993 q 776 896 688 993 q 864 613 864 799 q 814 301 864 447 q 656 64 764 156 q 382 -28 547 -28 q 123 70 211 -28 q 35 356 35 168 q 85 666 35 521 q 243 902 135 811 q 517 993 351 993 m 497 799 q 387 717 429 799 q 327 522 344 635 q 310 311 310 410 q 331 201 310 235 q 400 168 353 168 q 512 248 469 168 q 572 439 554 328 q 589 653 589 550 q 567 765 589 731 q 497 799 544 799 m 522 1019 q 428 1053 463 1019 q 393 1143 393 1088 q 440 1258 393 1213 q 556 1304 488 1304 q 650 1270 615 1304 q 685 1181 685 1236 q 638 1065 685 1111 q 522 1019 592 1019 m 771 1335 l 365 1335 l 392 1515 l 799 1515 l 771 1335 z "},"Ọ":{"ha":867,"x_min":35,"x_max":864,"o":"m 517 993 q 776 896 688 993 q 864 613 864 799 q 814 301 864 447 q 656 64 764 156 q 382 -28 547 -28 q 123 70 211 -28 q 35 356 35 168 q 85 666 35 521 q 243 902 135 811 q 517 993 351 993 m 497 799 q 387 717 429 799 q 327 522 344 635 q 310 311 310 410 q 331 201 310 235 q 400 168 353 168 q 512 248 469 168 q 572 439 554 328 q 589 653 589 550 q 567 765 589 731 q 497 799 544 799 m 368 -75 q 463 -109 428 -75 q 497 -199 497 -143 q 450 -314 497 -268 q 335 -360 403 -360 q 240 -326 275 -360 q 206 -236 206 -292 q 252 -121 206 -167 q 368 -75 299 -75 z "},"Ò":{"ha":867,"x_min":35,"x_max":864,"o":"m 517 993 q 776 896 688 993 q 864 613 864 799 q 814 301 864 447 q 656 64 764 156 q 382 -28 547 -28 q 123 70 211 -28 q 35 356 35 168 q 85 666 35 521 q 243 902 135 811 q 517 993 351 993 m 497 799 q 387 717 429 799 q 327 522 344 635 q 310 311 310 410 q 331 201 310 235 q 400 168 353 168 q 512 248 469 168 q 572 439 554 328 q 589 653 589 550 q 567 765 589 731 q 497 799 544 799 m 475 1338 l 742 1153 l 671 1033 l 368 1151 l 475 1338 z "},"Ỏ":{"ha":867,"x_min":35,"x_max":864,"o":"m 517 993 q 776 896 688 993 q 864 613 864 799 q 814 301 864 447 q 656 64 764 156 q 382 -28 547 -28 q 123 70 211 -28 q 35 356 35 168 q 85 666 35 521 q 243 902 135 811 q 517 993 351 993 m 497 799 q 387 717 429 799 q 327 522 344 635 q 310 311 310 410 q 331 201 310 235 q 400 168 353 168 q 512 248 469 168 q 572 439 554 328 q 589 653 589 550 q 567 765 589 731 q 497 799 544 799 m 474 1189 q 546 1205 524 1192 q 568 1246 568 1218 q 559 1270 568 1263 q 528 1278 550 1278 q 451 1260 494 1278 l 428 1363 q 572 1399 492 1399 q 692 1361 650 1399 q 733 1263 733 1324 q 699 1167 733 1204 q 604 1117 664 1129 l 599 1061 l 458 1061 l 474 1189 z "},"Ơ":{"ha":918,"x_min":35,"x_max":1019,"o":"m 1019 990 q 974 836 1019 893 q 846 764 929 779 q 864 613 864 700 q 814 301 864 447 q 656 64 764 156 q 382 -28 547 -28 q 123 70 211 -28 q 35 356 35 168 q 85 666 35 521 q 243 902 135 811 q 517 993 351 993 q 789 881 700 993 q 839 913 824 886 q 854 988 854 939 q 849 1054 854 1028 l 1010 1072 q 1019 990 1019 1036 m 400 168 q 512 248 469 168 q 572 439 554 328 q 589 653 589 550 q 567 765 589 731 q 497 799 544 799 q 387 717 429 799 q 327 522 344 635 q 310 311 310 410 q 331 201 310 235 q 400 168 353 168 z "},"Ớ":{"ha":918,"x_min":35,"x_max":1019,"o":"m 754 1154 l 421 1032 l 363 1156 l 672 1340 l 754 1154 m 1019 990 q 974 836 1019 893 q 846 764 929 779 q 864 613 864 700 q 814 301 864 447 q 656 64 764 156 q 382 -28 547 -28 q 123 70 211 -28 q 35 356 35 168 q 85 666 35 521 q 243 902 135 811 q 517 993 351 993 q 789 881 700 993 q 839 913 824 886 q 854 988 854 939 q 849 1054 854 1028 l 1010 1072 q 1019 990 1019 1036 m 400 168 q 512 248 469 168 q 572 439 554 328 q 589 653 589 550 q 567 765 589 731 q 497 799 544 799 q 387 717 429 799 q 327 522 344 635 q 310 311 310 410 q 331 201 310 235 q 400 168 353 168 z "},"Ợ":{"ha":918,"x_min":35,"x_max":1019,"o":"m 1019 990 q 974 836 1019 893 q 846 764 929 779 q 864 613 864 700 q 814 301 864 447 q 656 64 764 156 q 382 -28 547 -28 q 123 70 211 -28 q 35 356 35 168 q 85 666 35 521 q 243 902 135 811 q 517 993 351 993 q 789 881 700 993 q 839 913 824 886 q 854 988 854 939 q 849 1054 854 1028 l 1010 1072 q 1019 990 1019 1036 m 400 168 q 512 248 469 168 q 572 439 554 328 q 589 653 589 550 q 567 765 589 731 q 497 799 544 799 q 387 717 429 799 q 327 522 344 635 q 310 311 310 410 q 331 201 310 235 q 400 168 353 168 m 368 -75 q 463 -109 428 -75 q 497 -199 497 -143 q 450 -314 497 -268 q 335 -360 403 -360 q 240 -326 275 -360 q 206 -236 206 -292 q 252 -121 206 -167 q 368 -75 299 -75 z "},"Ờ":{"ha":918,"x_min":35,"x_max":1019,"o":"m 742 1153 l 671 1033 l 368 1151 l 475 1338 l 742 1153 m 1019 990 q 974 836 1019 893 q 846 764 929 779 q 864 613 864 700 q 814 301 864 447 q 656 64 764 156 q 382 -28 547 -28 q 123 70 211 -28 q 35 356 35 168 q 85 666 35 521 q 243 902 135 811 q 517 993 351 993 q 789 881 700 993 q 839 913 824 886 q 854 988 854 939 q 849 1054 854 1028 l 1010 1072 q 1019 990 1019 1036 m 400 168 q 512 248 469 168 q 572 439 554 328 q 589 653 589 550 q 567 765 589 731 q 497 799 544 799 q 387 717 429 799 q 327 522 344 635 q 310 311 310 410 q 331 201 310 235 q 400 168 353 168 z "},"Ở":{"ha":918,"x_min":35,"x_max":1019,"o":"m 528 1278 q 451 1260 494 1278 l 428 1363 q 572 1399 492 1399 q 692 1361 650 1399 q 733 1263 733 1324 q 699 1167 733 1204 q 604 1117 664 1129 l 599 1061 l 458 1061 l 474 1189 q 546 1205 524 1192 q 568 1246 568 1218 q 559 1270 568 1263 q 528 1278 550 1278 m 1019 990 q 974 836 1019 893 q 846 764 929 779 q 864 613 864 700 q 814 301 864 447 q 656 64 764 156 q 382 -28 547 -28 q 123 70 211 -28 q 35 356 35 168 q 85 666 35 521 q 243 902 135 811 q 517 993 351 993 q 789 881 700 993 q 839 913 824 886 q 854 988 854 939 q 849 1054 854 1028 l 1010 1072 q 1019 990 1019 1036 m 400 168 q 512 248 469 168 q 572 439 554 328 q 589 653 589 550 q 567 765 589 731 q 497 799 544 799 q 387 717 429 799 q 327 522 344 635 q 310 311 310 410 q 331 201 310 235 q 400 168 353 168 z "},"Ỡ":{"ha":918,"x_min":35,"x_max":1019,"o":"m 465 1103 q 428 1088 444 1103 q 392 1042 413 1074 l 282 1106 q 372 1236 319 1185 q 481 1288 424 1288 q 528 1278 508 1288 q 574 1250 547 1268 q 600 1232 589 1238 q 622 1226 611 1226 q 657 1240 642 1226 q 692 1286 672 1254 l 803 1225 q 713 1094 767 1146 q 603 1043 660 1043 q 561 1052 581 1043 q 518 1078 542 1061 q 488 1097 500 1090 q 465 1103 476 1103 m 1019 990 q 974 836 1019 893 q 846 764 929 779 q 864 613 864 700 q 814 301 864 447 q 656 64 764 156 q 382 -28 547 -28 q 123 70 211 -28 q 35 356 35 168 q 85 666 35 521 q 243 902 135 811 q 517 993 351 993 q 789 881 700 993 q 839 913 824 886 q 854 988 854 939 q 849 1054 854 1028 l 1010 1072 q 1019 990 1019 1036 m 400 168 q 512 248 469 168 q 572 439 554 328 q 589 653 589 550 q 567 765 589 731 q 497 799 544 799 q 387 717 429 799 q 327 522 344 635 q 310 311 310 410 q 331 201 310 235 q 400 168 353 168 z "},"Ő":{"ha":867,"x_min":35,"x_max":876,"o":"m 517 993 q 776 896 688 993 q 864 613 864 799 q 814 301 864 447 q 656 64 764 156 q 382 -28 547 -28 q 123 70 211 -28 q 35 356 35 168 q 85 666 35 521 q 243 902 135 811 q 517 993 351 993 m 497 799 q 387 717 429 799 q 327 522 344 635 q 310 311 310 410 q 331 201 310 235 q 400 168 353 168 q 512 248 469 168 q 572 439 554 328 q 589 653 589 550 q 567 765 589 731 q 497 799 544 799 m 493 1389 l 642 1313 l 447 1043 l 329 1096 l 493 1389 m 729 1389 l 876 1306 l 674 1038 l 558 1099 l 729 1389 z "},"Ƣ":{"ha":1226,"x_min":35,"x_max":1228,"o":"m 974 993 q 1160 935 1093 993 q 1228 771 1228 878 q 1224 719 1228 747 l 1082 -299 l 813 -299 l 957 732 q 958 751 958 739 q 910 806 958 806 q 872 801 889 806 q 836 785 856 796 q 864 613 864 708 q 814 301 864 447 q 656 64 764 156 q 382 -28 547 -28 q 123 70 211 -28 q 35 356 35 168 q 85 666 35 521 q 243 902 135 811 q 517 993 351 993 q 742 921 653 993 q 974 993 840 993 m 400 168 q 512 248 469 168 q 572 439 554 328 q 589 653 589 550 q 567 765 589 731 q 497 799 544 799 q 387 717 429 799 q 327 522 344 635 q 310 311 310 410 q 331 201 310 235 q 400 168 353 168 z "},"Ȏ":{"ha":867,"x_min":35,"x_max":864,"o":"m 517 993 q 776 896 688 993 q 864 613 864 799 q 814 301 864 447 q 656 64 764 156 q 382 -28 547 -28 q 123 70 211 -28 q 35 356 35 168 q 85 666 35 521 q 243 902 135 811 q 517 993 351 993 m 497 799 q 387 717 429 799 q 327 522 344 635 q 310 311 310 410 q 331 201 310 235 q 400 168 353 168 q 512 248 469 168 q 572 439 554 328 q 589 653 589 550 q 567 765 589 731 q 497 799 544 799 m 294 1076 q 387 1266 318 1192 q 564 1340 456 1340 q 718 1274 668 1340 q 768 1104 768 1208 q 767 1074 768 1085 l 629 1054 q 546 1161 622 1161 q 474 1131 504 1161 q 426 1050 443 1101 l 294 1076 z "},"Ō":{"ha":867,"x_min":35,"x_max":864,"o":"m 517 993 q 776 896 688 993 q 864 613 864 799 q 814 301 864 447 q 656 64 764 156 q 382 -28 547 -28 q 123 70 211 -28 q 35 356 35 168 q 85 666 35 521 q 243 902 135 811 q 517 993 351 993 m 497 799 q 387 717 429 799 q 327 522 344 635 q 310 311 310 410 q 331 201 310 235 q 400 168 353 168 q 512 248 469 168 q 572 439 554 328 q 589 653 589 550 q 567 765 589 731 q 497 799 544 799 m 728 1076 l 322 1076 l 349 1257 l 756 1257 l 728 1076 z "},"Ṓ":{"ha":867,"x_min":35,"x_max":864,"o":"m 517 993 q 776 896 688 993 q 864 613 864 799 q 814 301 864 447 q 656 64 764 156 q 382 -28 547 -28 q 123 70 211 -28 q 35 356 35 168 q 85 666 35 521 q 243 902 135 811 q 517 993 351 993 m 497 799 q 387 717 429 799 q 327 522 344 635 q 310 311 310 410 q 331 201 310 235 q 400 168 353 168 q 512 248 469 168 q 572 439 554 328 q 589 653 589 550 q 567 765 589 731 q 497 799 544 799 m 738 1057 l 332 1057 l 358 1238 l 765 1238 l 738 1057 m 683 1571 l 765 1385 l 432 1263 l 374 1386 l 683 1571 z "},"Ṑ":{"ha":867,"x_min":35,"x_max":864,"o":"m 517 993 q 776 896 688 993 q 864 613 864 799 q 814 301 864 447 q 656 64 764 156 q 382 -28 547 -28 q 123 70 211 -28 q 35 356 35 168 q 85 666 35 521 q 243 902 135 811 q 517 993 351 993 m 497 799 q 387 717 429 799 q 327 522 344 635 q 310 311 310 410 q 331 201 310 235 q 400 168 353 168 q 512 248 469 168 q 572 439 554 328 q 589 653 589 550 q 567 765 589 731 q 497 799 544 799 m 731 1057 l 325 1057 l 351 1238 l 758 1238 l 731 1057 m 494 1568 l 761 1383 l 690 1264 l 388 1382 l 494 1568 z "},"Ꞷ":{"ha":1133,"x_min":40,"x_max":1113,"o":"m 299 -26 q 103 48 167 -26 q 40 278 40 122 q 90 624 40 447 q 226 967 139 800 l 471 967 q 352 592 393 750 q 311 275 311 433 q 322 193 311 218 q 357 168 332 168 q 421 263 408 168 l 461 554 l 726 554 l 686 258 q 682 215 682 233 q 690 179 682 190 q 717 168 699 168 q 790 248 761 168 q 831 441 818 328 q 844 656 844 554 q 836 802 844 735 q 813 967 828 869 l 1071 967 q 1113 654 1113 813 q 1025 165 1113 356 q 740 -26 938 -26 q 536 147 557 -26 q 438 15 503 57 q 299 -26 374 -26 z "},"Ǫ":{"ha":867,"x_min":35,"x_max":864,"o":"m 525 -7 q 412 -80 443 -42 q 381 -150 381 -118 q 436 -196 381 -196 q 510 -187 457 -196 l 474 -339 q 381 -350 432 -350 q 251 -308 301 -350 q 200 -193 200 -267 q 292 -19 200 -93 q 100 99 165 4 q 35 356 35 194 q 85 666 35 521 q 243 902 135 811 q 517 993 351 993 q 776 896 688 993 q 864 613 864 799 q 828 347 864 474 q 717 126 793 221 q 525 -7 640 31 m 497 799 q 387 717 429 799 q 327 522 344 635 q 310 311 310 410 q 331 201 310 235 q 400 168 353 168 q 512 248 469 168 q 572 439 554 328 q 589 653 589 550 q 567 765 589 731 q 497 799 544 799 z "},"Ǭ":{"ha":867,"x_min":35,"x_max":864,"o":"m 756 1257 l 728 1076 l 322 1076 l 349 1257 l 756 1257 m 525 -7 q 412 -80 443 -42 q 381 -150 381 -118 q 436 -196 381 -196 q 510 -187 457 -196 l 474 -339 q 381 -350 432 -350 q 251 -308 301 -350 q 200 -193 200 -267 q 292 -19 200 -93 q 100 99 165 4 q 35 356 35 194 q 85 666 35 521 q 243 902 135 811 q 517 993 351 993 q 776 896 688 993 q 864 613 864 799 q 828 347 864 474 q 717 126 793 221 q 525 -7 640 31 m 497 799 q 387 717 429 799 q 327 522 344 635 q 310 311 310 410 q 331 201 310 235 q 400 168 353 168 q 512 248 469 168 q 572 439 554 328 q 589 653 589 550 q 567 765 589 731 q 497 799 544 799 z "},"Ɔ":{"ha":728,"x_min":-42,"x_max":724,"o":"m 379 993 q 632 894 540 993 q 724 604 724 794 q 668 283 724 426 q 503 57 613 140 q 240 -26 393 -26 q 77 11 147 -26 q -42 107 7 49 l 94 253 q 167 199 135 217 q 243 181 200 181 q 360 247 314 181 q 428 414 407 314 q 449 615 449 514 q 422 754 449 713 q 343 796 396 796 q 264 779 301 796 q 185 732 226 763 l 75 883 q 216 965 142 938 q 379 993 290 993 z "},"Ø":{"ha":867,"x_min":35,"x_max":864,"o":"m 740 925 q 833 797 801 876 q 864 613 864 718 q 814 301 864 447 q 656 64 764 156 q 382 -28 547 -28 q 336 -25 367 -28 l 272 -192 l 83 -139 l 156 43 q 65 171 96 92 q 35 356 35 250 q 85 666 35 521 q 243 902 135 811 q 517 993 351 993 q 558 992 544 993 l 625 1156 l 811 1101 l 740 925 m 497 800 q 381 718 425 800 q 317 522 336 636 q 299 308 299 408 q 301 251 299 285 l 508 800 l 497 800 m 400 165 q 518 246 474 165 q 581 439 563 326 q 599 656 599 551 q 596 707 599 679 l 392 165 l 400 165 z "},"Ǿ":{"ha":867,"x_min":35,"x_max":864,"o":"m 740 925 q 833 797 801 876 q 864 613 864 718 q 814 301 864 447 q 656 64 764 156 q 382 -28 547 -28 q 336 -25 367 -28 l 272 -192 l 83 -139 l 156 43 q 65 171 96 92 q 35 356 35 250 q 85 666 35 521 q 243 902 135 811 q 517 993 351 993 q 558 992 544 993 l 625 1156 l 811 1101 l 740 925 m 497 800 q 381 718 425 800 q 317 522 336 636 q 299 308 299 408 q 301 251 299 285 l 508 800 l 497 800 m 400 165 q 518 246 474 165 q 581 439 563 326 q 599 656 599 551 q 596 707 599 679 l 392 165 l 400 165 m 661 1399 l 743 1213 l 410 1090 l 351 1214 l 661 1399 z "},"Õ":{"ha":867,"x_min":35,"x_max":864,"o":"m 517 993 q 776 896 688 993 q 864 613 864 799 q 814 301 864 447 q 656 64 764 156 q 382 -28 547 -28 q 123 70 211 -28 q 35 356 35 168 q 85 666 35 521 q 243 902 135 811 q 517 993 351 993 m 497 799 q 387 717 429 799 q 327 522 344 635 q 310 311 310 410 q 331 201 310 235 q 400 168 353 168 q 512 248 469 168 q 572 439 554 328 q 589 653 589 550 q 567 765 589 731 q 497 799 544 799 m 603 1043 q 561 1052 581 1043 q 518 1078 542 1061 q 488 1097 500 1090 q 465 1103 476 1103 q 428 1088 444 1103 q 392 1042 413 1074 l 282 1106 q 372 1236 319 1185 q 481 1288 424 1288 q 528 1278 508 1288 q 574 1250 547 1268 q 600 1232 589 1238 q 622 1226 611 1226 q 657 1240 642 1226 q 692 1286 672 1254 l 803 1225 q 713 1094 767 1146 q 603 1043 660 1043 z "},"Ṍ":{"ha":867,"x_min":35,"x_max":864,"o":"m 517 993 q 776 896 688 993 q 864 613 864 799 q 814 301 864 447 q 656 64 764 156 q 382 -28 547 -28 q 123 70 211 -28 q 35 356 35 168 q 85 666 35 521 q 243 902 135 811 q 517 993 351 993 m 497 799 q 387 717 429 799 q 327 522 344 635 q 310 311 310 410 q 331 201 310 235 q 400 168 353 168 q 512 248 469 168 q 572 439 554 328 q 589 653 589 550 q 567 765 589 731 q 497 799 544 799 m 593 1049 q 551 1058 571 1049 q 508 1083 532 1067 q 478 1102 490 1096 q 456 1108 467 1108 q 419 1094 435 1108 q 382 1047 403 1079 l 272 1111 q 362 1242 310 1190 q 471 1293 414 1293 q 518 1283 499 1293 q 564 1256 538 1274 q 590 1238 579 1243 q 613 1232 601 1232 q 647 1246 632 1232 q 682 1292 663 1260 l 793 1231 q 703 1100 757 1151 q 593 1049 650 1049 m 665 1615 l 747 1429 l 414 1307 l 356 1431 l 665 1615 z "},"Ȭ":{"ha":867,"x_min":35,"x_max":864,"o":"m 753 1335 l 347 1335 l 374 1515 l 781 1515 l 753 1335 m 597 1049 q 556 1058 575 1049 q 513 1083 536 1067 q 483 1102 494 1096 q 460 1108 471 1108 q 423 1094 439 1108 q 386 1047 407 1079 l 276 1111 q 366 1242 314 1190 q 475 1293 418 1293 q 522 1283 503 1293 q 568 1256 542 1274 q 594 1238 583 1243 q 617 1232 606 1232 q 651 1246 636 1232 q 686 1292 667 1260 l 797 1231 q 708 1100 761 1151 q 597 1049 654 1049 m 517 993 q 776 896 688 993 q 864 613 864 799 q 814 301 864 447 q 656 64 764 156 q 382 -28 547 -28 q 123 70 211 -28 q 35 356 35 168 q 85 666 35 521 q 243 902 135 811 q 517 993 351 993 m 497 799 q 387 717 429 799 q 327 522 344 635 q 310 311 310 410 q 331 201 310 235 q 400 168 353 168 q 512 248 469 168 q 572 439 554 328 q 589 653 589 550 q 567 765 589 731 q 497 799 544 799 z "},"Œ":{"ha":1124,"x_min":35,"x_max":1190,"o":"m 1135 775 l 801 775 q 833 599 833 699 l 833 583 l 1076 583 l 1050 397 l 813 397 q 724 193 786 282 l 1078 193 l 1047 0 l 500 0 q 357 -28 433 -28 q 119 71 203 -28 q 35 354 35 169 q 83 664 35 518 q 236 901 132 810 q 497 993 340 993 q 638 967 583 993 l 1190 967 l 1135 775 m 386 168 q 487 244 447 168 q 544 433 526 321 q 561 657 561 546 q 542 765 561 732 q 483 799 522 799 q 383 720 422 799 q 326 528 343 642 q 308 307 308 415 q 328 201 308 233 q 386 168 347 168 z "},"P":{"ha":758,"x_min":-1,"x_max":788,"o":"m 436 967 q 697 897 606 967 q 788 692 788 826 q 741 497 788 585 q 602 358 694 410 q 376 306 510 306 l 311 306 l 268 0 l -1 0 l 135 967 l 436 967 m 374 499 q 481 552 449 499 q 513 682 513 606 q 489 753 513 731 q 415 775 465 775 l 376 775 l 338 499 l 374 499 z "},"Ṕ":{"ha":758,"x_min":-1,"x_max":788,"o":"m 436 967 q 697 897 606 967 q 788 692 788 826 q 741 497 788 585 q 602 358 694 410 q 376 306 510 306 l 311 306 l 268 0 l -1 0 l 135 967 l 436 967 m 374 499 q 481 552 449 499 q 513 682 513 606 q 489 753 513 731 q 415 775 465 775 l 376 775 l 338 499 l 374 499 m 619 1340 l 701 1154 l 368 1032 l 310 1156 l 619 1340 z "},"Ṗ":{"ha":758,"x_min":-1,"x_max":788,"o":"m 436 967 q 697 897 606 967 q 788 692 788 826 q 741 497 788 585 q 602 358 694 410 q 376 306 510 306 l 311 306 l 268 0 l -1 0 l 135 967 l 436 967 m 374 499 q 481 552 449 499 q 513 682 513 606 q 489 753 513 731 q 415 775 465 775 l 376 775 l 338 499 l 374 499 m 479 1036 q 385 1070 419 1036 q 350 1160 350 1104 q 397 1275 350 1229 q 513 1321 444 1321 q 607 1287 572 1321 q 642 1197 642 1253 q 595 1082 642 1128 q 479 1036 549 1036 z "},"Ƥ":{"ha":993,"x_min":53,"x_max":1021,"o":"m 669 967 q 930 897 839 967 q 1021 692 1021 826 q 974 497 1021 585 q 835 358 928 410 q 610 306 743 306 l 544 306 l 501 0 l 232 0 l 342 775 l 307 775 q 265 756 279 775 q 250 701 250 736 q 258 631 250 681 l 83 567 q 60 636 68 604 q 53 708 53 668 q 128 897 53 828 q 326 967 204 967 l 669 967 m 607 499 q 714 552 682 499 q 746 682 746 606 q 722 753 746 731 q 649 775 699 775 l 610 775 l 571 499 l 607 499 z "},"Þ":{"ha":760,"x_min":0,"x_max":768,"o":"m 417 821 q 678 750 588 821 q 768 539 768 679 q 723 345 768 433 q 585 203 678 257 q 357 150 493 150 l 289 150 l 268 0 l 0 0 l 135 967 l 403 967 l 382 821 l 417 821 m 354 343 q 461 398 429 343 q 493 533 493 453 q 469 607 493 583 q 396 631 446 631 l 356 631 l 315 343 l 354 343 z "},"Q":{"ha":865,"x_min":35,"x_max":864,"o":"m 864 613 q 801 282 864 429 q 603 64 738 135 q 752 37 693 60 q 860 -33 811 14 l 672 -233 q 382 -25 563 -25 q 123 72 211 -25 q 35 356 35 169 q 85 666 35 521 q 243 902 135 811 q 517 993 351 993 q 776 896 688 993 q 864 613 864 799 m 310 308 q 331 201 310 233 q 400 168 353 168 q 512 248 469 168 q 572 440 554 328 q 589 656 589 551 q 567 765 589 731 q 497 799 544 799 q 387 717 429 799 q 327 522 344 635 q 310 308 310 408 z "},"Ɋ":{"ha":856,"x_min":32,"x_max":935,"o":"m 935 -254 q 729 -314 846 -314 q 539 -255 607 -314 q 471 -82 471 -196 q 474 -33 471 -67 l 478 0 l 482 35 q 317 -26 414 -26 q 106 70 181 -26 q 33 335 32 167 q 84 660 32 508 q 232 902 136 811 q 453 993 328 993 q 556 969 514 993 q 628 901 597 946 l 649 967 l 882 967 l 747 0 l 740 -53 q 739 -68 739 -58 q 788 -119 739 -119 q 830 -114 811 -119 q 875 -96 849 -108 l 935 -254 m 401 163 q 507 211 460 163 l 582 749 q 496 799 546 799 q 392 728 435 799 q 329 550 350 658 q 308 328 308 442 q 331 200 308 238 q 401 163 354 163 z "},"R":{"ha":776,"x_min":-1,"x_max":792,"o":"m 792 703 q 749 526 792 599 q 604 397 706 454 l 754 0 l 469 0 l 360 349 l 317 349 l 268 0 l -1 0 l 135 967 l 439 967 q 703 898 614 967 q 792 703 792 829 m 342 533 l 390 533 q 485 579 454 533 q 517 690 517 625 q 492 757 517 736 q 418 778 468 778 l 376 778 l 342 533 z "},"Ŕ":{"ha":776,"x_min":-1,"x_max":792,"o":"m 792 703 q 749 526 792 599 q 604 397 706 454 l 754 0 l 469 0 l 360 349 l 317 349 l 268 0 l -1 0 l 135 967 l 439 967 q 703 898 614 967 q 792 703 792 829 m 342 533 l 390 533 q 485 579 454 533 q 517 690 517 625 q 492 757 517 736 q 418 778 468 778 l 376 778 l 342 533 m 621 1340 l 703 1154 l 369 1032 l 311 1156 l 621 1340 z "},"Ř":{"ha":776,"x_min":-1,"x_max":792,"o":"m 792 703 q 749 526 792 599 q 604 397 706 454 l 754 0 l 469 0 l 360 349 l 317 349 l 268 0 l -1 0 l 135 967 l 439 967 q 703 898 614 967 q 792 703 792 829 m 342 533 l 390 533 q 485 579 454 533 q 517 690 517 625 q 492 757 517 736 q 418 778 468 778 l 376 778 l 342 533 m 672 1332 l 757 1231 l 549 1039 l 396 1039 l 235 1239 l 335 1332 l 489 1211 l 672 1332 z "},"Ŗ":{"ha":776,"x_min":-1,"x_max":792,"o":"m 792 703 q 749 526 792 599 q 604 397 706 454 l 754 0 l 469 0 l 360 349 l 317 349 l 268 0 l -1 0 l 135 967 l 439 967 q 703 898 614 967 q 792 703 792 829 m 342 533 l 390 533 q 485 579 454 533 q 517 690 517 625 q 492 757 517 736 q 418 778 468 778 l 376 778 l 342 533 m 347 -87 q 427 -117 396 -87 q 458 -194 458 -147 q 447 -259 458 -229 q 406 -336 435 -289 l 324 -471 l 203 -471 l 260 -308 q 217 -228 217 -279 q 254 -127 217 -167 q 347 -87 292 -87 z "},"Ȑ":{"ha":776,"x_min":-1,"x_max":792,"o":"m 792 703 q 749 526 792 599 q 604 397 706 454 l 754 0 l 469 0 l 360 349 l 317 349 l 268 0 l -1 0 l 135 967 l 439 967 q 703 898 614 967 q 792 703 792 829 m 342 533 l 390 533 q 485 579 454 533 q 517 690 517 625 q 492 757 517 736 q 418 778 468 778 l 376 778 l 342 533 m 350 1389 l 442 1096 l 306 1038 l 174 1311 l 350 1389 m 588 1389 l 669 1093 l 533 1043 l 411 1318 l 588 1389 z "},"Ṛ":{"ha":776,"x_min":-1,"x_max":792,"o":"m 792 703 q 749 526 792 599 q 604 397 706 454 l 754 0 l 469 0 l 360 349 l 317 349 l 268 0 l -1 0 l 135 967 l 439 967 q 703 898 614 967 q 792 703 792 829 m 342 533 l 390 533 q 485 579 454 533 q 517 690 517 625 q 492 757 517 736 q 418 778 468 778 l 376 778 l 342 533 m 339 -75 q 433 -109 399 -75 q 468 -199 468 -143 q 421 -314 468 -268 q 306 -360 374 -360 q 211 -326 246 -360 q 176 -236 176 -292 q 223 -121 176 -167 q 339 -75 269 -75 z "},"Ȓ":{"ha":776,"x_min":-1,"x_max":792,"o":"m 792 703 q 749 526 792 599 q 604 397 706 454 l 754 0 l 469 0 l 360 349 l 317 349 l 268 0 l -1 0 l 135 967 l 439 967 q 703 898 614 967 q 792 703 792 829 m 342 533 l 390 533 q 485 579 454 533 q 517 690 517 625 q 492 757 517 736 q 418 778 468 778 l 376 778 l 342 533 m 243 1076 q 335 1266 267 1192 q 513 1340 404 1340 q 667 1274 617 1340 q 717 1104 717 1208 q 715 1074 717 1085 l 578 1054 q 494 1161 571 1161 q 422 1131 453 1161 q 375 1050 392 1101 l 243 1076 z "},"Ɍ":{"ha":790,"x_min":4,"x_max":806,"o":"m 806 703 q 763 526 806 599 q 618 397 719 454 l 768 0 l 483 0 l 374 349 l 331 349 l 282 0 l 13 0 l 61 349 l 4 349 l 32 533 l 88 533 l 149 967 l 453 967 q 717 898 628 967 q 806 703 806 829 m 390 778 l 356 533 l 404 533 q 499 579 468 533 q 531 690 531 625 q 506 757 531 736 q 432 778 482 778 l 390 778 z "},"Ɽ":{"ha":776,"x_min":-8,"x_max":792,"o":"m 792 703 q 749 526 792 599 q 604 397 706 454 l 754 0 l 469 0 l 360 349 l 317 349 l 268 0 l 261 -53 q 260 -68 260 -58 q 308 -119 260 -119 q 351 -114 332 -119 q 396 -96 369 -108 l 456 -254 q 250 -314 367 -314 q 60 -255 128 -314 q -8 -82 -8 -196 q -6 -33 -8 -67 l -1 0 l 135 967 l 439 967 q 703 898 614 967 q 792 703 792 829 m 342 533 l 390 533 q 485 579 454 533 q 517 690 517 625 q 492 757 517 736 q 418 778 468 778 l 376 778 l 342 533 z "},"S":{"ha":731,"x_min":-40,"x_max":765,"o":"m 450 993 q 765 861 650 993 l 632 724 q 463 799 557 799 q 382 776 410 799 q 354 717 354 753 q 383 659 354 682 q 497 599 411 636 q 655 490 604 553 q 706 326 706 426 q 659 149 706 229 q 521 20 613 68 q 301 -28 429 -28 q -40 118 88 -28 l 106 263 q 199 196 151 218 q 304 174 246 174 q 394 201 363 174 q 426 275 426 228 q 397 347 426 318 q 289 408 367 375 q 126 517 175 456 q 76 671 76 578 q 122 836 76 763 q 251 951 167 910 q 450 993 335 993 z "},"Ś":{"ha":731,"x_min":-40,"x_max":765,"o":"m 450 993 q 765 861 650 993 l 632 724 q 463 799 557 799 q 382 776 410 799 q 354 717 354 753 q 383 659 354 682 q 497 599 411 636 q 655 490 604 553 q 706 326 706 426 q 659 149 706 229 q 521 20 613 68 q 301 -28 429 -28 q -40 118 88 -28 l 106 263 q 199 196 151 218 q 304 174 246 174 q 394 201 363 174 q 426 275 426 228 q 397 347 426 318 q 289 408 367 375 q 126 517 175 456 q 76 671 76 578 q 122 836 76 763 q 251 951 167 910 q 450 993 335 993 m 617 1340 l 699 1154 l 365 1032 l 307 1156 l 617 1340 z "},"Ꞌ":{"ha":336,"x_min":90,"x_max":369,"o":"m 90 456 l 133 967 l 369 967 l 267 456 l 90 456 z "},"Š":{"ha":731,"x_min":-40,"x_max":765,"o":"m 450 993 q 765 861 650 993 l 632 724 q 463 799 557 799 q 382 776 410 799 q 354 717 354 753 q 383 659 354 682 q 497 599 411 636 q 655 490 604 553 q 706 326 706 426 q 659 149 706 229 q 521 20 613 68 q 301 -28 429 -28 q -40 118 88 -28 l 106 263 q 199 196 151 218 q 304 174 246 174 q 394 201 363 174 q 426 275 426 228 q 397 347 426 318 q 289 408 367 375 q 126 517 175 456 q 76 671 76 578 q 122 836 76 763 q 251 951 167 910 q 450 993 335 993 m 668 1332 l 753 1231 l 544 1039 l 392 1039 l 231 1239 l 331 1332 l 485 1211 l 668 1332 z "},"Ş":{"ha":731,"x_min":-40,"x_max":765,"o":"m 497 599 q 655 490 604 553 q 706 326 706 426 q 668 166 706 240 q 556 42 631 92 q 378 -22 482 -8 l 371 -65 q 460 -105 429 -74 q 492 -190 492 -136 q 469 -276 492 -233 q 395 -349 447 -319 q 260 -378 343 -378 q 174 -365 213 -378 q 107 -331 135 -351 l 178 -221 q 254 -242 215 -242 q 314 -201 313 -242 q 288 -172 314 -181 q 203 -164 263 -164 l 238 -25 q -40 118 68 -6 l 106 263 q 199 196 151 218 q 304 174 246 174 q 394 201 363 174 q 426 275 426 228 q 397 347 426 318 q 289 408 367 375 q 126 517 175 456 q 76 671 76 578 q 122 836 76 763 q 251 951 167 910 q 450 993 335 993 q 765 861 650 993 l 632 724 q 463 799 557 799 q 382 776 410 799 q 354 717 354 753 q 383 659 354 682 q 497 599 411 636 z "},"Ŝ":{"ha":731,"x_min":-40,"x_max":765,"o":"m 450 993 q 765 861 650 993 l 632 724 q 463 799 557 799 q 382 776 410 799 q 354 717 354 753 q 383 659 354 682 q 497 599 411 636 q 655 490 604 553 q 706 326 706 426 q 659 149 706 229 q 521 20 613 68 q 301 -28 429 -28 q -40 118 88 -28 l 106 263 q 199 196 151 218 q 304 174 246 174 q 394 201 363 174 q 426 275 426 228 q 397 347 426 318 q 289 408 367 375 q 126 517 175 456 q 76 671 76 578 q 122 836 76 763 q 251 951 167 910 q 450 993 335 993 m 297 1047 l 213 1150 l 421 1342 l 575 1342 l 735 1142 l 635 1047 l 481 1168 l 297 1047 z "},"Ș":{"ha":731,"x_min":-40,"x_max":765,"o":"m 450 993 q 765 861 650 993 l 632 724 q 463 799 557 799 q 382 776 410 799 q 354 717 354 753 q 383 659 354 682 q 497 599 411 636 q 655 490 604 553 q 706 326 706 426 q 659 149 706 229 q 521 20 613 68 q 301 -28 429 -28 q -40 118 88 -28 l 106 263 q 199 196 151 218 q 304 174 246 174 q 394 201 363 174 q 426 275 426 228 q 397 347 426 318 q 289 408 367 375 q 126 517 175 456 q 76 671 76 578 q 122 836 76 763 q 251 951 167 910 q 450 993 335 993 m 299 -87 q 378 -117 347 -87 q 410 -194 410 -147 q 398 -259 410 -229 q 357 -336 386 -289 l 275 -471 l 154 -471 l 211 -308 q 168 -228 168 -279 q 206 -127 168 -167 q 299 -87 243 -87 z "},"Ṡ":{"ha":731,"x_min":-40,"x_max":765,"o":"m 450 993 q 765 861 650 993 l 632 724 q 463 799 557 799 q 382 776 410 799 q 354 717 354 753 q 383 659 354 682 q 497 599 411 636 q 655 490 604 553 q 706 326 706 426 q 659 149 706 229 q 521 20 613 68 q 301 -28 429 -28 q -40 118 88 -28 l 106 263 q 199 196 151 218 q 304 174 246 174 q 394 201 363 174 q 426 275 426 228 q 397 347 426 318 q 289 408 367 375 q 126 517 175 456 q 76 671 76 578 q 122 836 76 763 q 251 951 167 910 q 450 993 335 993 m 476 1036 q 382 1070 417 1036 q 347 1160 347 1104 q 394 1275 347 1229 q 510 1321 442 1321 q 604 1287 569 1321 q 639 1197 639 1253 q 592 1082 639 1128 q 476 1036 546 1036 z "},"Ṣ":{"ha":731,"x_min":-40,"x_max":765,"o":"m 450 993 q 765 861 650 993 l 632 724 q 463 799 557 799 q 382 776 410 799 q 354 717 354 753 q 383 659 354 682 q 497 599 411 636 q 655 490 604 553 q 706 326 706 426 q 659 149 706 229 q 521 20 613 68 q 301 -28 429 -28 q -40 118 88 -28 l 106 263 q 199 196 151 218 q 304 174 246 174 q 394 201 363 174 q 426 275 426 228 q 397 347 426 318 q 289 408 367 375 q 126 517 175 456 q 76 671 76 578 q 122 836 76 763 q 251 951 167 910 q 450 993 335 993 m 290 -75 q 385 -109 350 -75 q 419 -199 419 -143 q 372 -314 419 -268 q 257 -360 325 -360 q 163 -326 197 -360 q 128 -236 128 -292 q 174 -121 128 -167 q 290 -75 221 -75 z "},"ẞ":{"ha":840,"x_min":0,"x_max":847,"o":"m 465 993 q 664 963 572 993 q 847 881 756 932 l 831 772 l 635 538 q 817 318 817 490 q 771 135 817 214 q 645 15 725 57 q 463 -26 565 -26 q 293 14 360 -26 l 393 185 q 446 175 417 175 q 512 211 489 175 q 535 307 535 247 q 503 392 535 363 q 396 429 472 421 l 415 557 l 596 778 q 463 797 518 797 q 397 773 419 797 q 367 694 374 749 l 269 0 l 0 0 l 94 679 q 208 913 115 832 q 465 993 300 993 z "},"Ə":{"ha":796,"x_min":15,"x_max":793,"o":"m 463 993 q 705 899 617 993 q 793 629 793 806 q 742 290 793 438 q 588 58 690 142 q 336 -26 485 -26 q 97 67 179 -26 q 15 325 15 161 q 54 576 15 451 l 525 574 q 529 646 529 614 q 501 762 529 725 q 417 799 474 799 q 322 778 364 799 q 238 724 279 758 l 139 869 q 290 963 213 933 q 463 993 367 993 m 349 168 q 440 218 404 168 q 497 392 476 268 l 272 392 q 264 299 264 344 q 285 199 264 229 q 349 168 307 168 z "},"T":{"ha":686,"x_min":57,"x_max":778,"o":"m 778 967 l 721 761 l 532 761 l 425 0 l 157 0 l 264 761 l 57 761 l 86 967 l 778 967 z "},"Ŧ":{"ha":686,"x_min":57,"x_max":778,"o":"m 721 761 l 532 761 l 501 543 l 635 543 l 614 400 l 481 400 l 425 0 l 157 0 l 213 400 l 79 400 l 100 543 l 233 543 l 264 761 l 57 761 l 86 967 l 778 967 l 721 761 z "},"Ť":{"ha":686,"x_min":57,"x_max":778,"o":"m 778 967 l 721 761 l 532 761 l 425 0 l 157 0 l 264 761 l 57 761 l 86 967 l 778 967 m 636 1332 l 721 1231 l 513 1039 l 360 1039 l 199 1239 l 299 1332 l 453 1211 l 636 1332 z "},"Ţ":{"ha":686,"x_min":57,"x_max":778,"o":"m 425 0 l 418 -61 q 505 -103 475 -69 q 535 -192 535 -136 q 513 -276 535 -233 q 438 -348 490 -318 q 303 -378 386 -378 q 217 -365 256 -378 q 150 -331 178 -351 l 221 -218 q 297 -242 260 -242 q 357 -200 357 -242 q 331 -172 357 -181 q 246 -164 304 -164 l 288 0 l 157 0 l 264 761 l 57 761 l 86 967 l 778 967 l 721 761 l 532 761 l 425 0 z "},"Ṱ":{"ha":686,"x_min":-12,"x_max":778,"o":"m 778 967 l 721 761 l 532 761 l 425 0 l 157 0 l 264 761 l 57 761 l 86 967 l 778 967 m 69 -392 l -12 -290 l 197 -85 l 351 -85 l 508 -297 l 406 -392 l 256 -258 l 69 -392 z "},"Ț":{"ha":686,"x_min":57,"x_max":778,"o":"m 778 967 l 721 761 l 532 761 l 425 0 l 157 0 l 264 761 l 57 761 l 86 967 l 778 967 m 285 -87 q 365 -117 333 -87 q 396 -194 396 -147 q 384 -259 396 -229 q 343 -336 372 -289 l 261 -471 l 140 -471 l 197 -308 q 154 -228 154 -279 q 192 -127 154 -167 q 285 -87 229 -87 z "},"Ⱦ":{"ha":688,"x_min":60,"x_max":779,"o":"m 724 772 l 631 772 l 476 499 l 407 0 l 196 0 l 136 -106 l 72 -72 l 203 158 l 288 772 l 60 772 l 89 967 l 658 967 l 707 1053 l 769 1019 l 740 967 l 779 967 l 724 772 m 503 690 l 549 772 l 514 772 l 503 690 z "},"Ṫ":{"ha":686,"x_min":57,"x_max":778,"o":"m 778 967 l 721 761 l 532 761 l 425 0 l 157 0 l 264 761 l 57 761 l 86 967 l 778 967 m 444 1036 q 350 1070 385 1036 q 315 1160 315 1104 q 363 1275 315 1229 q 478 1321 410 1321 q 572 1287 538 1321 q 607 1197 607 1253 q 560 1082 607 1128 q 444 1036 514 1036 z "},"Ṭ":{"ha":686,"x_min":57,"x_max":778,"o":"m 778 967 l 721 761 l 532 761 l 425 0 l 157 0 l 264 761 l 57 761 l 86 967 l 778 967 m 276 -75 q 371 -109 336 -75 q 406 -199 406 -143 q 358 -314 406 -268 q 243 -360 311 -360 q 149 -326 183 -360 q 114 -236 114 -292 q 160 -121 114 -167 q 276 -75 207 -75 z "},"Ƭ":{"ha":774,"x_min":53,"x_max":865,"o":"m 810 761 l 621 761 l 514 0 l 244 0 l 351 761 l 304 761 q 250 700 250 761 q 258 631 250 681 l 83 567 q 60 636 68 604 q 53 708 53 668 q 88 846 53 788 q 183 935 122 904 q 319 967 243 967 l 865 967 l 810 761 z "},"Ṯ":{"ha":686,"x_min":57,"x_max":778,"o":"m 778 967 l 721 761 l 532 761 l 425 0 l 157 0 l 264 761 l 57 761 l 86 967 l 778 967 m 88 -97 l 493 -97 l 467 -278 l 60 -278 l 88 -97 z "},"Ƽ":{"ha":697,"x_min":-32,"x_max":704,"o":"m 253 -28 q -32 126 68 -28 l 122 249 q 184 188 150 210 q 264 167 218 167 q 370 228 338 167 q 403 375 403 290 q 384 446 403 425 q 331 467 365 467 q 286 459 308 467 q 233 432 264 451 l 67 433 l 140 967 l 704 967 l 651 782 l 358 782 l 333 611 q 463 643 397 643 q 610 578 554 643 q 667 392 667 513 q 620 181 667 276 q 481 29 574 86 q 253 -28 388 -28 z "},"Ƅ":{"ha":786,"x_min":31,"x_max":776,"o":"m 451 649 q 690 579 604 649 q 776 376 776 510 q 735 194 776 281 q 604 54 693 108 q 379 0 515 0 l 31 0 l 122 660 l 33 738 q 215 967 133 829 l 433 967 l 389 649 l 451 649 m 368 194 q 463 244 433 194 q 493 364 493 294 q 473 438 493 413 q 407 463 453 463 l 364 463 l 326 194 l 368 194 z "},"Ƨ":{"ha":713,"x_min":1,"x_max":754,"o":"m 465 993 q 676 927 597 993 q 754 749 754 861 q 717 593 754 657 q 610 486 679 529 q 433 404 542 443 q 315 340 350 376 q 279 250 279 303 q 361 175 279 175 q 571 263 456 175 l 681 115 q 521 13 614 51 q 313 -26 428 -26 q 84 46 167 -26 q 1 238 1 118 q 77 462 1 379 q 301 594 153 544 q 411 638 374 618 q 464 679 449 657 q 479 735 479 701 q 460 781 479 765 q 406 797 440 797 q 210 721 308 797 l 114 864 q 465 993 267 993 z "},"Ʈ":{"ha":686,"x_min":57,"x_max":778,"o":"m 532 761 l 425 0 l 426 0 l 419 -53 q 418 -68 418 -58 q 467 -119 418 -119 q 509 -114 490 -119 q 554 -96 528 -108 l 614 -254 q 408 -314 525 -314 q 218 -255 286 -314 q 150 -82 150 -196 q 153 -33 150 -67 l 157 0 l 264 761 l 57 761 l 86 967 l 778 967 l 721 761 l 532 761 z "},"U":{"ha":796,"x_min":24,"x_max":842,"o":"m 749 301 q 686 133 736 207 q 551 17 636 60 q 349 -26 465 -26 q 106 49 188 -26 q 24 250 24 124 q 28 308 24 279 l 121 967 l 389 967 l 296 290 q 293 251 293 263 q 311 191 293 211 q 368 171 329 171 q 443 202 417 171 q 478 293 469 233 l 572 967 l 842 967 l 749 301 z "},"Ú":{"ha":796,"x_min":24,"x_max":842,"o":"m 749 301 q 686 133 736 207 q 551 17 636 60 q 349 -26 465 -26 q 106 49 188 -26 q 24 250 24 124 q 28 308 24 279 l 121 967 l 389 967 l 296 290 q 293 251 293 263 q 311 191 293 211 q 368 171 329 171 q 443 202 417 171 q 478 293 469 233 l 572 967 l 842 967 l 749 301 m 639 1340 l 721 1154 l 388 1032 l 329 1156 l 639 1340 z "},"Ʉ":{"ha":849,"x_min":49,"x_max":907,"o":"m 886 689 l 828 689 l 774 301 q 711 133 761 207 q 576 17 661 60 q 374 -26 490 -26 q 131 49 213 -26 q 49 250 49 124 q 53 308 49 279 l 107 689 l 49 689 l 69 832 l 126 832 l 146 967 l 414 967 l 396 832 l 578 832 l 597 967 l 867 967 l 847 832 l 907 832 l 886 689 m 558 689 l 375 689 l 321 290 q 318 251 318 263 q 336 191 318 211 q 393 171 354 171 q 468 202 442 171 q 503 293 494 233 l 558 689 z "},"Ŭ":{"ha":796,"x_min":24,"x_max":842,"o":"m 749 301 q 686 133 736 207 q 551 17 636 60 q 349 -26 465 -26 q 106 49 188 -26 q 24 250 24 124 q 28 308 24 279 l 121 967 l 389 967 l 296 290 q 293 251 293 263 q 311 191 293 211 q 368 171 329 171 q 443 202 417 171 q 478 293 469 233 l 572 967 l 842 967 l 749 301 m 494 1038 q 342 1102 393 1038 q 292 1263 292 1167 q 293 1290 292 1281 l 425 1311 q 449 1243 428 1269 q 508 1217 469 1217 q 621 1314 585 1217 l 756 1288 q 668 1109 735 1181 q 494 1038 601 1038 z "},"Ǔ":{"ha":796,"x_min":24,"x_max":842,"o":"m 749 301 q 686 133 736 207 q 551 17 636 60 q 349 -26 465 -26 q 106 49 188 -26 q 24 250 24 124 q 28 308 24 279 l 121 967 l 389 967 l 296 290 q 293 251 293 263 q 311 191 293 211 q 368 171 329 171 q 443 202 417 171 q 478 293 469 233 l 572 967 l 842 967 l 749 301 m 690 1332 l 775 1231 l 567 1039 l 414 1039 l 253 1239 l 353 1332 l 507 1211 l 690 1332 z "},"Û":{"ha":796,"x_min":24,"x_max":842,"o":"m 749 301 q 686 133 736 207 q 551 17 636 60 q 349 -26 465 -26 q 106 49 188 -26 q 24 250 24 124 q 28 308 24 279 l 121 967 l 389 967 l 296 290 q 293 251 293 263 q 311 191 293 211 q 368 171 329 171 q 443 202 417 171 q 478 293 469 233 l 572 967 l 842 967 l 749 301 m 319 1047 l 235 1150 l 443 1342 l 597 1342 l 757 1142 l 657 1047 l 503 1168 l 319 1047 z "},"Ȕ":{"ha":796,"x_min":24,"x_max":842,"o":"m 749 301 q 686 133 736 207 q 551 17 636 60 q 349 -26 465 -26 q 106 49 188 -26 q 24 250 24 124 q 28 308 24 279 l 121 967 l 389 967 l 296 290 q 293 251 293 263 q 311 191 293 211 q 368 171 329 171 q 443 202 417 171 q 478 293 469 233 l 572 967 l 842 967 l 749 301 m 368 1389 l 460 1096 l 324 1038 l 192 1311 l 368 1389 m 606 1389 l 688 1093 l 551 1043 l 429 1318 l 606 1389 z "},"Ü":{"ha":796,"x_min":24,"x_max":842,"o":"m 749 301 q 686 133 736 207 q 551 17 636 60 q 349 -26 465 -26 q 106 49 188 -26 q 24 250 24 124 q 28 308 24 279 l 121 967 l 389 967 l 296 290 q 293 251 293 263 q 311 191 293 211 q 368 171 329 171 q 443 202 417 171 q 478 293 469 233 l 572 967 l 842 967 l 749 301 m 336 1057 q 255 1087 285 1057 q 225 1165 225 1117 q 266 1265 225 1225 q 365 1306 307 1306 q 448 1276 418 1306 q 478 1197 478 1246 q 437 1097 478 1138 q 336 1057 396 1057 m 646 1057 q 565 1087 594 1057 q 535 1165 535 1117 q 575 1265 535 1225 q 675 1306 615 1306 q 756 1276 726 1306 q 786 1197 786 1246 q 746 1097 786 1138 q 646 1057 706 1057 z "},"Ǘ":{"ha":796,"x_min":24,"x_max":842,"o":"m 749 301 q 686 133 736 207 q 551 17 636 60 q 349 -26 465 -26 q 106 49 188 -26 q 24 250 24 124 q 28 308 24 279 l 121 967 l 389 967 l 296 290 q 293 251 293 263 q 311 191 293 211 q 368 171 329 171 q 443 202 417 171 q 478 293 469 233 l 572 967 l 842 967 l 749 301 m 646 1578 l 767 1446 l 518 1236 l 431 1319 l 646 1578 m 326 1040 q 245 1070 275 1040 q 215 1149 215 1100 q 256 1249 215 1208 q 356 1289 297 1289 q 438 1259 408 1289 q 467 1181 467 1229 q 426 1081 467 1121 q 326 1040 385 1040 m 661 1040 q 580 1070 610 1040 q 550 1149 550 1100 q 591 1249 550 1208 q 690 1289 632 1289 q 772 1259 743 1289 q 801 1181 801 1229 q 760 1081 801 1121 q 661 1040 719 1040 z "},"Ǚ":{"ha":796,"x_min":24,"x_max":842,"o":"m 749 301 q 686 133 736 207 q 551 17 636 60 q 349 -26 465 -26 q 106 49 188 -26 q 24 250 24 124 q 28 308 24 279 l 121 967 l 389 967 l 296 290 q 293 251 293 263 q 311 191 293 211 q 368 171 329 171 q 443 202 417 171 q 478 293 469 233 l 572 967 l 842 967 l 749 301 m 721 1578 l 806 1476 l 597 1285 l 444 1285 l 283 1485 l 383 1578 l 538 1457 l 721 1578 m 324 1040 q 242 1070 272 1040 q 213 1149 213 1100 q 253 1249 213 1208 q 354 1289 294 1289 q 435 1259 406 1289 q 465 1181 465 1229 q 424 1081 465 1121 q 324 1040 383 1040 m 658 1040 q 577 1070 607 1040 q 547 1149 547 1100 q 588 1249 547 1208 q 689 1289 629 1289 q 770 1259 740 1289 q 800 1181 800 1229 q 758 1081 800 1122 q 658 1040 717 1040 z "},"Ǜ":{"ha":796,"x_min":24,"x_max":842,"o":"m 749 301 q 686 133 736 207 q 551 17 636 60 q 349 -26 465 -26 q 106 49 188 -26 q 24 250 24 124 q 28 308 24 279 l 121 967 l 389 967 l 296 290 q 293 251 293 263 q 311 191 293 211 q 368 171 329 171 q 443 202 417 171 q 478 293 469 233 l 572 967 l 842 967 l 749 301 m 472 1575 l 614 1314 l 507 1238 l 318 1457 l 472 1575 m 322 1042 q 241 1072 271 1042 q 211 1150 211 1101 q 252 1250 211 1210 q 351 1290 293 1290 q 433 1260 404 1290 q 463 1182 463 1231 q 422 1082 463 1122 q 322 1042 381 1042 m 657 1042 q 576 1072 606 1042 q 546 1150 546 1101 q 587 1250 546 1210 q 686 1290 628 1290 q 768 1260 739 1290 q 797 1182 797 1231 q 756 1082 797 1122 q 657 1042 715 1042 z "},"Ǖ":{"ha":796,"x_min":24,"x_max":842,"o":"m 749 301 q 686 133 736 207 q 551 17 636 60 q 349 -26 465 -26 q 106 49 188 -26 q 24 250 24 124 q 28 308 24 279 l 121 967 l 389 967 l 296 290 q 293 251 293 263 q 311 191 293 211 q 368 171 329 171 q 443 202 417 171 q 478 293 469 233 l 572 967 l 842 967 l 749 301 m 335 1035 q 253 1065 283 1035 q 224 1143 224 1094 q 265 1243 224 1203 q 364 1283 306 1283 q 447 1253 417 1283 q 476 1175 476 1224 q 435 1075 476 1115 q 335 1035 394 1035 m 644 1035 q 563 1065 593 1035 q 533 1143 533 1094 q 574 1243 533 1203 q 674 1283 614 1283 q 755 1253 725 1283 q 785 1175 785 1224 q 744 1075 785 1115 q 644 1035 704 1035 m 725 1335 l 319 1335 l 346 1515 l 753 1515 l 725 1335 z "},"Ụ":{"ha":796,"x_min":24,"x_max":842,"o":"m 749 301 q 686 133 736 207 q 551 17 636 60 q 349 -26 465 -26 q 106 49 188 -26 q 24 250 24 124 q 28 308 24 279 l 121 967 l 389 967 l 296 290 q 293 251 293 263 q 311 191 293 211 q 368 171 329 171 q 443 202 417 171 q 478 293 469 233 l 572 967 l 842 967 l 749 301 m 331 -75 q 425 -109 390 -75 q 460 -199 460 -143 q 413 -314 460 -268 q 297 -360 365 -360 q 203 -326 238 -360 q 168 -236 168 -292 q 215 -121 168 -167 q 331 -75 261 -75 z "},"Ù":{"ha":796,"x_min":24,"x_max":842,"o":"m 749 301 q 686 133 736 207 q 551 17 636 60 q 349 -26 465 -26 q 106 49 188 -26 q 24 250 24 124 q 28 308 24 279 l 121 967 l 389 967 l 296 290 q 293 251 293 263 q 311 191 293 211 q 368 171 329 171 q 443 202 417 171 q 478 293 469 233 l 572 967 l 842 967 l 749 301 m 442 1338 l 708 1153 l 638 1033 l 335 1151 l 442 1338 z "},"Ủ":{"ha":796,"x_min":24,"x_max":842,"o":"m 749 301 q 686 133 736 207 q 551 17 636 60 q 349 -26 465 -26 q 106 49 188 -26 q 24 250 24 124 q 28 308 24 279 l 121 967 l 389 967 l 296 290 q 293 251 293 263 q 311 191 293 211 q 368 171 329 171 q 443 202 417 171 q 478 293 469 233 l 572 967 l 842 967 l 749 301 m 440 1189 q 513 1205 490 1192 q 535 1246 535 1218 q 526 1270 535 1263 q 494 1278 517 1278 q 418 1260 461 1278 l 394 1363 q 539 1399 458 1399 q 658 1361 617 1399 q 700 1263 700 1324 q 665 1167 700 1204 q 571 1117 631 1129 l 565 1061 l 425 1061 l 440 1189 z "},"Ư":{"ha":943,"x_min":24,"x_max":1047,"o":"m 1047 990 q 985 818 1047 876 q 813 758 924 760 l 749 301 q 686 133 736 207 q 551 17 636 60 q 349 -26 465 -26 q 106 49 188 -26 q 24 250 24 124 q 28 308 24 279 l 121 967 l 389 967 l 296 290 q 293 251 293 263 q 311 191 293 211 q 368 171 329 171 q 443 202 417 171 q 478 293 469 233 l 572 967 l 842 967 l 831 883 q 882 988 882 901 q 876 1054 882 1028 l 1038 1072 q 1047 990 1047 1036 z "},"Ứ":{"ha":943,"x_min":24,"x_max":1047,"o":"m 721 1154 l 388 1032 l 329 1156 l 639 1340 l 721 1154 m 1047 990 q 985 818 1047 876 q 813 758 924 760 l 749 301 q 686 133 736 207 q 551 17 636 60 q 349 -26 465 -26 q 106 49 188 -26 q 24 250 24 124 q 28 308 24 279 l 121 967 l 389 967 l 296 290 q 293 251 293 263 q 311 191 293 211 q 368 171 329 171 q 443 202 417 171 q 478 293 469 233 l 572 967 l 842 967 l 831 883 q 882 988 882 901 q 876 1054 882 1028 l 1038 1072 q 1047 990 1047 1036 z "},"Ự":{"ha":943,"x_min":24,"x_max":1047,"o":"m 1047 990 q 985 818 1047 876 q 813 758 924 760 l 749 301 q 686 133 736 207 q 551 17 636 60 q 349 -26 465 -26 q 106 49 188 -26 q 24 250 24 124 q 28 308 24 279 l 121 967 l 389 967 l 296 290 q 293 251 293 263 q 311 191 293 211 q 368 171 329 171 q 443 202 417 171 q 478 293 469 233 l 572 967 l 842 967 l 831 883 q 882 988 882 901 q 876 1054 882 1028 l 1038 1072 q 1047 990 1047 1036 m 331 -75 q 425 -109 390 -75 q 460 -199 460 -143 q 413 -314 460 -268 q 297 -360 365 -360 q 203 -326 238 -360 q 168 -236 168 -292 q 215 -121 168 -167 q 331 -75 261 -75 z "},"Ừ":{"ha":943,"x_min":24,"x_max":1047,"o":"m 708 1153 l 638 1033 l 335 1151 l 442 1338 l 708 1153 m 1047 990 q 985 818 1047 876 q 813 758 924 760 l 749 301 q 686 133 736 207 q 551 17 636 60 q 349 -26 465 -26 q 106 49 188 -26 q 24 250 24 124 q 28 308 24 279 l 121 967 l 389 967 l 296 290 q 293 251 293 263 q 311 191 293 211 q 368 171 329 171 q 443 202 417 171 q 478 293 469 233 l 572 967 l 842 967 l 831 883 q 882 988 882 901 q 876 1054 882 1028 l 1038 1072 q 1047 990 1047 1036 z "},"Ử":{"ha":943,"x_min":24,"x_max":1047,"o":"m 494 1278 q 418 1260 461 1278 l 394 1363 q 539 1399 458 1399 q 658 1361 617 1399 q 700 1263 700 1324 q 665 1167 700 1204 q 571 1117 631 1129 l 565 1061 l 425 1061 l 440 1189 q 513 1205 490 1192 q 535 1246 535 1218 q 526 1270 535 1263 q 494 1278 517 1278 m 1047 990 q 985 818 1047 876 q 813 758 924 760 l 749 301 q 686 133 736 207 q 551 17 636 60 q 349 -26 465 -26 q 106 49 188 -26 q 24 250 24 124 q 28 308 24 279 l 121 967 l 389 967 l 296 290 q 293 251 293 263 q 311 191 293 211 q 368 171 329 171 q 443 202 417 171 q 478 293 469 233 l 572 967 l 842 967 l 831 883 q 882 988 882 901 q 876 1054 882 1028 l 1038 1072 q 1047 990 1047 1036 z "},"Ữ":{"ha":943,"x_min":24,"x_max":1047,"o":"m 432 1103 q 395 1088 411 1103 q 358 1042 379 1074 l 249 1106 q 338 1236 286 1185 q 447 1288 390 1288 q 494 1278 475 1288 q 540 1250 514 1268 q 567 1232 556 1238 q 589 1226 578 1226 q 624 1240 608 1226 q 658 1286 639 1254 l 769 1225 q 680 1094 733 1146 q 569 1043 626 1043 q 528 1052 547 1043 q 485 1078 508 1061 q 455 1097 467 1090 q 432 1103 443 1103 m 1047 990 q 985 818 1047 876 q 813 758 924 760 l 749 301 q 686 133 736 207 q 551 17 636 60 q 349 -26 465 -26 q 106 49 188 -26 q 24 250 24 124 q 28 308 24 279 l 121 967 l 389 967 l 296 290 q 293 251 293 263 q 311 191 293 211 q 368 171 329 171 q 443 202 417 171 q 478 293 469 233 l 572 967 l 842 967 l 831 883 q 882 988 882 901 q 876 1054 882 1028 l 1038 1072 q 1047 990 1047 1036 z "},"Ű":{"ha":796,"x_min":24,"x_max":843,"o":"m 749 301 q 686 133 736 207 q 551 17 636 60 q 349 -26 465 -26 q 106 49 188 -26 q 24 250 24 124 q 28 308 24 279 l 121 967 l 389 967 l 296 290 q 293 251 293 263 q 311 191 293 211 q 368 171 329 171 q 443 202 417 171 q 478 293 469 233 l 572 967 l 842 967 l 749 301 m 460 1389 l 608 1313 l 414 1043 l 296 1096 l 460 1389 m 696 1389 l 843 1306 l 640 1038 l 525 1099 l 696 1389 z "},"Ȗ":{"ha":796,"x_min":24,"x_max":842,"o":"m 749 301 q 686 133 736 207 q 551 17 636 60 q 349 -26 465 -26 q 106 49 188 -26 q 24 250 24 124 q 28 308 24 279 l 121 967 l 389 967 l 296 290 q 293 251 293 263 q 311 191 293 211 q 368 171 329 171 q 443 202 417 171 q 478 293 469 233 l 572 967 l 842 967 l 749 301 m 261 1076 q 353 1266 285 1192 q 531 1340 422 1340 q 685 1274 635 1340 q 735 1104 735 1208 q 733 1074 735 1085 l 596 1054 q 513 1161 589 1161 q 440 1131 471 1161 q 393 1050 410 1101 l 261 1076 z "},"Ū":{"ha":796,"x_min":24,"x_max":842,"o":"m 749 301 q 686 133 736 207 q 551 17 636 60 q 349 -26 465 -26 q 106 49 188 -26 q 24 250 24 124 q 28 308 24 279 l 121 967 l 389 967 l 296 290 q 293 251 293 263 q 311 191 293 211 q 368 171 329 171 q 443 202 417 171 q 478 293 469 233 l 572 967 l 842 967 l 749 301 m 694 1076 l 289 1076 l 315 1257 l 722 1257 l 694 1076 z "},"Ų":{"ha":796,"x_min":24,"x_max":842,"o":"m 842 967 l 749 301 q 669 110 733 192 q 496 -6 604 28 q 376 -77 410 -39 q 343 -150 343 -115 q 396 -196 343 -196 q 475 -185 431 -196 l 438 -339 q 343 -350 393 -350 q 211 -310 263 -350 q 160 -203 160 -271 q 194 -98 160 -143 q 289 -24 229 -53 q 90 63 157 -10 q 24 250 24 136 q 28 308 24 279 l 121 967 l 389 967 l 296 290 q 293 251 293 263 q 311 191 293 211 q 368 171 329 171 q 443 202 417 171 q 478 293 469 233 l 572 967 l 842 967 z "},"Ʊ":{"ha":863,"x_min":28,"x_max":892,"o":"m 376 -28 q 187 20 265 -28 q 68 151 108 68 q 28 339 28 233 q 260 778 28 639 l 108 778 l 136 967 l 471 967 l 446 789 q 340 590 376 726 q 304 314 304 454 q 326 203 304 238 q 396 168 349 168 q 505 235 463 168 q 566 403 547 303 q 585 607 585 503 q 572 715 585 674 q 531 790 558 757 l 557 967 l 892 967 l 864 775 l 717 775 q 849 501 849 679 q 790 230 849 350 q 624 41 731 110 q 376 -28 517 -28 z "},"Ů":{"ha":796,"x_min":24,"x_max":842,"o":"m 749 301 q 686 133 736 207 q 551 17 636 60 q 349 -26 465 -26 q 106 49 188 -26 q 24 250 24 124 q 28 308 24 279 l 121 967 l 389 967 l 296 290 q 293 251 293 263 q 311 191 293 211 q 368 171 329 171 q 443 202 417 171 q 478 293 469 233 l 572 967 l 842 967 l 749 301 m 539 1400 q 666 1351 621 1400 q 711 1224 711 1303 q 684 1115 711 1165 q 606 1034 657 1064 q 489 1004 556 1004 q 362 1053 407 1004 q 317 1181 317 1101 q 344 1288 317 1238 q 423 1369 372 1339 q 539 1400 474 1400 m 526 1271 q 478 1246 496 1271 q 460 1188 460 1221 q 503 1135 460 1135 q 550 1160 532 1135 q 568 1217 568 1185 q 526 1271 568 1271 z "},"Ũ":{"ha":796,"x_min":24,"x_max":842,"o":"m 749 301 q 686 133 736 207 q 551 17 636 60 q 349 -26 465 -26 q 106 49 188 -26 q 24 250 24 124 q 28 308 24 279 l 121 967 l 389 967 l 296 290 q 293 251 293 263 q 311 191 293 211 q 368 171 329 171 q 443 202 417 171 q 478 293 469 233 l 572 967 l 842 967 l 749 301 m 569 1043 q 528 1052 547 1043 q 485 1078 508 1061 q 455 1097 467 1090 q 432 1103 443 1103 q 395 1088 411 1103 q 358 1042 379 1074 l 249 1106 q 338 1236 286 1185 q 447 1288 390 1288 q 494 1278 475 1288 q 540 1250 514 1268 q 567 1232 556 1238 q 589 1226 578 1226 q 624 1240 608 1226 q 658 1286 639 1254 l 769 1225 q 680 1094 733 1146 q 569 1043 626 1043 z "},"Ṹ":{"ha":796,"x_min":24,"x_max":842,"o":"m 749 301 q 686 133 736 207 q 551 17 636 60 q 349 -26 465 -26 q 106 49 188 -26 q 24 250 24 124 q 28 308 24 279 l 121 967 l 389 967 l 296 290 q 293 251 293 263 q 311 191 293 211 q 368 171 329 171 q 443 202 417 171 q 478 293 469 233 l 572 967 l 842 967 l 749 301 m 560 1049 q 518 1058 538 1049 q 475 1083 499 1067 q 445 1102 457 1096 q 422 1108 433 1108 q 385 1094 401 1108 q 349 1047 369 1079 l 239 1111 q 328 1242 276 1190 q 438 1293 381 1293 q 485 1283 465 1293 q 531 1256 504 1274 q 557 1238 546 1243 q 579 1232 568 1232 q 614 1246 599 1232 q 649 1292 629 1260 l 760 1231 q 670 1100 724 1151 q 560 1049 617 1049 m 632 1615 l 714 1429 l 381 1307 l 322 1431 l 632 1615 z "},"V":{"ha":724,"x_min":54,"x_max":838,"o":"m 838 967 l 494 0 l 143 0 l 54 967 l 331 967 l 347 194 l 561 967 l 838 967 z "},"Ʋ":{"ha":793,"x_min":22,"x_max":814,"o":"m 621 993 q 765 947 717 993 q 814 803 814 900 q 808 733 814 783 l 760 374 q 619 76 733 179 q 325 -26 506 -26 q 102 48 182 -26 q 22 242 22 122 q 25 290 22 274 l 122 967 l 390 967 l 294 276 q 292 244 292 251 q 351 171 292 171 q 437 218 400 171 q 489 369 474 265 l 543 767 q 544 779 544 771 q 521 803 544 803 q 497 800 511 803 l 486 969 q 621 993 550 993 z "},"Ʌ":{"ha":753,"x_min":-82,"x_max":729,"o":"m 619 967 l 729 0 l 456 0 l 433 775 l 203 0 l -82 0 l 299 967 l 619 967 z "},"W":{"ha":1069,"x_min":64,"x_max":1150,"o":"m 1150 967 l 897 0 l 546 0 l 579 707 l 411 0 l 64 0 l 86 967 l 350 967 l 292 200 l 482 967 l 757 967 l 719 200 l 890 967 l 1150 967 z "},"Ẃ":{"ha":1069,"x_min":64,"x_max":1150,"o":"m 1150 967 l 897 0 l 546 0 l 579 707 l 411 0 l 64 0 l 86 967 l 350 967 l 292 200 l 482 967 l 757 967 l 719 200 l 890 967 l 1150 967 m 781 1340 l 863 1154 l 529 1032 l 471 1156 l 781 1340 z "},"Ŵ":{"ha":1069,"x_min":64,"x_max":1150,"o":"m 1150 967 l 897 0 l 546 0 l 579 707 l 411 0 l 64 0 l 86 967 l 350 967 l 292 200 l 482 967 l 757 967 l 719 200 l 890 967 l 1150 967 m 461 1047 l 376 1150 l 585 1342 l 739 1342 l 899 1142 l 799 1047 l 644 1168 l 461 1047 z "},"Ẅ":{"ha":1069,"x_min":64,"x_max":1150,"o":"m 1150 967 l 897 0 l 546 0 l 579 707 l 411 0 l 64 0 l 86 967 l 350 967 l 292 200 l 482 967 l 757 967 l 719 200 l 890 967 l 1150 967 m 478 1057 q 397 1087 426 1057 q 367 1165 367 1117 q 408 1265 367 1225 q 507 1306 449 1306 q 590 1276 560 1306 q 619 1197 619 1246 q 578 1097 619 1138 q 478 1057 538 1057 m 788 1057 q 706 1087 736 1057 q 676 1165 676 1117 q 717 1265 676 1225 q 817 1306 757 1306 q 898 1276 868 1306 q 928 1197 928 1246 q 888 1097 928 1138 q 788 1057 847 1057 z "},"Ẁ":{"ha":1069,"x_min":64,"x_max":1150,"o":"m 1150 967 l 897 0 l 546 0 l 579 707 l 411 0 l 64 0 l 86 967 l 350 967 l 292 200 l 482 967 l 757 967 l 719 200 l 890 967 l 1150 967 m 583 1338 l 850 1153 l 779 1033 l 476 1151 l 583 1338 z "},"Ⱳ":{"ha":1139,"x_min":64,"x_max":1260,"o":"m 411 0 l 579 707 l 546 0 l 894 0 l 1063 744 q 1085 789 1069 775 q 1124 803 1100 803 q 1172 789 1149 803 l 1260 942 q 1093 993 1186 993 q 924 939 988 993 q 833 753 860 885 l 719 200 l 757 967 l 482 967 l 292 200 l 350 967 l 86 967 l 64 0 l 411 0 z "},"Ƿ":{"ha":760,"x_min":-1,"x_max":797,"o":"m 589 993 q 740 931 683 993 q 797 760 797 868 q 747 558 797 640 q 610 422 696 476 q 394 315 525 368 l 307 281 l 268 0 l -1 0 l 135 967 l 403 967 l 396 921 q 589 993 476 993 m 351 481 q 517 729 517 572 q 461 806 517 806 q 375 767 417 806 l 333 471 l 351 481 z "},"X":{"ha":751,"x_min":-68,"x_max":832,"o":"m 832 967 l 551 521 l 714 0 l 429 0 l 368 353 l 222 0 l -68 0 l 229 513 l 82 967 l 367 967 l 410 665 l 544 967 l 832 967 z "},"Y":{"ha":769,"x_min":61,"x_max":875,"o":"m 875 967 l 518 357 l 468 0 l 199 0 l 249 357 l 61 967 l 347 967 l 414 561 l 588 967 l 875 967 z "},"Ý":{"ha":769,"x_min":61,"x_max":875,"o":"m 875 967 l 518 357 l 468 0 l 199 0 l 249 357 l 61 967 l 347 967 l 414 561 l 588 967 l 875 967 m 624 1340 l 706 1154 l 372 1032 l 314 1156 l 624 1340 z "},"Ŷ":{"ha":769,"x_min":61,"x_max":875,"o":"m 875 967 l 518 357 l 468 0 l 199 0 l 249 357 l 61 967 l 347 967 l 414 561 l 588 967 l 875 967 m 304 1047 l 219 1150 l 428 1342 l 582 1342 l 742 1142 l 642 1047 l 488 1168 l 304 1047 z "},"Ÿ":{"ha":769,"x_min":61,"x_max":875,"o":"m 875 967 l 518 357 l 468 0 l 199 0 l 249 357 l 61 967 l 347 967 l 414 561 l 588 967 l 875 967 m 321 1057 q 240 1087 269 1057 q 210 1165 210 1117 q 251 1265 210 1225 q 350 1306 292 1306 q 433 1276 403 1306 q 463 1197 463 1246 q 422 1097 463 1138 q 321 1057 381 1057 m 631 1057 q 549 1087 579 1057 q 519 1165 519 1117 q 560 1265 519 1225 q 660 1306 600 1306 q 741 1276 711 1306 q 771 1197 771 1246 q 731 1097 771 1138 q 631 1057 690 1057 z "},"Ỵ":{"ha":769,"x_min":61,"x_max":875,"o":"m 875 967 l 518 357 l 468 0 l 199 0 l 249 357 l 61 967 l 347 967 l 414 561 l 588 967 l 875 967 m 318 -75 q 413 -109 378 -75 q 447 -199 447 -143 q 400 -314 447 -268 q 285 -360 353 -360 q 190 -326 225 -360 q 156 -236 156 -292 q 202 -121 156 -167 q 318 -75 249 -75 z "},"Ỳ":{"ha":769,"x_min":61,"x_max":875,"o":"m 875 967 l 518 357 l 468 0 l 199 0 l 249 357 l 61 967 l 347 967 l 414 561 l 588 967 l 875 967 m 426 1338 l 693 1153 l 622 1033 l 319 1151 l 426 1338 z "},"Ƴ":{"ha":806,"x_min":61,"x_max":925,"o":"m 249 357 l 61 967 l 347 967 l 413 561 l 500 792 q 601 946 542 899 q 760 993 660 993 q 925 942 854 993 l 839 789 q 789 803 814 803 q 754 792 768 803 q 724 750 740 781 l 518 357 l 468 0 l 199 0 l 249 357 z "},"Ỷ":{"ha":769,"x_min":61,"x_max":875,"o":"m 875 967 l 518 357 l 468 0 l 199 0 l 249 357 l 61 967 l 347 967 l 414 561 l 588 967 l 875 967 m 425 1189 q 497 1205 475 1192 q 519 1246 519 1218 q 510 1270 519 1263 q 479 1278 501 1278 q 403 1260 446 1278 l 379 1363 q 524 1399 443 1399 q 643 1361 601 1399 q 685 1263 685 1324 q 650 1167 685 1204 q 556 1117 615 1129 l 550 1061 l 410 1061 l 425 1189 z "},"Ȳ":{"ha":769,"x_min":61,"x_max":875,"o":"m 875 967 l 518 357 l 468 0 l 199 0 l 249 357 l 61 967 l 347 967 l 414 561 l 588 967 l 875 967 m 679 1076 l 274 1076 l 300 1257 l 707 1257 l 679 1076 z "},"Ʀ":{"ha":776,"x_min":0,"x_max":771,"o":"m 771 554 q 728 375 771 449 q 582 244 685 301 l 733 -154 l 451 -154 l 339 194 l 296 194 l 269 0 l 0 0 l 135 967 l 404 967 l 383 813 l 418 813 q 771 554 771 813 m 322 379 l 369 379 q 466 426 436 379 q 496 538 496 472 q 472 603 496 582 q 397 624 447 624 l 357 624 l 322 379 z "},"Ɏ":{"ha":771,"x_min":28,"x_max":878,"o":"m 878 967 l 817 861 l 860 861 l 840 718 l 732 718 l 521 357 l 471 0 l 201 0 l 251 357 l 140 718 l 28 718 l 47 861 l 96 861 l 64 967 l 322 967 l 344 861 l 568 861 l 617 967 l 878 967 m 415 535 l 501 718 l 376 718 l 415 535 z "},"Ỹ":{"ha":769,"x_min":61,"x_max":875,"o":"m 875 967 l 518 357 l 468 0 l 199 0 l 249 357 l 61 967 l 347 967 l 414 561 l 588 967 l 875 967 m 554 1043 q 513 1052 532 1043 q 469 1078 493 1061 q 440 1097 451 1090 q 417 1103 428 1103 q 380 1088 396 1103 q 343 1042 364 1074 l 233 1106 q 323 1236 271 1185 q 432 1288 375 1288 q 479 1278 460 1288 q 525 1250 499 1268 q 551 1232 540 1238 q 574 1226 563 1226 q 608 1240 593 1226 q 643 1286 624 1254 l 754 1225 q 665 1094 718 1146 q 554 1043 611 1043 z "},"Z":{"ha":688,"x_min":-43,"x_max":742,"o":"m -43 0 l -15 201 l 410 758 l 94 758 l 125 967 l 742 967 l 713 763 l 290 215 l 653 215 l 594 0 l -43 0 z "},"Ź":{"ha":688,"x_min":-43,"x_max":742,"o":"m -43 0 l -15 201 l 410 758 l 94 758 l 125 967 l 742 967 l 713 763 l 290 215 l 653 215 l 594 0 l -43 0 m 583 1340 l 665 1154 l 332 1032 l 274 1156 l 583 1340 z "},"Ž":{"ha":688,"x_min":-43,"x_max":742,"o":"m -43 0 l -15 201 l 410 758 l 94 758 l 125 967 l 742 967 l 713 763 l 290 215 l 653 215 l 594 0 l -43 0 m 635 1332 l 719 1231 l 511 1039 l 358 1039 l 197 1239 l 297 1332 l 451 1211 l 635 1332 z "},"Ż":{"ha":688,"x_min":-43,"x_max":742,"o":"m -43 0 l -15 201 l 410 758 l 94 758 l 125 967 l 742 967 l 713 763 l 290 215 l 653 215 l 594 0 l -43 0 m 443 1036 q 349 1070 383 1036 q 314 1160 314 1104 q 361 1275 314 1229 q 476 1321 408 1321 q 571 1287 536 1321 q 606 1197 606 1253 q 559 1082 606 1128 q 443 1036 513 1036 z "},"Ẓ":{"ha":688,"x_min":-43,"x_max":742,"o":"m -43 0 l -15 201 l 410 758 l 94 758 l 125 967 l 742 967 l 713 763 l 290 215 l 653 215 l 594 0 l -43 0 m 261 -75 q 356 -109 321 -75 q 390 -199 390 -143 q 343 -314 390 -268 q 228 -360 296 -360 q 133 -326 168 -360 q 99 -236 99 -292 q 145 -121 99 -167 q 261 -75 192 -75 z "},"Ȥ":{"ha":671,"x_min":-43,"x_max":742,"o":"m 713 763 l 293 215 l 636 215 l 604 0 l 597 -50 q 492 -247 576 -178 q 282 -315 407 -315 q 89 -251 163 -315 l 192 -101 q 231 -120 214 -114 q 271 -126 249 -126 q 342 -50 332 -126 l 349 0 l -43 0 l -15 201 l 410 758 l 94 758 l 125 967 l 742 967 l 713 763 z "},"Ƶ":{"ha":688,"x_min":-43,"x_max":742,"o":"m 742 967 l 713 763 l 549 560 l 631 560 l 608 399 l 418 399 l 269 215 l 653 215 l 594 0 l -43 0 l -15 201 l 143 399 l 56 399 l 78 560 l 274 560 l 433 758 l 94 758 l 125 967 l 742 967 z "},"ʙ":{"ha":676,"x_min":-4,"x_max":665,"o":"m 493 408 q 644 260 644 389 q 551 66 644 132 q 299 0 457 0 l -4 0 l 97 733 q 389 768 256 768 q 592 720 519 768 q 665 588 665 672 q 622 472 665 518 q 493 408 579 426 m 340 456 q 392 483 374 456 q 411 557 411 510 q 367 607 411 607 q 331 604 353 607 l 310 456 l 340 456 m 304 165 q 367 195 344 165 q 389 278 389 225 q 376 317 389 304 q 333 331 363 331 l 293 331 l 269 165 l 304 165 z "},"ɢ":{"ha":704,"x_min":15,"x_max":706,"o":"m 436 768 q 706 660 604 768 l 569 532 q 507 574 538 560 q 438 588 476 588 q 317 496 354 588 q 281 272 281 404 q 297 184 281 210 q 349 158 314 158 q 411 169 383 158 l 425 278 l 367 278 l 368 442 l 685 442 l 632 69 q 492 1 571 25 q 324 -24 414 -24 q 15 272 15 -24 q 69 534 15 422 q 218 707 122 646 q 436 768 314 768 z "},"ʛ":{"ha":704,"x_min":15,"x_max":946,"o":"m 765 1060 q 946 1007 869 1060 l 858 849 q 786 869 821 869 q 744 852 757 869 q 726 799 731 835 l 706 660 l 582 543 q 510 576 544 565 q 438 588 476 588 q 317 496 354 588 q 281 272 281 404 q 297 184 281 210 q 349 158 314 158 q 411 169 383 158 l 425 278 l 367 278 l 368 442 l 685 442 l 632 69 q 492 1 571 25 q 324 -24 414 -24 q 15 272 15 -24 q 69 533 15 421 q 214 707 122 646 q 415 768 306 768 q 503 756 461 768 l 515 839 q 594 1002 532 944 q 765 1060 656 1060 z "},"ʜ":{"ha":718,"x_min":-4,"x_max":722,"o":"m 361 0 l 400 279 l 293 279 l 254 0 l -4 0 l 99 742 l 357 742 l 319 469 l 426 469 l 464 742 l 722 742 l 619 0 l 361 0 z "},"ɪ":{"ha":419,"x_min":-40,"x_max":460,"o":"m 435 561 l 365 561 l 313 181 l 382 181 l 357 0 l -40 0 l -15 181 l 54 181 l 107 561 l 38 561 l 63 742 l 460 742 l 435 561 z "},"ʟ":{"ha":569,"x_min":-4,"x_max":544,"o":"m 357 742 l 285 199 l 544 199 l 488 0 l -4 0 l 99 742 l 357 742 z "},"ɴ":{"ha":719,"x_min":-4,"x_max":724,"o":"m 621 0 l 322 0 l 250 518 q 251 404 251 482 q 238 169 251 279 l 214 0 l -4 0 l 99 742 l 397 742 l 469 224 l 468 347 q 481 551 468 453 l 507 742 l 724 742 l 621 0 z "},"ɶ":{"ha":958,"x_min":18,"x_max":997,"o":"m 676 565 q 703 461 699 518 l 907 461 l 883 289 l 682 289 q 628 178 663 225 l 910 178 l 886 0 l 449 0 q 310 -28 386 -28 q 96 51 174 -28 q 18 281 18 131 q 60 521 18 410 q 192 700 103 632 q 417 768 282 768 q 550 742 499 768 l 997 742 l 946 565 l 676 565 m 335 163 q 427 270 400 163 q 454 496 454 378 q 441 560 454 540 q 399 579 428 579 q 307 474 335 579 q 279 253 279 369 q 292 183 279 204 q 335 163 306 163 z "},"ʀ":{"ha":683,"x_min":-4,"x_max":647,"o":"m 647 519 q 615 381 647 438 q 519 288 583 325 l 631 0 l 376 0 l 301 242 l 274 242 l 240 0 l -4 0 l 99 742 l 364 742 q 576 688 506 742 q 647 519 647 635 m 296 408 l 322 408 q 381 436 361 408 q 400 510 400 464 q 387 553 400 540 q 347 565 374 565 l 318 565 l 296 408 z "},"ʁ":{"ha":679,"x_min":-4,"x_max":732,"o":"m 542 447 q 615 285 615 396 q 526 72 615 143 q 278 0 436 0 l -4 0 l 99 742 l 343 742 l 308 499 l 340 499 l 478 742 l 732 742 l 542 447 m 288 176 q 368 272 368 176 q 353 316 368 303 q 310 329 339 329 l 285 329 l 264 176 l 288 176 z "},"ʏ":{"ha":661,"x_min":32,"x_max":733,"o":"m 733 742 l 446 264 l 408 0 l 150 0 l 188 263 l 32 742 l 304 742 l 339 440 l 461 742 l 733 742 z "},"a":{"ha":726,"x_min":14,"x_max":728,"o":"m 433 768 q 584 748 508 768 q 728 689 660 728 l 663 233 q 660 196 660 206 q 666 165 660 176 q 689 147 672 154 l 611 -22 q 497 11 547 -17 q 428 89 447 39 q 341 2 389 32 q 228 -28 293 -28 q 69 47 124 -28 q 14 254 14 122 q 56 503 14 386 q 192 694 99 619 q 433 768 286 768 m 414 586 q 311 484 346 586 q 276 250 276 382 q 288 181 276 200 q 321 163 300 163 q 407 238 364 163 l 457 581 q 414 586 436 586 z "},"á":{"ha":726,"x_min":14,"x_max":728,"o":"m 433 768 q 584 748 508 768 q 728 689 660 728 l 663 233 q 660 196 660 206 q 666 165 660 176 q 689 147 672 154 l 611 -22 q 497 11 547 -17 q 428 89 447 39 q 341 2 389 32 q 228 -28 293 -28 q 69 47 124 -28 q 14 254 14 122 q 56 503 14 386 q 192 694 99 619 q 433 768 286 768 m 414 586 q 311 484 346 586 q 276 250 276 382 q 288 181 276 200 q 321 163 300 163 q 407 238 364 163 l 457 581 q 414 586 436 586 m 594 1176 l 676 990 l 344 854 l 282 981 l 594 1176 z "},"ă":{"ha":726,"x_min":14,"x_max":728,"o":"m 433 768 q 584 748 508 768 q 728 689 660 728 l 663 233 q 660 196 660 206 q 666 165 660 176 q 689 147 672 154 l 611 -22 q 497 11 547 -17 q 428 89 447 39 q 341 2 389 32 q 228 -28 293 -28 q 69 47 124 -28 q 14 254 14 122 q 56 503 14 386 q 192 694 99 619 q 433 768 286 768 m 414 586 q 311 484 346 586 q 276 250 276 382 q 288 181 276 200 q 321 163 300 163 q 407 238 364 163 l 457 581 q 414 586 436 586 m 464 871 q 310 938 361 871 q 260 1108 260 1004 q 261 1139 260 1129 l 394 1158 q 419 1079 397 1108 q 479 1050 440 1050 q 549 1080 519 1050 q 594 1161 578 1110 l 722 1135 q 635 946 701 1021 q 464 871 569 871 z "},"ắ":{"ha":726,"x_min":14,"x_max":746,"o":"m 625 1418 l 746 1286 l 497 1076 l 410 1160 l 625 1418 m 469 838 q 317 902 368 838 q 267 1063 267 967 q 268 1090 267 1081 l 400 1111 q 424 1043 403 1069 q 483 1017 444 1017 q 596 1114 560 1017 l 731 1088 q 643 909 710 981 q 469 838 576 838 m 433 768 q 584 748 508 768 q 728 689 660 728 l 663 233 q 660 196 660 206 q 666 165 660 176 q 689 147 672 154 l 611 -22 q 497 11 547 -17 q 428 89 447 39 q 341 2 389 32 q 228 -28 293 -28 q 69 47 124 -28 q 14 254 14 122 q 56 503 14 386 q 192 694 99 619 q 433 768 286 768 m 414 586 q 311 484 346 586 q 276 250 276 382 q 288 181 276 200 q 321 163 300 163 q 407 238 364 163 l 457 581 q 414 586 436 586 z "},"ặ":{"ha":726,"x_min":14,"x_max":728,"o":"m 433 768 q 584 748 508 768 q 728 689 660 728 l 663 233 q 660 196 660 206 q 666 165 660 176 q 689 147 672 154 l 611 -22 q 497 11 547 -17 q 428 89 447 39 q 341 2 389 32 q 228 -28 293 -28 q 69 47 124 -28 q 14 254 14 122 q 56 503 14 386 q 192 694 99 619 q 433 768 286 768 m 414 586 q 311 484 346 586 q 276 250 276 382 q 288 181 276 200 q 321 163 300 163 q 407 238 364 163 l 457 581 q 414 586 436 586 m 464 871 q 310 938 361 871 q 260 1108 260 1004 q 261 1139 260 1129 l 394 1158 q 419 1079 397 1108 q 479 1050 440 1050 q 549 1080 519 1050 q 594 1161 578 1110 l 722 1135 q 635 946 701 1021 q 464 871 569 871 m 326 -75 q 421 -109 386 -75 q 456 -199 456 -143 q 408 -314 456 -268 q 293 -360 361 -360 q 199 -326 233 -360 q 164 -236 164 -292 q 210 -121 164 -167 q 326 -75 257 -75 z "},"ằ":{"ha":726,"x_min":14,"x_max":731,"o":"m 446 1414 l 588 1153 l 481 1076 l 292 1296 l 446 1414 m 469 838 q 317 902 368 838 q 267 1063 267 967 q 268 1090 267 1081 l 400 1111 q 424 1043 403 1069 q 483 1017 444 1017 q 596 1114 560 1017 l 731 1088 q 643 909 710 981 q 469 838 576 838 m 433 768 q 584 748 508 768 q 728 689 660 728 l 663 233 q 660 196 660 206 q 666 165 660 176 q 689 147 672 154 l 611 -22 q 497 11 547 -17 q 428 89 447 39 q 341 2 389 32 q 228 -28 293 -28 q 69 47 124 -28 q 14 254 14 122 q 56 503 14 386 q 192 694 99 619 q 433 768 286 768 m 414 586 q 311 484 346 586 q 276 250 276 382 q 288 181 276 200 q 321 163 300 163 q 407 238 364 163 l 457 581 q 414 586 436 586 z "},"ẳ":{"ha":726,"x_min":14,"x_max":729,"o":"m 433 768 q 584 748 508 768 q 728 689 660 728 l 663 233 q 660 196 660 206 q 666 165 660 176 q 689 147 672 154 l 611 -22 q 497 11 547 -17 q 428 89 447 39 q 341 2 389 32 q 228 -28 293 -28 q 69 47 124 -28 q 14 254 14 122 q 56 503 14 386 q 192 694 99 619 q 433 768 286 768 m 414 586 q 311 484 346 586 q 276 250 276 382 q 288 181 276 200 q 321 163 300 163 q 407 238 364 163 l 457 581 q 414 586 436 586 m 468 838 q 316 902 367 838 q 265 1063 265 967 q 267 1090 265 1081 l 399 1111 q 422 1043 401 1069 q 482 1017 443 1017 q 594 1114 558 1017 l 729 1088 q 642 909 708 981 q 468 838 575 838 m 440 1228 q 513 1244 490 1231 q 535 1285 535 1257 q 526 1309 535 1301 q 494 1317 517 1317 q 418 1299 461 1317 l 394 1401 q 539 1438 458 1438 q 658 1400 617 1438 q 700 1301 700 1363 q 665 1206 700 1243 q 571 1156 631 1168 l 561 1086 l 421 1086 l 440 1228 z "},"ẵ":{"ha":726,"x_min":14,"x_max":776,"o":"m 581 1138 q 540 1146 558 1138 q 497 1169 521 1154 q 476 1182 493 1172 q 446 1192 460 1192 q 409 1178 425 1192 q 374 1136 393 1165 l 265 1193 q 354 1312 303 1265 q 461 1358 406 1358 q 508 1349 489 1358 q 551 1325 528 1340 q 600 1303 581 1303 q 633 1315 618 1303 q 668 1357 649 1328 l 776 1301 q 689 1183 742 1229 q 581 1138 636 1138 m 474 838 q 322 902 372 838 q 271 1063 271 967 q 272 1090 271 1081 l 404 1111 q 428 1043 407 1069 q 488 1017 449 1017 q 600 1114 564 1017 l 735 1088 q 647 909 714 981 q 474 838 581 838 m 433 768 q 584 748 508 768 q 728 689 660 728 l 663 233 q 660 196 660 206 q 666 165 660 176 q 689 147 672 154 l 611 -22 q 497 11 547 -17 q 428 89 447 39 q 341 2 389 32 q 228 -28 293 -28 q 69 47 124 -28 q 14 254 14 122 q 56 503 14 386 q 192 694 99 619 q 433 768 286 768 m 414 586 q 311 484 346 586 q 276 250 276 382 q 288 181 276 200 q 321 163 300 163 q 407 238 364 163 l 457 581 q 414 586 436 586 z "},"ǎ":{"ha":726,"x_min":14,"x_max":747,"o":"m 433 768 q 584 748 508 768 q 728 689 660 728 l 663 233 q 660 196 660 206 q 666 165 660 176 q 689 147 672 154 l 611 -22 q 497 11 547 -17 q 428 89 447 39 q 341 2 389 32 q 228 -28 293 -28 q 69 47 124 -28 q 14 254 14 122 q 56 503 14 386 q 192 694 99 619 q 433 768 286 768 m 414 586 q 311 484 346 586 q 276 250 276 382 q 288 181 276 200 q 321 163 300 163 q 407 238 364 163 l 457 581 q 414 586 436 586 m 665 1146 l 747 1044 l 539 839 l 385 839 l 233 1044 l 328 1146 l 478 1013 l 665 1146 z "},"â":{"ha":726,"x_min":14,"x_max":738,"o":"m 433 768 q 584 748 508 768 q 728 689 660 728 l 663 233 q 660 196 660 206 q 666 165 660 176 q 689 147 672 154 l 611 -22 q 497 11 547 -17 q 428 89 447 39 q 341 2 389 32 q 228 -28 293 -28 q 69 47 124 -28 q 14 254 14 122 q 56 503 14 386 q 192 694 99 619 q 433 768 286 768 m 414 586 q 311 484 346 586 q 276 250 276 382 q 288 181 276 200 q 321 163 300 163 q 407 238 364 163 l 457 581 q 414 586 436 586 m 297 854 l 217 956 l 426 1161 l 581 1161 l 738 949 l 635 854 l 485 988 l 297 854 z "},"ấ":{"ha":726,"x_min":14,"x_max":942,"o":"m 821 1372 l 942 1240 l 693 1031 l 606 1114 l 821 1372 m 286 811 l 201 914 l 410 1106 l 564 1106 l 724 906 l 624 811 l 469 932 l 286 811 m 433 768 q 584 748 508 768 q 728 689 660 728 l 663 233 q 660 196 660 206 q 666 165 660 176 q 689 147 672 154 l 611 -22 q 497 11 547 -17 q 428 89 447 39 q 341 2 389 32 q 228 -28 293 -28 q 69 47 124 -28 q 14 254 14 122 q 56 503 14 386 q 192 694 99 619 q 433 768 286 768 m 414 586 q 311 484 346 586 q 276 250 276 382 q 288 181 276 200 q 321 163 300 163 q 407 238 364 163 l 457 581 q 414 586 436 586 z "},"ậ":{"ha":726,"x_min":14,"x_max":738,"o":"m 433 768 q 584 748 508 768 q 728 689 660 728 l 663 233 q 660 196 660 206 q 666 165 660 176 q 689 147 672 154 l 611 -22 q 497 11 547 -17 q 428 89 447 39 q 341 2 389 32 q 228 -28 293 -28 q 69 47 124 -28 q 14 254 14 122 q 56 503 14 386 q 192 694 99 619 q 433 768 286 768 m 414 586 q 311 484 346 586 q 276 250 276 382 q 288 181 276 200 q 321 163 300 163 q 407 238 364 163 l 457 581 q 414 586 436 586 m 297 854 l 217 956 l 426 1161 l 581 1161 l 738 949 l 635 854 l 485 988 l 297 854 m 326 -75 q 421 -109 386 -75 q 456 -199 456 -143 q 408 -314 456 -268 q 293 -360 361 -360 q 199 -326 233 -360 q 164 -236 164 -292 q 210 -121 164 -167 q 326 -75 257 -75 z "},"ầ":{"ha":726,"x_min":14,"x_max":728,"o":"m 221 1368 l 363 1107 l 256 1031 l 67 1250 l 221 1368 m 288 811 l 203 914 l 411 1106 l 565 1106 l 725 906 l 625 811 l 471 932 l 288 811 m 433 768 q 584 748 508 768 q 728 689 660 728 l 663 233 q 660 196 660 206 q 666 165 660 176 q 689 147 672 154 l 611 -22 q 497 11 547 -17 q 428 89 447 39 q 341 2 389 32 q 228 -28 293 -28 q 69 47 124 -28 q 14 254 14 122 q 56 503 14 386 q 192 694 99 619 q 433 768 286 768 m 414 586 q 311 484 346 586 q 276 250 276 382 q 288 181 276 200 q 321 163 300 163 q 407 238 364 163 l 457 581 q 414 586 436 586 z "},"ẩ":{"ha":726,"x_min":14,"x_max":907,"o":"m 433 768 q 584 748 508 768 q 728 689 660 728 l 663 233 q 660 196 660 206 q 666 165 660 176 q 689 147 672 154 l 611 -22 q 497 11 547 -17 q 428 89 447 39 q 341 2 389 32 q 228 -28 293 -28 q 69 47 124 -28 q 14 254 14 122 q 56 503 14 386 q 192 694 99 619 q 433 768 286 768 m 414 586 q 311 484 346 586 q 276 250 276 382 q 288 181 276 200 q 321 163 300 163 q 407 238 364 163 l 457 581 q 414 586 436 586 m 285 811 l 200 914 l 408 1106 l 563 1106 l 722 906 l 622 811 l 468 932 l 285 811 m 647 1214 q 719 1230 697 1217 q 742 1271 742 1243 q 733 1295 742 1288 q 701 1303 724 1303 q 625 1285 668 1303 l 601 1388 q 746 1424 665 1424 q 865 1386 824 1424 q 907 1288 907 1349 q 872 1192 907 1229 q 778 1142 838 1154 l 768 1072 l 628 1072 l 647 1214 z "},"ẫ":{"ha":726,"x_min":14,"x_max":768,"o":"m 572 1142 q 531 1150 550 1142 q 489 1174 513 1158 q 468 1186 485 1176 q 438 1196 451 1196 q 401 1183 417 1196 q 365 1140 385 1169 l 257 1197 q 346 1316 294 1269 q 453 1363 397 1363 q 500 1353 481 1363 q 543 1329 519 1344 q 592 1307 572 1307 q 625 1319 610 1307 q 660 1361 640 1332 l 768 1306 q 681 1188 733 1233 q 572 1142 628 1142 m 283 810 l 199 913 l 407 1104 l 561 1104 l 721 904 l 621 810 l 467 931 l 283 810 m 433 768 q 584 748 508 768 q 728 689 660 728 l 663 233 q 660 196 660 206 q 666 165 660 176 q 689 147 672 154 l 611 -22 q 497 11 547 -17 q 428 89 447 39 q 341 2 389 32 q 228 -28 293 -28 q 69 47 124 -28 q 14 254 14 122 q 56 503 14 386 q 192 694 99 619 q 433 768 286 768 m 414 586 q 311 484 346 586 q 276 250 276 382 q 288 181 276 200 q 321 163 300 163 q 407 238 364 163 l 457 581 q 414 586 436 586 z "},"ȁ":{"ha":726,"x_min":14,"x_max":728,"o":"m 433 768 q 584 748 508 768 q 728 689 660 728 l 663 233 q 660 196 660 206 q 666 165 660 176 q 689 147 672 154 l 611 -22 q 497 11 547 -17 q 428 89 447 39 q 341 2 389 32 q 228 -28 293 -28 q 69 47 124 -28 q 14 254 14 122 q 56 503 14 386 q 192 694 99 619 q 433 768 286 768 m 414 586 q 311 484 346 586 q 276 250 276 382 q 288 181 276 200 q 321 163 300 163 q 407 238 364 163 l 457 581 q 414 586 436 586 m 346 1214 l 438 921 l 301 863 l 169 1136 l 346 1214 m 583 1214 l 665 918 l 529 868 l 407 1143 l 583 1214 z "},"ä":{"ha":726,"x_min":14,"x_max":764,"o":"m 433 768 q 584 748 508 768 q 728 689 660 728 l 663 233 q 660 196 660 206 q 666 165 660 176 q 689 147 672 154 l 611 -22 q 497 11 547 -17 q 428 89 447 39 q 341 2 389 32 q 228 -28 293 -28 q 69 47 124 -28 q 14 254 14 122 q 56 503 14 386 q 192 694 99 619 q 433 768 286 768 m 414 586 q 311 484 346 586 q 276 250 276 382 q 288 181 276 200 q 321 163 300 163 q 407 238 364 163 l 457 581 q 414 586 436 586 m 314 882 q 233 912 263 882 q 203 990 203 942 q 244 1090 203 1050 q 343 1131 285 1131 q 426 1101 396 1131 q 456 1022 456 1071 q 415 922 456 963 q 314 882 374 882 m 624 882 q 542 912 572 882 q 513 990 513 942 q 553 1090 513 1050 q 653 1131 593 1131 q 734 1101 704 1131 q 764 1022 764 1071 q 724 922 764 963 q 624 882 683 882 z "},"ǟ":{"ha":726,"x_min":14,"x_max":757,"o":"m 433 768 q 584 748 508 768 q 728 689 660 728 l 663 233 q 660 196 660 206 q 666 165 660 176 q 689 147 672 154 l 611 -22 q 497 11 547 -17 q 428 89 447 39 q 341 2 389 32 q 228 -28 293 -28 q 69 47 124 -28 q 14 254 14 122 q 56 503 14 386 q 192 694 99 619 q 433 768 286 768 m 414 586 q 311 484 346 586 q 276 250 276 382 q 288 181 276 200 q 321 163 300 163 q 407 238 364 163 l 457 581 q 414 586 436 586 m 307 821 q 226 851 256 821 q 196 929 196 881 q 237 1029 196 989 q 336 1069 278 1069 q 419 1040 389 1069 q 449 961 449 1010 q 408 861 449 901 q 307 821 367 821 m 617 821 q 535 851 565 821 q 506 929 506 881 q 546 1029 506 989 q 646 1069 586 1069 q 727 1040 697 1069 q 757 961 757 1010 q 717 861 757 901 q 617 821 676 821 m 699 1121 l 293 1121 l 319 1301 l 726 1301 l 699 1121 z "},"ȧ":{"ha":726,"x_min":14,"x_max":728,"o":"m 433 768 q 584 748 508 768 q 728 689 660 728 l 663 233 q 660 196 660 206 q 666 165 660 176 q 689 147 672 154 l 611 -22 q 497 11 547 -17 q 428 89 447 39 q 341 2 389 32 q 228 -28 293 -28 q 69 47 124 -28 q 14 254 14 122 q 56 503 14 386 q 192 694 99 619 q 433 768 286 768 m 414 586 q 311 484 346 586 q 276 250 276 382 q 288 181 276 200 q 321 163 300 163 q 407 238 364 163 l 457 581 q 414 586 436 586 m 468 861 q 374 895 408 861 q 339 985 339 929 q 386 1100 339 1054 q 501 1146 433 1146 q 596 1112 561 1146 q 631 1022 631 1078 q 584 907 631 953 q 468 861 538 861 z "},"ạ":{"ha":726,"x_min":14,"x_max":728,"o":"m 433 768 q 584 748 508 768 q 728 689 660 728 l 663 233 q 660 196 660 206 q 666 165 660 176 q 689 147 672 154 l 611 -22 q 497 11 547 -17 q 428 89 447 39 q 341 2 389 32 q 228 -28 293 -28 q 69 47 124 -28 q 14 254 14 122 q 56 503 14 386 q 192 694 99 619 q 433 768 286 768 m 414 586 q 311 484 346 586 q 276 250 276 382 q 288 181 276 200 q 321 163 300 163 q 407 238 364 163 l 457 581 q 414 586 436 586 m 326 -75 q 421 -109 386 -75 q 456 -199 456 -143 q 408 -314 456 -268 q 293 -360 361 -360 q 199 -326 233 -360 q 164 -236 164 -292 q 210 -121 164 -167 q 326 -75 257 -75 z "},"ǡ":{"ha":726,"x_min":14,"x_max":728,"o":"m 433 768 q 584 748 508 768 q 728 689 660 728 l 663 233 q 660 196 660 206 q 666 165 660 176 q 689 147 672 154 l 611 -22 q 497 11 547 -17 q 428 89 447 39 q 341 2 389 32 q 228 -28 293 -28 q 69 47 124 -28 q 14 254 14 122 q 56 503 14 386 q 192 694 99 619 q 433 768 286 768 m 414 586 q 311 484 346 586 q 276 250 276 382 q 288 181 276 200 q 321 163 300 163 q 407 238 364 163 l 457 581 q 414 586 436 586 m 458 817 q 364 851 399 817 q 329 940 329 885 q 376 1056 329 1010 q 492 1101 424 1101 q 586 1067 551 1101 q 621 978 621 1033 q 574 863 621 908 q 458 817 528 817 m 699 1143 l 293 1143 l 319 1324 l 726 1324 l 699 1143 z "},"à":{"ha":726,"x_min":14,"x_max":728,"o":"m 433 768 q 584 748 508 768 q 728 689 660 728 l 663 233 q 660 196 660 206 q 666 165 660 176 q 689 147 672 154 l 611 -22 q 497 11 547 -17 q 428 89 447 39 q 341 2 389 32 q 228 -28 293 -28 q 69 47 124 -28 q 14 254 14 122 q 56 503 14 386 q 192 694 99 619 q 433 768 286 768 m 414 586 q 311 484 346 586 q 276 250 276 382 q 288 181 276 200 q 321 163 300 163 q 407 238 364 163 l 457 581 q 414 586 436 586 m 418 1175 l 685 976 l 611 858 l 308 990 l 418 1175 z "},"ả":{"ha":726,"x_min":14,"x_max":728,"o":"m 433 768 q 584 748 508 768 q 728 689 660 728 l 663 233 q 660 196 660 206 q 666 165 660 176 q 689 147 672 154 l 611 -22 q 497 11 547 -17 q 428 89 447 39 q 341 2 389 32 q 228 -28 293 -28 q 69 47 124 -28 q 14 254 14 122 q 56 503 14 386 q 192 694 99 619 q 433 768 286 768 m 414 586 q 311 484 346 586 q 276 250 276 382 q 288 181 276 200 q 321 163 300 163 q 407 238 364 163 l 457 581 q 414 586 436 586 m 410 978 q 482 994 460 981 q 504 1035 504 1007 q 495 1059 504 1051 q 464 1067 486 1067 q 388 1049 431 1067 l 364 1151 q 508 1188 428 1188 q 628 1150 586 1188 q 669 1051 669 1113 q 635 956 669 993 q 540 906 600 918 l 531 836 l 390 836 l 410 978 z "},"ȃ":{"ha":726,"x_min":14,"x_max":728,"o":"m 433 768 q 584 748 508 768 q 728 689 660 728 l 663 233 q 660 196 660 206 q 666 165 660 176 q 689 147 672 154 l 611 -22 q 497 11 547 -17 q 428 89 447 39 q 341 2 389 32 q 228 -28 293 -28 q 69 47 124 -28 q 14 254 14 122 q 56 503 14 386 q 192 694 99 619 q 433 768 286 768 m 414 586 q 311 484 346 586 q 276 250 276 382 q 288 181 276 200 q 321 163 300 163 q 407 238 364 163 l 457 581 q 414 586 436 586 m 228 851 q 320 1041 251 967 q 497 1115 389 1115 q 651 1049 601 1115 q 701 879 701 983 q 700 849 701 860 l 563 829 q 479 936 556 936 q 407 906 438 936 q 360 825 376 876 l 228 851 z "},"ɑ":{"ha":728,"x_min":15,"x_max":733,"o":"m 663 233 q 660 199 660 206 q 666 166 660 178 q 689 147 672 154 l 613 -22 q 498 11 547 -17 q 429 89 449 39 q 342 2 390 32 q 229 -28 294 -28 q 69 47 124 -28 q 15 254 15 122 q 56 509 15 392 q 175 697 97 626 q 358 768 253 768 q 456 745 417 767 q 519 676 496 724 l 554 742 l 733 742 l 663 233 m 449 540 q 390 586 428 586 q 307 485 336 586 q 278 251 278 385 q 290 181 278 200 q 322 163 301 163 q 408 238 363 163 l 449 540 z "},"ɒ":{"ha":728,"x_min":-6,"x_max":713,"o":"m 499 769 q 658 694 604 769 q 713 488 713 619 q 672 233 713 350 q 553 44 631 115 q 369 -26 475 -26 q 272 -3 311 -25 q 208 65 232 18 l 174 0 l -6 0 l 65 508 q 68 543 68 536 q 62 576 68 564 q 39 594 56 588 l 115 764 q 230 731 181 758 q 299 653 279 703 q 385 740 338 710 q 499 769 433 769 m 338 156 q 421 256 392 156 q 450 490 450 357 q 438 560 450 542 q 406 579 426 579 q 319 504 365 579 l 279 201 q 338 156 300 156 z "},"ā":{"ha":726,"x_min":14,"x_max":728,"o":"m 433 768 q 584 748 508 768 q 728 689 660 728 l 663 233 q 660 196 660 206 q 666 165 660 176 q 689 147 672 154 l 611 -22 q 497 11 547 -17 q 428 89 447 39 q 341 2 389 32 q 228 -28 293 -28 q 69 47 124 -28 q 14 254 14 122 q 56 503 14 386 q 192 694 99 619 q 433 768 286 768 m 414 586 q 311 484 346 586 q 276 250 276 382 q 288 181 276 200 q 321 163 300 163 q 407 238 364 163 l 457 581 q 414 586 436 586 m 671 901 l 265 901 l 292 1082 l 699 1082 l 671 901 z "},"ą":{"ha":726,"x_min":14,"x_max":728,"o":"m 663 233 q 660 196 660 206 q 666 165 660 176 q 689 147 672 154 l 611 -22 q 485 -97 519 -57 q 450 -172 450 -137 q 506 -218 450 -218 q 579 -210 526 -218 l 543 -361 q 450 -372 501 -372 q 320 -331 371 -372 q 269 -215 269 -289 q 321 -80 269 -139 q 478 24 372 -21 q 428 89 444 49 q 341 2 389 32 q 228 -28 293 -28 q 69 47 124 -28 q 14 254 14 122 q 56 503 14 386 q 192 694 99 619 q 433 768 286 768 q 584 748 508 768 q 728 689 660 728 l 663 233 m 457 581 q 414 586 436 586 q 311 484 346 586 q 276 250 276 382 q 288 181 276 200 q 321 163 300 163 q 407 238 364 163 l 457 581 z "},"å":{"ha":726,"x_min":14,"x_max":728,"o":"m 433 768 q 584 748 508 768 q 728 689 660 728 l 663 233 q 660 196 660 206 q 666 165 660 176 q 689 147 672 154 l 611 -22 q 497 11 547 -17 q 428 89 447 39 q 341 2 389 32 q 228 -28 293 -28 q 69 47 124 -28 q 14 254 14 122 q 56 503 14 386 q 192 694 99 619 q 433 768 286 768 m 414 586 q 311 484 346 586 q 276 250 276 382 q 288 181 276 200 q 321 163 300 163 q 407 238 364 163 l 457 581 q 414 586 436 586 m 511 1224 q 638 1175 593 1224 q 683 1047 683 1126 q 656 938 683 989 q 578 858 629 888 q 461 828 528 828 q 334 876 379 828 q 289 1004 289 925 q 317 1112 289 1061 q 395 1193 344 1163 q 511 1224 446 1224 m 499 1094 q 450 1069 468 1094 q 432 1011 432 1044 q 475 958 432 958 q 522 983 504 958 q 540 1040 540 1008 q 499 1094 540 1094 z "},"ǻ":{"ha":726,"x_min":14,"x_max":728,"o":"m 433 768 q 584 748 508 768 q 728 689 660 728 l 663 233 q 660 196 660 206 q 666 165 660 176 q 689 147 672 154 l 611 -22 q 497 11 547 -17 q 428 89 447 39 q 341 2 389 32 q 228 -28 293 -28 q 69 47 124 -28 q 14 254 14 122 q 56 503 14 386 q 192 694 99 619 q 433 768 286 768 m 414 586 q 311 484 346 586 q 276 250 276 382 q 288 181 276 200 q 321 163 300 163 q 407 238 364 163 l 457 581 q 414 586 436 586 m 507 1193 q 634 1144 589 1193 q 679 1017 679 1096 q 652 908 679 958 q 574 827 625 857 q 457 797 524 797 q 330 846 375 797 q 285 974 285 894 q 313 1081 285 1031 q 391 1163 340 1132 q 507 1193 442 1193 m 494 1064 q 446 1039 464 1064 q 428 981 428 1014 q 471 928 428 928 q 518 953 500 928 q 536 1010 536 978 q 494 1064 536 1064 m 628 1503 l 710 1317 l 376 1194 l 318 1318 l 628 1503 z "},"ⱥ":{"ha":726,"x_min":14,"x_max":728,"o":"m 663 233 q 660 196 660 206 q 666 165 660 176 q 689 147 672 154 l 611 -22 q 497 11 547 -17 q 428 89 447 39 q 350 8 392 38 q 253 -26 308 -21 l 224 -106 l 149 -85 l 172 -21 q 54 69 94 -3 q 14 254 14 142 q 56 503 14 386 q 192 694 99 619 q 433 768 286 768 q 469 767 457 768 l 496 838 l 569 817 l 547 757 q 728 689 639 739 l 663 233 m 264 222 l 406 600 q 298 485 332 592 q 264 243 264 379 l 264 222 m 464 536 l 319 149 q 372 172 346 150 q 419 232 399 193 l 464 536 z "},"ã":{"ha":726,"x_min":14,"x_max":743,"o":"m 433 768 q 584 748 508 768 q 728 689 660 728 l 663 233 q 660 196 660 206 q 666 165 660 176 q 689 147 672 154 l 611 -22 q 497 11 547 -17 q 428 89 447 39 q 341 2 389 32 q 228 -28 293 -28 q 69 47 124 -28 q 14 254 14 122 q 56 503 14 386 q 192 694 99 619 q 433 768 286 768 m 414 586 q 311 484 346 586 q 276 250 276 382 q 288 181 276 200 q 321 163 300 163 q 407 238 364 163 l 457 581 q 414 586 436 586 m 543 868 q 501 877 521 868 q 458 903 482 886 q 428 922 440 915 q 406 928 417 928 q 369 913 385 928 q 332 867 353 899 l 222 931 q 312 1061 260 1010 q 421 1113 364 1113 q 468 1103 449 1113 q 514 1075 488 1093 q 540 1057 529 1063 q 563 1051 551 1051 q 597 1065 582 1051 q 632 1111 613 1079 l 743 1050 q 653 919 707 971 q 543 868 600 868 z "},"ɐ":{"ha":679,"x_min":22,"x_max":685,"o":"m 283 246 q 281 215 281 224 q 297 173 281 185 q 356 161 314 161 q 517 193 431 161 l 565 29 q 432 -12 506 1 q 290 -26 358 -26 q 90 24 157 -26 q 22 181 22 75 q 26 235 22 206 l 64 507 q 67 542 67 535 q 60 574 67 563 q 38 593 53 586 l 114 763 q 288 669 247 751 q 494 768 369 768 q 633 713 582 768 q 685 567 685 658 q 586 352 685 425 q 326 279 488 279 l 288 279 l 283 246 m 390 582 q 322 542 354 582 l 307 418 l 324 418 q 401 447 374 418 q 429 529 429 475 q 390 582 429 582 z "},"æ":{"ha":1069,"x_min":-6,"x_max":1075,"o":"m 375 768 q 490 748 444 768 q 568 688 535 728 q 674 747 613 725 q 807 768 736 768 q 1003 711 932 768 q 1075 564 1075 654 q 952 353 1075 421 q 646 265 829 285 q 670 184 647 207 q 740 161 693 161 q 817 177 779 161 q 906 226 854 193 l 993 78 q 701 -28 861 -28 q 444 85 519 -28 q 333 -1 392 24 q 206 -26 274 -26 q 52 28 110 -26 q -6 174 -6 83 q 77 374 -6 293 q 364 456 160 456 l 414 456 q 436 517 424 488 q 402 563 431 547 q 332 578 374 578 q 154 543 250 578 l 119 713 q 253 753 186 739 q 375 768 321 768 m 776 600 q 702 548 732 600 q 658 415 672 496 q 785 465 747 422 q 822 553 822 508 q 776 600 822 600 m 363 311 q 292 286 318 311 q 267 215 267 261 q 311 158 267 158 q 350 174 331 158 q 394 221 369 189 q 392 275 392 254 l 393 311 l 363 311 z "},"ǽ":{"ha":1069,"x_min":-6,"x_max":1075,"o":"m 375 768 q 490 748 444 768 q 568 688 535 728 q 674 747 613 725 q 807 768 736 768 q 1003 711 932 768 q 1075 564 1075 654 q 952 353 1075 421 q 646 265 829 285 q 670 184 647 207 q 740 161 693 161 q 817 177 779 161 q 906 226 854 193 l 993 78 q 701 -28 861 -28 q 444 85 519 -28 q 333 -1 392 24 q 206 -26 274 -26 q 52 28 110 -26 q -6 174 -6 83 q 77 374 -6 293 q 364 456 160 456 l 414 456 q 436 517 424 488 q 402 563 431 547 q 332 578 374 578 q 154 543 250 578 l 119 713 q 253 753 186 739 q 375 768 321 768 m 776 600 q 702 548 732 600 q 658 415 672 496 q 785 465 747 422 q 822 553 822 508 q 776 600 822 600 m 363 311 q 292 286 318 311 q 267 215 267 261 q 311 158 267 158 q 350 174 331 158 q 394 221 369 189 q 392 275 392 254 l 393 311 l 363 311 m 733 1176 l 815 990 l 483 854 l 421 981 l 733 1176 z "},"ǣ":{"ha":1069,"x_min":-6,"x_max":1075,"o":"m 375 768 q 490 748 444 768 q 568 688 535 728 q 674 747 613 725 q 807 768 736 768 q 1003 711 932 768 q 1075 564 1075 654 q 952 353 1075 421 q 646 265 829 285 q 670 184 647 207 q 740 161 693 161 q 817 177 779 161 q 906 226 854 193 l 993 78 q 701 -28 861 -28 q 444 85 519 -28 q 333 -1 392 24 q 206 -26 274 -26 q 52 28 110 -26 q -6 174 -6 83 q 77 374 -6 293 q 364 456 160 456 l 414 456 q 436 517 424 488 q 402 563 431 547 q 332 578 374 578 q 154 543 250 578 l 119 713 q 253 753 186 739 q 375 768 321 768 m 776 600 q 702 548 732 600 q 658 415 672 496 q 785 465 747 422 q 822 553 822 508 q 776 600 822 600 m 363 311 q 292 286 318 311 q 267 215 267 261 q 311 158 267 158 q 350 174 331 158 q 394 221 369 189 q 392 275 392 254 l 393 311 l 363 311 m 810 901 l 404 901 l 431 1082 l 838 1082 l 810 901 z "},"b":{"ha":742,"x_min":0,"x_max":726,"o":"m 528 768 q 676 700 625 768 q 726 504 726 632 q 628 121 726 269 q 299 -28 529 -28 q 0 39 151 -28 l 139 1033 l 400 1061 l 347 688 q 428 747 381 725 q 528 768 476 768 m 414 579 q 325 514 368 579 l 278 172 q 332 161 303 161 q 430 264 397 161 q 463 488 463 367 q 450 560 463 542 q 414 579 438 579 z "},"ḃ":{"ha":742,"x_min":0,"x_max":726,"o":"m 528 768 q 676 700 625 768 q 726 504 726 632 q 628 121 726 269 q 299 -28 529 -28 q 0 39 151 -28 l 139 1033 l 400 1061 l 347 688 q 428 747 381 725 q 528 768 476 768 m 414 579 q 325 514 368 579 l 278 172 q 332 161 303 161 q 430 264 397 161 q 463 488 463 367 q 450 560 463 542 q 414 579 438 579 m 519 1103 q 425 1137 460 1103 q 390 1226 390 1171 q 438 1342 390 1296 q 553 1388 485 1388 q 647 1353 613 1388 q 682 1264 682 1319 q 635 1149 682 1194 q 519 1103 589 1103 z "},"ḅ":{"ha":742,"x_min":0,"x_max":726,"o":"m 528 768 q 676 700 625 768 q 726 504 726 632 q 628 121 726 269 q 299 -28 529 -28 q 0 39 151 -28 l 139 1033 l 400 1061 l 347 688 q 428 747 381 725 q 528 768 476 768 m 414 579 q 325 514 368 579 l 278 172 q 332 161 303 161 q 430 264 397 161 q 463 488 463 367 q 450 560 463 542 q 414 579 438 579 m 296 -75 q 390 -109 356 -75 q 425 -199 425 -143 q 378 -314 425 -268 q 263 -360 331 -360 q 168 -326 203 -360 q 133 -236 133 -292 q 180 -121 133 -167 q 296 -75 226 -75 z "},"ꞵ":{"ha":758,"x_min":-50,"x_max":733,"o":"m 103 771 q 216 984 122 908 q 451 1060 310 1060 q 602 1028 539 1060 q 698 941 665 996 q 731 819 731 886 q 684 661 731 732 q 528 563 638 590 q 673 506 613 558 q 733 347 733 454 q 699 179 733 265 q 592 33 665 93 q 407 -26 518 -26 q 246 31 307 -26 l 203 -285 l -50 -314 l 103 771 m 347 172 q 443 230 411 172 q 475 357 475 288 q 450 442 475 418 q 381 465 425 465 l 343 465 l 382 639 l 393 639 q 453 689 433 639 q 474 804 474 739 q 426 879 474 879 q 350 771 368 879 l 269 193 q 347 172 301 172 z "},"ɓ":{"ha":742,"x_min":0,"x_max":726,"o":"m 526 768 q 676 700 625 768 q 726 504 726 632 q 628 121 726 269 q 299 -28 529 -28 q 0 39 151 -28 l 97 740 l 107 806 q 204 989 124 918 q 422 1060 285 1060 q 529 1045 476 1060 q 618 1008 582 1031 l 528 846 q 438 869 481 869 q 386 850 404 869 q 363 785 368 831 l 356 740 l 350 686 q 428 746 381 724 q 526 768 476 768 m 332 161 q 430 264 397 161 q 463 488 463 367 q 450 560 463 542 q 414 579 438 579 q 325 514 368 579 l 278 172 q 332 161 303 161 z "},"ʭ":{"ha":486,"x_min":-10,"x_max":501,"o":"m 468 556 l 321 556 l 336 674 l 235 674 l 218 556 l 69 556 l 104 794 l 501 794 l 468 556 m 389 -1 l 242 -1 l 257 117 l 156 117 l 139 -1 l -10 -1 l 25 238 l 422 238 l 389 -1 z "},"ʘ":{"ha":1003,"x_min":38,"x_max":999,"o":"m 588 993 q 807 943 714 993 q 949 801 900 893 q 999 583 999 708 q 930 264 999 403 q 737 49 861 125 q 450 -26 613 -26 q 231 24 324 -26 q 88 168 138 75 q 38 388 38 261 q 108 707 38 569 q 303 919 178 844 q 588 993 428 993 m 569 817 q 360 693 429 817 q 292 372 292 569 q 469 150 292 150 q 675 272 606 150 q 744 589 744 393 q 698 760 744 704 q 569 817 651 817 m 506 358 q 429 386 457 358 q 401 458 401 414 q 440 551 401 514 q 532 589 478 589 q 608 561 581 589 q 636 489 636 533 q 599 396 636 433 q 506 358 561 358 z "},"ʬ":{"ha":590,"x_min":44,"x_max":625,"o":"m 625 929 l 503 556 l 360 556 l 365 825 l 289 556 l 149 556 l 122 929 l 219 929 l 232 638 l 314 929 l 446 929 l 443 636 l 529 929 l 625 929 m 547 374 l 425 0 l 282 0 l 288 269 l 211 0 l 71 0 l 44 374 l 142 374 l 154 82 l 236 374 l 368 374 l 365 81 l 451 374 l 547 374 z "},"ƀ":{"ha":756,"x_min":14,"x_max":740,"o":"m 542 768 q 690 700 639 768 q 740 504 740 632 q 642 121 740 269 q 313 -28 543 -28 q 14 39 165 -28 l 124 822 l 64 822 l 85 965 l 143 965 l 153 1033 l 414 1061 l 400 965 l 560 965 l 518 822 l 381 822 l 361 688 q 442 747 394 725 q 542 768 490 768 m 346 161 q 444 264 411 161 q 476 488 476 367 q 464 560 476 542 q 428 579 451 579 q 339 514 382 579 l 292 172 q 346 161 317 161 z "},"ƃ":{"ha":743,"x_min":0,"x_max":725,"o":"m 528 742 q 674 672 624 742 q 725 469 725 603 q 627 115 725 257 q 299 -28 529 -28 q 0 39 151 -28 l 139 1033 l 664 1033 l 608 847 l 371 847 l 344 660 q 426 719 378 697 q 528 742 475 742 m 332 161 q 406 210 376 161 q 449 328 435 260 q 463 456 463 397 q 450 532 463 513 q 414 551 438 551 q 367 535 392 551 q 321 488 342 519 l 278 172 q 332 161 303 161 z "},"c":{"ha":600,"x_min":18,"x_max":656,"o":"m 422 768 q 656 669 565 768 l 533 526 q 429 571 481 571 q 320 485 353 571 q 288 285 288 399 q 308 199 288 222 q 368 175 329 175 q 419 185 393 175 q 482 218 444 196 l 572 61 q 324 -28 461 -28 q 99 58 181 -28 q 18 290 18 143 q 65 524 18 415 q 202 701 111 633 q 422 768 293 768 z "},"ć":{"ha":600,"x_min":18,"x_max":656,"o":"m 422 768 q 656 669 565 768 l 533 526 q 429 571 481 571 q 320 485 353 571 q 288 285 288 399 q 308 199 288 222 q 368 175 329 175 q 419 185 393 175 q 482 218 444 196 l 572 61 q 324 -28 461 -28 q 99 58 181 -28 q 18 290 18 143 q 65 524 18 415 q 202 701 111 633 q 422 768 293 768 m 563 1176 l 644 990 l 313 854 l 250 981 l 563 1176 z "},"č":{"ha":600,"x_min":18,"x_max":715,"o":"m 422 768 q 656 669 565 768 l 533 526 q 429 571 481 571 q 320 485 353 571 q 288 285 288 399 q 308 199 288 222 q 368 175 329 175 q 419 185 393 175 q 482 218 444 196 l 572 61 q 324 -28 461 -28 q 99 58 181 -28 q 18 290 18 143 q 65 524 18 415 q 202 701 111 633 q 422 768 293 768 m 633 1146 l 715 1044 l 507 839 l 353 839 l 201 1044 l 296 1146 l 446 1013 l 633 1146 z "},"ç":{"ha":600,"x_min":18,"x_max":656,"o":"m 572 61 q 367 -25 475 -15 l 360 -65 q 449 -105 418 -74 q 481 -190 481 -136 q 458 -276 481 -233 q 384 -349 436 -319 q 249 -378 332 -378 q 163 -365 201 -378 q 96 -331 124 -351 l 167 -221 q 243 -242 204 -242 q 303 -201 301 -242 q 277 -172 303 -181 q 192 -164 251 -164 l 229 -17 q 73 90 128 10 q 18 290 18 169 q 65 524 18 415 q 202 701 111 633 q 422 768 293 768 q 656 669 565 768 l 533 526 q 429 571 481 571 q 320 485 353 571 q 288 285 288 399 q 308 199 288 222 q 368 175 329 175 q 419 185 393 175 q 482 218 444 196 l 572 61 z "},"ĉ":{"ha":600,"x_min":18,"x_max":706,"o":"m 422 768 q 656 669 565 768 l 533 526 q 429 571 481 571 q 320 485 353 571 q 288 285 288 399 q 308 199 288 222 q 368 175 329 175 q 419 185 393 175 q 482 218 444 196 l 572 61 q 324 -28 461 -28 q 99 58 181 -28 q 18 290 18 143 q 65 524 18 415 q 202 701 111 633 q 422 768 293 768 m 265 854 l 185 956 l 394 1161 l 549 1161 l 706 949 l 603 854 l 453 988 l 265 854 z "},"ɕ":{"ha":650,"x_min":18,"x_max":657,"o":"m 474 367 q 582 326 540 367 q 624 214 624 286 q 545 36 624 99 q 344 -26 467 -26 q 260 -19 299 -26 l 204 -124 l 100 -76 l 156 22 q 53 128 89 58 q 18 296 18 197 q 65 526 18 418 q 203 701 111 635 q 422 768 294 768 q 657 669 567 768 l 533 526 q 429 571 483 571 q 321 485 354 571 q 288 285 288 399 l 289 247 q 371 338 325 310 q 474 367 417 367 m 401 154 q 442 169 426 154 q 460 211 458 183 q 436 238 460 238 q 357 160 396 238 q 401 154 378 154 z "},"ċ":{"ha":600,"x_min":18,"x_max":656,"o":"m 422 768 q 656 669 565 768 l 533 526 q 429 571 481 571 q 320 485 353 571 q 288 285 288 399 q 308 199 288 222 q 368 175 329 175 q 419 185 393 175 q 482 218 444 196 l 572 61 q 324 -28 461 -28 q 99 58 181 -28 q 18 290 18 143 q 65 524 18 415 q 202 701 111 633 q 422 768 293 768 m 436 861 q 342 895 376 861 q 307 985 307 929 q 354 1100 307 1054 q 469 1146 401 1146 q 564 1112 529 1146 q 599 1022 599 1078 q 552 907 599 953 q 436 861 506 861 z "},"ƈ":{"ha":599,"x_min":18,"x_max":896,"o":"m 715 1060 q 896 1007 819 1060 l 807 849 q 735 869 769 869 q 694 851 707 869 q 674 790 681 832 l 656 669 l 544 538 q 429 571 486 571 q 320 485 353 571 q 288 285 288 399 q 308 199 288 222 q 368 175 329 175 q 419 185 393 175 q 482 218 444 196 l 572 61 q 324 -28 461 -28 q 99 58 181 -28 q 18 290 18 143 q 63 523 18 413 q 192 701 108 633 q 386 768 276 768 q 451 758 422 768 l 464 839 q 542 1002 481 944 q 715 1060 604 1060 z "},"ʗ":{"ha":615,"x_min":-1,"x_max":674,"o":"m 447 768 q 674 669 588 768 l 551 529 q 453 571 501 571 q 347 492 389 571 q 286 295 306 414 q 267 56 267 176 q 286 -77 267 -43 q 346 -111 306 -111 q 398 -101 372 -111 q 457 -69 424 -92 l 547 -225 q 301 -314 436 -314 q 78 -219 157 -314 q -1 56 -1 -124 q 52 418 -1 256 q 208 674 106 581 q 447 768 310 768 z "},"ȼ":{"ha":600,"x_min":18,"x_max":656,"o":"m 368 175 q 419 185 393 175 q 482 218 444 196 l 572 61 q 324 -28 461 -28 q 281 -25 308 -28 l 250 -106 l 175 -85 l 204 -8 q 66 101 114 24 q 18 290 18 178 q 65 524 18 415 q 202 701 111 633 q 422 768 293 768 q 492 761 457 768 l 521 838 l 596 817 l 567 738 q 656 669 613 714 l 533 526 q 497 553 519 539 l 356 175 l 368 175 m 288 285 q 293 231 288 249 l 421 571 q 318 481 349 565 q 288 285 288 396 z "},"d":{"ha":743,"x_min":14,"x_max":789,"o":"m 789 1033 l 644 0 l 415 0 l 417 86 q 331 2 378 32 q 221 -28 285 -28 q 67 45 119 -28 q 14 254 14 118 q 51 499 14 381 q 165 692 89 617 q 346 768 240 768 q 485 708 433 768 l 533 1060 l 789 1033 m 404 581 q 333 528 361 581 q 292 400 306 475 q 279 257 279 325 q 291 182 279 201 q 324 163 303 163 q 421 251 365 163 l 463 549 q 404 581 438 581 z "},"ð":{"ha":736,"x_min":13,"x_max":718,"o":"m 539 932 q 675 751 632 851 q 718 526 718 651 q 670 247 718 372 q 531 47 622 121 q 310 -26 439 -26 q 94 51 176 -26 q 13 267 13 129 q 51 455 13 361 q 160 608 90 549 q 321 668 231 668 q 405 654 369 668 q 471 613 440 640 q 442 713 461 671 q 385 793 422 754 l 315 725 l 175 799 l 249 871 q 153 894 192 888 l 222 1058 q 396 1011 300 1046 l 507 1122 l 619 1017 l 539 932 m 333 161 q 399 197 375 161 q 433 292 422 233 q 457 454 444 350 q 385 489 428 489 q 299 413 326 489 q 271 250 271 336 q 287 181 271 201 q 333 161 303 161 z "},"ȸ":{"ha":1089,"x_min":15,"x_max":1075,"o":"m 892 768 q 1028 697 982 768 q 1075 494 1075 625 q 1036 242 1075 363 q 926 48 997 122 q 760 -26 854 -26 q 678 0 715 -26 q 617 81 640 26 l 593 0 l 392 0 l 392 83 q 218 -26 324 -26 q 67 48 118 -26 q 15 257 15 122 q 55 503 15 386 q 167 694 94 621 q 333 768 239 768 q 406 748 374 768 q 460 688 439 728 l 507 1033 l 769 1060 l 717 681 q 797 744 751 721 q 892 768 842 768 m 325 163 q 396 232 361 163 l 439 538 q 386 579 419 579 q 309 481 338 579 q 281 267 281 383 q 292 185 281 207 q 325 163 304 163 m 706 161 q 781 263 753 161 q 808 479 808 365 q 798 557 808 536 q 768 578 788 578 q 696 525 738 578 l 654 222 q 676 175 664 189 q 706 161 689 161 z "},"ď":{"ha":899,"x_min":14,"x_max":1019,"o":"m 789 1033 l 644 0 l 415 0 l 417 86 q 331 2 378 32 q 221 -28 285 -28 q 67 45 119 -28 q 14 254 14 118 q 51 499 14 381 q 165 692 89 617 q 346 768 240 768 q 485 708 433 768 l 533 1060 l 789 1033 m 404 581 q 333 528 361 581 q 292 400 306 475 q 279 257 279 325 q 291 182 279 201 q 324 163 303 163 q 421 251 365 163 l 463 549 q 404 581 438 581 m 840 1054 l 1019 1032 l 914 711 l 786 722 l 840 1054 z "},"ḓ":{"ha":743,"x_min":14,"x_max":789,"o":"m 789 1033 l 644 0 l 415 0 l 417 86 q 331 2 378 32 q 221 -28 285 -28 q 67 45 119 -28 q 14 254 14 118 q 51 499 14 381 q 165 692 89 617 q 346 768 240 768 q 485 708 433 768 l 533 1060 l 789 1033 m 404 581 q 333 528 361 581 q 292 400 306 475 q 279 257 279 325 q 291 182 279 201 q 324 163 303 163 q 421 251 365 163 l 463 549 q 404 581 438 581 m 115 -392 l 33 -290 l 243 -85 l 397 -85 l 554 -297 l 451 -392 l 301 -258 l 115 -392 z "},"đ":{"ha":757,"x_min":14,"x_max":840,"o":"m 840 964 l 819 821 l 760 821 l 644 0 l 415 0 l 417 86 q 331 2 378 32 q 221 -28 285 -28 q 67 45 119 -28 q 14 254 14 118 q 51 499 14 381 q 165 692 89 617 q 346 768 240 768 q 485 708 433 768 l 500 821 l 364 821 l 368 964 l 519 964 l 533 1060 l 789 1033 l 779 964 l 840 964 m 463 549 q 404 581 438 581 q 333 528 361 581 q 292 400 306 475 q 279 257 279 325 q 291 182 279 201 q 324 163 303 163 q 421 251 365 163 l 463 549 z "},"ȡ":{"ha":1028,"x_min":14,"x_max":1003,"o":"m 860 354 q 963 315 922 354 q 1003 210 1003 276 q 925 34 1003 94 q 725 -26 847 -26 q 671 -24 704 -26 l 618 -124 l 515 -76 l 560 1 q 440 113 475 38 q 221 -28 350 -28 q 67 44 119 -28 q 14 254 14 117 q 51 499 14 382 q 165 692 89 617 q 350 768 240 768 q 485 708 433 768 l 533 1060 l 789 1033 l 679 247 q 678 214 676 224 q 756 323 714 292 q 860 354 797 354 m 463 547 q 436 572 450 564 q 404 581 422 581 q 333 528 361 581 q 292 400 306 475 q 279 257 279 325 q 291 182 279 201 q 325 163 303 163 q 421 254 365 163 l 463 547 m 782 154 q 824 167 808 154 q 840 204 840 181 q 821 226 840 226 q 792 210 806 226 q 761 154 779 194 l 782 154 z "},"ḋ":{"ha":743,"x_min":14,"x_max":789,"o":"m 789 1033 l 644 0 l 415 0 l 417 86 q 331 2 378 32 q 221 -28 285 -28 q 67 45 119 -28 q 14 254 14 118 q 51 499 14 381 q 165 692 89 617 q 346 768 240 768 q 485 708 433 768 l 533 1060 l 789 1033 m 404 581 q 333 528 361 581 q 292 400 306 475 q 279 257 279 325 q 291 182 279 201 q 324 163 303 163 q 421 251 365 163 l 463 549 q 404 581 438 581 m 467 1103 q 372 1137 407 1103 q 338 1226 338 1171 q 385 1342 338 1296 q 500 1388 432 1388 q 594 1353 560 1388 q 629 1264 629 1319 q 583 1149 629 1194 q 467 1103 536 1103 z "},"ḍ":{"ha":743,"x_min":14,"x_max":789,"o":"m 789 1033 l 644 0 l 415 0 l 417 86 q 331 2 378 32 q 221 -28 285 -28 q 67 45 119 -28 q 14 254 14 118 q 51 499 14 381 q 165 692 89 617 q 346 768 240 768 q 485 708 433 768 l 533 1060 l 789 1033 m 404 581 q 333 528 361 581 q 292 400 306 475 q 279 257 279 325 q 291 182 279 201 q 324 163 303 163 q 421 251 365 163 l 463 549 q 404 581 438 581 m 322 -75 q 417 -109 382 -75 q 451 -199 451 -143 q 404 -314 451 -268 q 289 -360 357 -360 q 194 -326 229 -360 q 160 -236 160 -292 q 206 -121 160 -167 q 322 -75 253 -75 z "},"ƍ":{"ha":726,"x_min":0,"x_max":713,"o":"m 261 -314 q 106 -284 171 -314 q 0 -204 40 -254 l 131 -85 q 189 -126 160 -112 q 254 -140 218 -140 q 308 -122 290 -140 q 326 -75 326 -104 q 309 -34 326 -51 q 236 10 292 -17 q 70 133 121 65 q 19 311 19 201 q 60 519 19 414 q 189 697 100 625 q 415 768 278 768 q 574 729 507 768 q 677 624 642 690 q 713 478 713 557 q 658 248 713 346 q 469 93 604 150 q 569 -76 569 22 q 535 -191 569 -136 q 431 -280 500 -246 q 261 -314 361 -314 m 353 164 q 430 303 410 226 q 450 479 450 379 q 392 578 450 578 q 310 499 338 578 q 282 301 282 419 q 297 223 282 253 q 353 164 311 193 z "},"ʤ":{"ha":1321,"x_min":14,"x_max":1313,"o":"m 1288 565 l 1044 294 q 1208 223 1151 281 q 1264 64 1264 165 q 1211 -137 1264 -51 q 1067 -269 1158 -222 q 860 -315 975 -315 q 565 -162 661 -315 l 717 -36 q 788 -98 754 -79 q 864 -117 821 -117 q 964 -72 926 -117 q 1001 58 1001 -26 q 974 133 1001 111 q 893 154 946 154 l 765 154 l 785 299 l 1007 549 l 721 549 l 644 0 l 415 0 l 417 86 q 331 2 378 32 q 221 -28 285 -28 q 67 45 119 -28 q 14 254 14 118 q 51 499 14 381 q 165 692 89 617 q 346 768 240 768 q 485 708 433 768 l 533 1060 l 789 1033 l 749 742 l 1313 742 l 1288 565 m 463 549 q 404 581 438 581 q 333 528 361 581 q 292 400 306 475 q 279 257 279 325 q 291 182 279 201 q 324 163 303 163 q 421 251 365 163 l 463 549 z "},"ɗ":{"ha":743,"x_min":14,"x_max":978,"o":"m 797 1060 q 978 1007 904 1060 l 886 850 q 817 869 851 869 q 776 853 789 869 q 757 799 763 836 l 747 740 l 644 0 l 415 0 l 417 86 q 331 2 378 32 q 221 -28 285 -28 q 67 44 119 -28 q 14 254 14 117 q 51 499 14 382 q 165 692 89 617 q 350 768 240 768 q 485 708 433 768 l 489 740 l 497 797 q 590 985 511 911 q 797 1060 668 1060 m 463 547 q 436 573 450 565 q 404 581 422 581 q 333 528 361 581 q 292 400 306 475 q 279 257 279 325 q 291 182 279 201 q 325 163 303 163 q 421 251 365 163 l 463 547 z "},"ḏ":{"ha":743,"x_min":14,"x_max":789,"o":"m 789 1033 l 644 0 l 415 0 l 417 86 q 331 2 378 32 q 221 -28 285 -28 q 67 45 119 -28 q 14 254 14 118 q 51 499 14 381 q 165 692 89 617 q 346 768 240 768 q 485 708 433 768 l 533 1060 l 789 1033 m 404 581 q 333 528 361 581 q 292 400 306 475 q 279 257 279 325 q 291 182 279 201 q 324 163 303 163 q 421 251 365 163 l 463 549 q 404 581 438 581 m 133 -97 l 539 -97 l 513 -278 l 106 -278 l 133 -97 z "},"ɖ":{"ha":751,"x_min":14,"x_max":836,"o":"m 836 -254 q 626 -314 746 -314 q 444 -255 510 -314 q 379 -83 379 -196 q 382 -33 379 -50 l 386 0 l 396 65 q 325 -1 369 26 q 221 -28 281 -28 q 67 44 119 -28 q 14 254 14 117 q 51 499 14 382 q 165 692 89 617 q 350 768 240 768 q 485 708 433 768 l 533 1060 l 789 1033 l 644 0 l 636 -60 l 635 -74 q 689 -126 635 -126 q 730 -122 713 -126 q 772 -104 747 -117 l 836 -254 m 325 163 q 421 251 365 163 l 463 547 q 436 573 450 565 q 404 581 422 581 q 333 528 361 581 q 292 400 306 475 q 279 257 279 325 q 291 182 279 201 q 325 163 303 163 z "},"ƌ":{"ha":743,"x_min":14,"x_max":789,"o":"m 644 0 l 414 0 l 417 86 q 330 2 376 32 q 219 -28 283 -28 q 67 44 119 -28 q 14 254 14 117 q 51 485 14 374 q 162 669 88 597 q 342 742 236 742 q 481 681 431 742 l 504 847 l 251 847 l 276 1033 l 789 1033 l 644 0 m 458 521 q 432 545 446 538 q 400 553 418 553 q 332 503 360 553 q 291 385 304 454 q 278 257 278 315 q 290 182 278 201 q 324 163 301 163 q 419 251 367 163 l 458 521 z "},"ǳ":{"ha":1329,"x_min":14,"x_max":1361,"o":"m 789 1033 l 644 0 l 415 0 l 417 86 q 331 2 378 32 q 221 -28 285 -28 q 67 45 119 -28 q 14 254 14 118 q 51 499 14 381 q 165 692 89 617 q 346 768 240 768 q 485 708 433 768 l 533 1060 l 789 1033 m 404 581 q 333 528 361 581 q 292 400 306 475 q 279 257 279 325 q 291 182 279 201 q 324 163 303 163 q 421 251 365 163 l 463 549 q 404 581 438 581 m 1361 742 l 1336 558 l 1036 196 l 1297 196 l 1246 0 l 696 0 l 721 185 l 1022 549 l 794 549 l 822 742 l 1361 742 z "},"ʣ":{"ha":1275,"x_min":14,"x_max":1306,"o":"m 1281 558 l 979 196 l 1242 196 l 1192 0 l 415 0 l 417 86 q 331 2 378 32 q 221 -28 285 -28 q 67 45 119 -28 q 14 254 14 118 q 51 499 14 381 q 165 692 89 617 q 346 768 240 768 q 485 708 433 768 l 533 1060 l 789 1033 l 749 742 l 1306 742 l 1281 558 m 463 549 q 404 581 438 581 q 333 528 361 581 q 292 400 306 475 q 279 257 279 325 q 291 182 279 201 q 324 163 303 163 q 421 251 365 163 l 463 549 m 669 179 l 972 549 l 721 549 l 669 179 z "},"ǆ":{"ha":1329,"x_min":14,"x_max":1393,"o":"m 789 1033 l 644 0 l 415 0 l 417 86 q 331 2 378 32 q 221 -28 285 -28 q 67 45 119 -28 q 14 254 14 118 q 51 499 14 381 q 165 692 89 617 q 346 768 240 768 q 485 708 433 768 l 533 1060 l 789 1033 m 404 581 q 333 528 361 581 q 292 400 306 475 q 279 257 279 325 q 291 182 279 201 q 324 163 303 163 q 421 251 365 163 l 463 549 q 404 581 438 581 m 1361 742 l 1336 558 l 1036 196 l 1297 196 l 1246 0 l 696 0 l 721 185 l 1022 549 l 794 549 l 822 742 l 1361 742 m 1311 1146 l 1393 1044 l 1185 839 l 1031 839 l 879 1044 l 974 1146 l 1124 1013 l 1311 1146 z "},"ʥ":{"ha":1447,"x_min":14,"x_max":1444,"o":"m 1285 404 q 1401 363 1357 404 q 1444 247 1444 321 q 1364 61 1444 124 q 1149 0 1283 -1 l 1126 0 q 1100 -143 1117 -37 l 1093 -183 l 960 -181 q 993 0 978 -60 l 415 0 l 417 86 q 331 2 378 32 q 221 -28 285 -28 q 67 45 119 -28 q 14 254 14 118 q 51 499 14 381 q 165 692 89 617 q 346 768 240 768 q 485 708 433 768 l 533 1060 l 789 1033 l 749 742 l 1306 742 l 1282 576 l 961 196 l 1049 196 q 1153 357 1097 310 q 1285 404 1210 404 m 463 549 q 404 581 438 581 q 333 528 361 581 q 292 400 306 475 q 279 257 279 325 q 291 182 279 201 q 324 163 303 163 q 421 251 365 163 l 463 549 m 721 549 l 671 190 l 976 549 l 721 549 m 1221 196 q 1265 208 1249 196 q 1281 244 1281 221 q 1256 274 1281 274 q 1216 254 1235 274 q 1183 196 1197 235 l 1221 196 z "},"e":{"ha":696,"x_min":17,"x_max":701,"o":"m 433 768 q 630 710 558 768 q 701 561 701 653 q 578 353 701 421 q 271 265 454 285 q 367 161 271 161 q 443 177 406 161 q 532 226 481 193 l 619 78 q 328 -28 488 -28 q 97 50 178 -28 q 17 274 17 128 q 61 517 17 404 q 199 699 106 629 q 433 768 293 768 m 285 415 q 412 465 375 422 q 449 554 449 507 q 404 600 449 600 q 330 548 360 600 q 285 415 300 496 z "},"é":{"ha":696,"x_min":17,"x_max":701,"o":"m 433 768 q 630 710 558 768 q 701 561 701 653 q 578 353 701 421 q 271 265 454 285 q 367 161 271 161 q 443 177 406 161 q 532 226 481 193 l 619 78 q 328 -28 488 -28 q 97 50 178 -28 q 17 274 17 128 q 61 517 17 404 q 199 699 106 629 q 433 768 293 768 m 285 415 q 412 465 375 422 q 449 554 449 507 q 404 600 449 600 q 330 548 360 600 q 285 415 300 496 m 564 1176 l 646 990 l 314 854 l 251 981 l 564 1176 z "},"ĕ":{"ha":696,"x_min":17,"x_max":701,"o":"m 433 768 q 630 710 558 768 q 701 561 701 653 q 578 353 701 421 q 271 265 454 285 q 367 161 271 161 q 443 177 406 161 q 532 226 481 193 l 619 78 q 328 -28 488 -28 q 97 50 178 -28 q 17 274 17 128 q 61 517 17 404 q 199 699 106 629 q 433 768 293 768 m 285 415 q 412 465 375 422 q 449 554 449 507 q 404 600 449 600 q 330 548 360 600 q 285 415 300 496 m 433 871 q 280 938 331 871 q 229 1108 229 1004 q 231 1139 229 1129 l 364 1158 q 388 1079 367 1108 q 449 1050 410 1050 q 518 1080 489 1050 q 564 1161 547 1110 l 692 1135 q 605 946 671 1021 q 433 871 539 871 z "},"ě":{"ha":696,"x_min":17,"x_max":717,"o":"m 433 768 q 630 710 558 768 q 701 561 701 653 q 578 353 701 421 q 271 265 454 285 q 367 161 271 161 q 443 177 406 161 q 532 226 481 193 l 619 78 q 328 -28 488 -28 q 97 50 178 -28 q 17 274 17 128 q 61 517 17 404 q 199 699 106 629 q 433 768 293 768 m 285 415 q 412 465 375 422 q 449 554 449 507 q 404 600 449 600 q 330 548 360 600 q 285 415 300 496 m 635 1146 l 717 1044 l 508 839 l 354 839 l 203 1044 l 297 1146 l 447 1013 l 635 1146 z "},"ȩ":{"ha":696,"x_min":17,"x_max":701,"o":"m 433 768 q 630 710 558 768 q 701 561 701 653 q 578 353 701 421 q 271 265 454 285 q 367 161 271 161 q 443 177 406 161 q 532 226 481 193 l 619 78 q 392 -24 517 -4 l 385 -65 q 474 -105 443 -74 q 506 -190 506 -136 q 483 -276 506 -233 q 409 -349 461 -319 q 274 -378 357 -378 q 188 -365 226 -378 q 121 -331 149 -351 l 192 -221 q 268 -242 229 -242 q 328 -201 326 -242 q 302 -172 328 -181 q 217 -164 276 -164 l 253 -22 q 78 72 139 -3 q 17 272 17 147 q 61 517 17 404 q 199 699 106 629 q 433 768 293 768 m 285 415 q 412 465 375 422 q 449 554 449 507 q 404 600 449 600 q 330 548 360 600 q 285 415 300 496 z "},"ê":{"ha":696,"x_min":17,"x_max":707,"o":"m 433 768 q 630 710 558 768 q 701 561 701 653 q 578 353 701 421 q 271 265 454 285 q 367 161 271 161 q 443 177 406 161 q 532 226 481 193 l 619 78 q 328 -28 488 -28 q 97 50 178 -28 q 17 274 17 128 q 61 517 17 404 q 199 699 106 629 q 433 768 293 768 m 285 415 q 412 465 375 422 q 449 554 449 507 q 404 600 449 600 q 330 548 360 600 q 285 415 300 496 m 267 854 l 186 956 l 396 1161 l 550 1161 l 707 949 l 604 854 l 454 988 l 267 854 z "},"ế":{"ha":696,"x_min":17,"x_max":911,"o":"m 911 1240 l 663 1031 l 575 1114 l 790 1372 l 911 1240 m 439 932 l 256 811 l 171 914 l 379 1106 l 533 1106 l 693 906 l 593 811 l 439 932 m 433 768 q 630 710 558 768 q 701 561 701 653 q 578 353 701 421 q 271 265 454 285 q 367 161 271 161 q 443 177 406 161 q 532 226 481 193 l 619 78 q 328 -28 488 -28 q 97 50 178 -28 q 17 274 17 128 q 61 517 17 404 q 199 699 106 629 q 433 768 293 768 m 285 415 q 412 465 375 422 q 449 554 449 507 q 404 600 449 600 q 330 548 360 600 q 285 415 300 496 z "},"ệ":{"ha":696,"x_min":17,"x_max":707,"o":"m 433 768 q 630 710 558 768 q 701 561 701 653 q 578 353 701 421 q 271 265 454 285 q 367 161 271 161 q 443 177 406 161 q 532 226 481 193 l 619 78 q 328 -28 488 -28 q 97 50 178 -28 q 17 274 17 128 q 61 517 17 404 q 199 699 106 629 q 433 768 293 768 m 285 415 q 412 465 375 422 q 449 554 449 507 q 404 600 449 600 q 330 548 360 600 q 285 415 300 496 m 267 854 l 186 956 l 396 1161 l 550 1161 l 707 949 l 604 854 l 454 988 l 267 854 m 307 -75 q 401 -109 367 -75 q 436 -199 436 -143 q 389 -314 436 -268 q 274 -360 342 -360 q 179 -326 214 -360 q 144 -236 144 -292 q 191 -121 144 -167 q 307 -75 238 -75 z "},"ề":{"ha":696,"x_min":17,"x_max":701,"o":"m 332 1107 l 225 1031 l 36 1250 l 190 1368 l 332 1107 m 257 811 l 172 914 l 381 1106 l 535 1106 l 694 906 l 594 811 l 440 932 l 257 811 m 433 768 q 630 710 558 768 q 701 561 701 653 q 578 353 701 421 q 271 265 454 285 q 367 161 271 161 q 443 177 406 161 q 532 226 481 193 l 619 78 q 328 -28 488 -28 q 97 50 178 -28 q 17 274 17 128 q 61 517 17 404 q 199 699 106 629 q 433 768 293 768 m 285 415 q 412 465 375 422 q 449 554 449 507 q 404 600 449 600 q 330 548 360 600 q 285 415 300 496 z "},"ể":{"ha":696,"x_min":17,"x_max":876,"o":"m 433 768 q 630 710 558 768 q 701 561 701 653 q 578 353 701 421 q 271 265 454 285 q 367 161 271 161 q 443 177 406 161 q 532 226 481 193 l 619 78 q 328 -28 488 -28 q 97 50 178 -28 q 17 274 17 128 q 61 517 17 404 q 199 699 106 629 q 433 768 293 768 m 285 415 q 412 465 375 422 q 449 554 449 507 q 404 600 449 600 q 330 548 360 600 q 285 415 300 496 m 254 811 l 169 914 l 378 1106 l 532 1106 l 692 906 l 592 811 l 438 932 l 254 811 m 617 1214 q 689 1230 667 1217 q 711 1271 711 1243 q 702 1295 711 1288 q 671 1303 693 1303 q 594 1285 638 1303 l 571 1388 q 715 1424 635 1424 q 835 1386 793 1424 q 876 1288 876 1349 q 842 1192 876 1229 q 747 1142 807 1154 l 738 1072 l 597 1072 l 617 1214 z "},"ễ":{"ha":696,"x_min":17,"x_max":738,"o":"m 407 1196 q 370 1183 386 1196 q 335 1140 354 1169 l 226 1197 q 315 1316 264 1269 q 422 1363 367 1363 q 469 1353 450 1363 q 513 1329 489 1344 q 561 1307 542 1307 q 594 1319 579 1307 q 629 1361 610 1332 l 738 1306 q 650 1188 703 1233 q 542 1142 597 1142 q 501 1150 519 1142 q 458 1174 482 1158 q 438 1186 454 1176 q 407 1196 421 1196 m 436 931 l 253 810 l 168 913 l 376 1104 l 531 1104 l 690 904 l 590 810 l 436 931 m 433 768 q 630 710 558 768 q 701 561 701 653 q 578 353 701 421 q 271 265 454 285 q 367 161 271 161 q 443 177 406 161 q 532 226 481 193 l 619 78 q 328 -28 488 -28 q 97 50 178 -28 q 17 274 17 128 q 61 517 17 404 q 199 699 106 629 q 433 768 293 768 m 285 415 q 412 465 375 422 q 449 554 449 507 q 404 600 449 600 q 330 548 360 600 q 285 415 300 496 z "},"ȅ":{"ha":696,"x_min":17,"x_max":701,"o":"m 433 768 q 630 710 558 768 q 701 561 701 653 q 578 353 701 421 q 271 265 454 285 q 367 161 271 161 q 443 177 406 161 q 532 226 481 193 l 619 78 q 328 -28 488 -28 q 97 50 178 -28 q 17 274 17 128 q 61 517 17 404 q 199 699 106 629 q 433 768 293 768 m 285 415 q 412 465 375 422 q 449 554 449 507 q 404 600 449 600 q 330 548 360 600 q 285 415 300 496 m 315 1214 l 407 921 l 271 863 l 139 1136 l 315 1214 m 553 1214 l 635 918 l 499 868 l 376 1143 l 553 1214 z "},"ë":{"ha":696,"x_min":17,"x_max":733,"o":"m 433 768 q 630 710 558 768 q 701 561 701 653 q 578 353 701 421 q 271 265 454 285 q 367 161 271 161 q 443 177 406 161 q 532 226 481 193 l 619 78 q 328 -28 488 -28 q 97 50 178 -28 q 17 274 17 128 q 61 517 17 404 q 199 699 106 629 q 433 768 293 768 m 285 415 q 412 465 375 422 q 449 554 449 507 q 404 600 449 600 q 330 548 360 600 q 285 415 300 496 m 283 882 q 202 912 232 882 q 172 990 172 942 q 213 1090 172 1050 q 313 1131 254 1131 q 395 1101 365 1131 q 425 1022 425 1071 q 384 922 425 963 q 283 882 343 882 m 593 882 q 512 912 542 882 q 482 990 482 942 q 522 1090 482 1050 q 622 1131 563 1131 q 703 1101 674 1131 q 733 1022 733 1071 q 693 922 733 963 q 593 882 653 882 z "},"ė":{"ha":696,"x_min":17,"x_max":701,"o":"m 433 768 q 630 710 558 768 q 701 561 701 653 q 578 353 701 421 q 271 265 454 285 q 367 161 271 161 q 443 177 406 161 q 532 226 481 193 l 619 78 q 328 -28 488 -28 q 97 50 178 -28 q 17 274 17 128 q 61 517 17 404 q 199 699 106 629 q 433 768 293 768 m 285 415 q 412 465 375 422 q 449 554 449 507 q 404 600 449 600 q 330 548 360 600 q 285 415 300 496 m 438 861 q 343 895 378 861 q 308 985 308 929 q 356 1100 308 1054 q 471 1146 403 1146 q 565 1112 531 1146 q 600 1022 600 1078 q 553 907 600 953 q 438 861 507 861 z "},"ẹ":{"ha":696,"x_min":17,"x_max":701,"o":"m 433 768 q 630 710 558 768 q 701 561 701 653 q 578 353 701 421 q 271 265 454 285 q 367 161 271 161 q 443 177 406 161 q 532 226 481 193 l 619 78 q 328 -28 488 -28 q 97 50 178 -28 q 17 274 17 128 q 61 517 17 404 q 199 699 106 629 q 433 768 293 768 m 285 415 q 412 465 375 422 q 449 554 449 507 q 404 600 449 600 q 330 548 360 600 q 285 415 300 496 m 307 -75 q 401 -109 367 -75 q 436 -199 436 -143 q 389 -314 436 -268 q 274 -360 342 -360 q 179 -326 214 -360 q 144 -236 144 -292 q 191 -121 144 -167 q 307 -75 238 -75 z "},"è":{"ha":696,"x_min":17,"x_max":701,"o":"m 433 768 q 630 710 558 768 q 701 561 701 653 q 578 353 701 421 q 271 265 454 285 q 367 161 271 161 q 443 177 406 161 q 532 226 481 193 l 619 78 q 328 -28 488 -28 q 97 50 178 -28 q 17 274 17 128 q 61 517 17 404 q 199 699 106 629 q 433 768 293 768 m 285 415 q 412 465 375 422 q 449 554 449 507 q 404 600 449 600 q 330 548 360 600 q 285 415 300 496 m 388 1175 l 654 976 l 581 858 l 278 990 l 388 1175 z "},"ẻ":{"ha":696,"x_min":17,"x_max":701,"o":"m 433 768 q 630 710 558 768 q 701 561 701 653 q 578 353 701 421 q 271 265 454 285 q 367 161 271 161 q 443 177 406 161 q 532 226 481 193 l 619 78 q 328 -28 488 -28 q 97 50 178 -28 q 17 274 17 128 q 61 517 17 404 q 199 699 106 629 q 433 768 293 768 m 285 415 q 412 465 375 422 q 449 554 449 507 q 404 600 449 600 q 330 548 360 600 q 285 415 300 496 m 379 978 q 451 994 429 981 q 474 1035 474 1007 q 465 1059 474 1051 q 433 1067 456 1067 q 357 1049 400 1067 l 333 1151 q 478 1188 397 1188 q 597 1150 556 1188 q 639 1051 639 1113 q 604 956 639 993 q 510 906 569 918 l 500 836 l 360 836 l 379 978 z "},"ȇ":{"ha":696,"x_min":17,"x_max":701,"o":"m 433 768 q 630 710 558 768 q 701 561 701 653 q 578 353 701 421 q 271 265 454 285 q 367 161 271 161 q 443 177 406 161 q 532 226 481 193 l 619 78 q 328 -28 488 -28 q 97 50 178 -28 q 17 274 17 128 q 61 517 17 404 q 199 699 106 629 q 433 768 293 768 m 285 415 q 412 465 375 422 q 449 554 449 507 q 404 600 449 600 q 330 548 360 600 q 285 415 300 496 m 197 851 q 290 1041 221 967 q 467 1115 358 1115 q 621 1049 571 1115 q 671 879 671 983 q 669 849 671 860 l 532 829 q 449 936 525 936 q 376 906 407 936 q 329 825 346 876 l 197 851 z "},"ē":{"ha":696,"x_min":17,"x_max":701,"o":"m 433 768 q 630 710 558 768 q 701 561 701 653 q 578 353 701 421 q 271 265 454 285 q 367 161 271 161 q 443 177 406 161 q 532 226 481 193 l 619 78 q 328 -28 488 -28 q 97 50 178 -28 q 17 274 17 128 q 61 517 17 404 q 199 699 106 629 q 433 768 293 768 m 285 415 q 412 465 375 422 q 449 554 449 507 q 404 600 449 600 q 330 548 360 600 q 285 415 300 496 m 640 901 l 235 901 l 261 1082 l 668 1082 l 640 901 z "},"ę":{"ha":696,"x_min":17,"x_max":701,"o":"m 433 768 q 630 710 558 768 q 701 561 701 653 q 578 353 701 421 q 271 265 454 285 q 367 161 271 161 q 443 177 406 161 q 532 226 481 193 l 619 78 q 463 -7 546 19 q 374 -72 400 -37 q 349 -135 349 -106 q 401 -181 349 -181 q 481 -169 436 -181 l 443 -324 q 349 -335 399 -335 q 217 -295 268 -335 q 165 -187 165 -256 q 265 -24 165 -87 q 81 67 144 -8 q 17 272 17 143 q 61 517 17 404 q 199 699 106 629 q 433 768 293 768 m 285 415 q 412 465 375 422 q 449 554 449 507 q 404 600 449 600 q 330 548 360 600 q 285 415 300 496 z "},"ɛ":{"ha":625,"x_min":0,"x_max":640,"o":"m 286 -26 q 79 32 158 -26 q 0 197 0 90 q 59 335 0 283 q 221 394 118 388 q 75 549 75 426 q 158 710 75 651 q 375 768 242 768 q 522 744 453 768 q 640 667 590 719 l 525 546 q 404 592 467 592 q 349 572 369 592 q 329 521 329 553 q 399 458 329 458 l 471 458 l 424 297 l 357 297 q 287 276 310 297 q 264 221 264 256 q 344 156 264 156 q 413 169 379 156 q 493 210 447 182 l 575 68 q 447 -1 522 24 q 286 -26 371 -26 z "},"ʚ":{"ha":728,"x_min":0,"x_max":708,"o":"m 293 -26 q 81 30 163 -26 q 0 194 0 86 q 58 335 0 282 q 215 394 115 388 q 76 539 76 428 q 116 658 76 606 q 229 739 156 710 q 399 768 303 768 q 628 685 547 768 q 708 456 708 601 q 601 102 708 231 q 293 -26 494 -26 m 325 156 q 430 249 399 156 q 461 458 461 343 q 443 561 461 531 q 390 592 425 592 q 345 572 361 592 q 329 517 329 551 q 386 458 329 458 l 404 458 l 357 297 l 349 297 q 283 276 306 297 q 261 217 261 254 q 278 172 261 188 q 325 156 294 156 z "},"ɜ":{"ha":621,"x_min":-35,"x_max":600,"o":"m 349 768 q 531 717 463 768 q 600 582 600 667 q 550 460 600 510 q 403 393 500 410 q 534 341 492 385 q 576 228 576 297 q 541 103 576 161 q 429 10 506 46 q 236 -26 353 -26 q -35 65 71 -26 l 89 208 q 160 167 128 179 q 226 156 192 156 q 290 178 268 156 q 313 240 313 200 q 297 283 313 269 q 244 297 281 297 l 140 297 l 182 458 l 249 458 q 314 480 290 458 q 338 539 338 501 q 283 592 338 592 q 221 581 250 592 q 156 549 192 571 l 63 683 q 349 768 189 768 z "},"ɞ":{"ha":725,"x_min":18,"x_max":706,"o":"m 329 -26 q 98 51 178 -26 q 18 278 18 129 q 69 540 18 429 q 214 709 119 650 q 436 768 308 768 q 631 717 556 768 q 706 579 706 665 q 658 458 706 507 q 519 393 610 410 q 641 342 600 385 q 682 231 682 299 q 647 105 682 163 q 532 10 611 47 q 329 -26 453 -26 m 340 156 q 425 244 425 156 q 410 284 425 271 q 360 297 394 297 l 324 297 l 368 458 l 375 458 q 426 480 406 458 q 446 540 446 501 q 399 592 446 592 q 299 495 332 592 q 265 271 265 399 q 283 181 265 207 q 340 156 300 156 z "},"ɝ":{"ha":976,"x_min":-35,"x_max":1004,"o":"m 1004 472 q 836 422 929 422 q 651 572 672 422 l 649 589 l 599 558 q 542 451 592 494 q 403 393 492 408 q 534 341 492 385 q 576 228 576 297 q 541 103 576 161 q 429 10 506 46 q 236 -26 353 -26 q -35 65 71 -26 l 89 208 q 160 167 128 179 q 226 156 192 156 q 290 178 268 156 q 313 240 313 200 q 297 283 313 269 q 244 297 281 297 l 140 297 l 182 458 l 249 458 q 314 480 290 458 q 338 539 338 501 q 283 592 338 592 q 221 581 250 592 q 156 549 192 571 l 63 683 q 349 768 189 768 q 475 747 419 768 q 563 689 531 726 l 656 742 l 860 742 l 849 658 l 847 644 q 860 608 847 621 q 893 596 872 596 q 936 602 917 596 q 960 610 956 608 l 1004 472 z "},"ɘ":{"ha":704,"x_min":3,"x_max":685,"o":"m 374 768 q 611 679 538 768 q 685 451 685 590 q 635 198 685 306 q 492 32 586 90 q 268 -26 397 -26 q 3 82 104 -26 l 122 218 q 191 175 157 189 q 267 161 225 161 q 404 265 367 161 q 136 329 233 276 q 39 500 39 382 q 78 635 39 574 q 194 732 118 696 q 374 768 271 768 m 301 506 q 328 444 301 468 q 431 415 356 419 q 432 479 432 436 q 417 570 432 540 q 365 600 401 600 q 319 576 336 600 q 301 506 301 551 z "},"ʃ":{"ha":354,"x_min":-267,"x_max":586,"o":"m 406 1060 q 586 1007 513 1060 l 494 850 q 425 869 460 869 q 384 853 397 869 q 365 799 371 836 l 356 742 l 357 742 l 254 0 l 249 -40 q 143 -245 228 -176 q -72 -314 58 -314 q -267 -250 -190 -314 l -164 -101 q -122 -121 -139 -115 q -83 -126 -106 -126 q -35 -109 -53 -126 q -12 -60 -17 -92 l -4 0 l 99 740 l 97 740 l 106 797 q 198 985 119 911 q 406 1060 276 1060 z "},"ʆ":{"ha":464,"x_min":-151,"x_max":697,"o":"m 517 1060 q 697 1007 624 1060 l 606 850 q 536 869 571 869 q 495 853 508 869 q 476 799 482 836 l 467 740 l 367 21 l 363 -10 q 465 -60 419 -28 l 411 -160 q 331 -124 383 -143 q 222 -266 293 -218 q 35 -314 150 -314 q -103 -269 -56 -314 q -151 -149 -151 -225 q -94 -12 -151 -62 q 51 39 -37 39 q 110 35 93 39 l 208 742 l 217 797 q 309 985 231 911 q 517 1060 388 1060 m 24 -186 q 69 -163 53 -186 q 93 -85 86 -140 l 94 -78 q 53 -75 69 -75 q 2 -93 19 -75 q -15 -142 -15 -111 q 24 -186 -15 -186 z "},"ƪ":{"ha":597,"x_min":43,"x_max":689,"o":"m 689 -254 q 479 -314 599 -314 q 297 -255 363 -314 q 232 -83 232 -196 q 235 -33 232 -50 l 239 0 l 318 561 q 225 542 275 542 q 95 603 146 542 q 43 763 44 665 q 82 917 43 849 q 190 1022 121 985 q 351 1060 260 1060 q 539 993 471 1060 q 607 807 607 926 q 603 747 607 779 l 497 0 l 489 -60 l 488 -74 q 542 -126 488 -126 q 583 -122 565 -126 q 625 -104 600 -117 l 689 -254 m 304 718 q 340 724 325 718 l 353 813 l 356 840 q 321 882 356 882 q 273 849 288 882 q 258 771 258 817 q 304 718 258 718 z "},"ʅ":{"ha":672,"x_min":26,"x_max":646,"o":"m 646 33 q 436 -26 556 -26 q 254 33 319 -26 q 189 204 189 92 q 192 254 189 238 l 196 288 l 219 454 l 218 454 l 226 514 l 228 528 q 174 581 228 581 q 133 576 150 581 q 90 558 115 571 l 26 708 q 236 768 117 768 q 418 709 353 768 q 483 538 483 650 q 481 488 483 504 l 476 454 l 478 454 l 454 288 l 446 228 l 444 214 q 499 161 444 161 q 540 166 522 161 q 582 183 557 171 l 646 33 z "},"ɇ":{"ha":696,"x_min":17,"x_max":701,"o":"m 514 761 q 652 690 603 743 q 701 561 701 636 q 598 367 701 435 q 331 275 494 299 l 293 175 q 367 161 319 161 q 443 177 406 161 q 532 226 481 193 l 619 78 q 328 -28 488 -28 q 221 -15 269 -28 l 188 -106 l 113 -85 l 149 13 q 50 115 83 49 q 17 275 17 181 q 61 517 17 406 q 199 699 106 629 q 433 768 293 768 l 460 838 l 535 817 l 514 761 m 374 608 q 301 534 329 590 q 261 401 274 478 l 297 404 l 374 608 m 388 426 q 475 556 475 464 q 456 606 475 590 l 388 426 z "},"ẽ":{"ha":696,"x_min":17,"x_max":713,"o":"m 433 768 q 630 710 558 768 q 701 561 701 653 q 578 353 701 421 q 271 265 454 285 q 367 161 271 161 q 443 177 406 161 q 532 226 481 193 l 619 78 q 328 -28 488 -28 q 97 50 178 -28 q 17 274 17 128 q 61 517 17 404 q 199 699 106 629 q 433 768 293 768 m 285 415 q 412 465 375 422 q 449 554 449 507 q 404 600 449 600 q 330 548 360 600 q 285 415 300 496 m 513 868 q 471 877 490 868 q 428 903 451 886 q 398 922 410 915 q 375 928 386 928 q 338 913 354 928 q 301 867 322 899 l 192 931 q 281 1061 229 1010 q 390 1113 333 1113 q 438 1103 418 1113 q 483 1075 457 1093 q 510 1057 499 1063 q 532 1051 521 1051 q 567 1065 551 1051 q 601 1111 582 1079 l 713 1050 q 623 919 676 971 q 513 868 569 868 z "},"ǝ":{"ha":696,"x_min":-6,"x_max":679,"o":"m 368 769 q 599 692 518 769 q 679 468 679 614 q 635 225 679 338 q 497 43 590 113 q 263 -26 403 -26 q 66 31 138 -26 q -6 181 -6 89 q 118 389 -6 321 q 425 476 242 457 q 329 581 425 581 q 253 565 290 581 q 164 515 215 549 l 76 664 q 368 769 208 769 m 292 142 q 366 194 336 142 q 411 326 396 246 q 284 277 321 319 q 247 188 247 235 q 292 142 247 142 z "},"ə":{"ha":696,"x_min":-6,"x_max":679,"o":"m 368 769 q 599 692 518 769 q 679 468 679 614 q 635 225 679 338 q 497 43 590 113 q 263 -26 403 -26 q 66 31 138 -26 q -6 181 -6 89 q 118 389 -6 321 q 425 476 242 457 q 329 581 425 581 q 253 565 290 581 q 164 515 215 549 l 76 664 q 368 769 208 769 m 292 142 q 366 194 336 142 q 411 326 396 246 q 284 277 321 319 q 247 188 247 235 q 292 142 247 142 z "},"ɚ":{"ha":1068,"x_min":-6,"x_max":1096,"o":"m 1096 472 q 928 422 1021 422 q 743 572 764 422 l 740 589 l 672 547 q 679 461 679 514 q 633 221 678 332 q 494 42 588 110 q 263 -26 401 -26 q 66 31 138 -26 q -6 181 -6 89 q 118 389 -6 321 q 425 476 242 457 q 329 581 425 581 q 253 565 290 581 q 164 515 215 549 l 76 664 q 368 769 208 769 q 619 668 539 769 l 747 742 l 951 742 l 940 658 l 939 644 q 951 608 939 621 q 985 596 964 596 q 1028 602 1008 596 q 1051 610 1047 608 l 1096 472 m 292 142 q 366 194 336 142 q 411 326 396 246 q 284 277 321 319 q 247 188 247 235 q 292 142 247 142 z "},"ʒ":{"ha":653,"x_min":-101,"x_max":646,"o":"m 621 565 l 378 294 q 541 223 485 281 q 597 64 597 165 q 544 -137 597 -51 q 400 -269 492 -222 q 193 -315 308 -315 q -101 -162 -6 -315 l 50 -36 q 121 -98 88 -79 q 197 -117 154 -117 q 297 -72 260 -117 q 335 58 335 -26 q 307 133 335 111 q 226 154 279 154 l 99 154 l 118 299 l 340 549 l 53 549 l 79 742 l 646 742 l 621 565 z "},"ǯ":{"ha":653,"x_min":-101,"x_max":664,"o":"m 621 565 l 378 294 q 541 223 485 281 q 597 64 597 165 q 544 -137 597 -51 q 400 -269 492 -222 q 193 -315 308 -315 q -101 -162 -6 -315 l 50 -36 q 121 -98 88 -79 q 197 -117 154 -117 q 297 -72 260 -117 q 335 58 335 -26 q 307 133 335 111 q 226 154 279 154 l 99 154 l 118 299 l 340 549 l 53 549 l 79 742 l 646 742 l 621 565 m 582 1146 l 664 1044 l 456 839 l 301 839 l 150 1044 l 244 1146 l 394 1013 l 582 1146 z "},"ʓ":{"ha":654,"x_min":-87,"x_max":647,"o":"m 622 565 l 386 308 q 543 238 488 297 q 599 72 599 178 q 530 -152 599 -58 q 340 -286 461 -246 l 364 -369 l 243 -411 l 217 -311 q 157 -314 178 -314 q -20 -262 47 -314 q -87 -114 -87 -210 q -61 -2 -87 -49 q 9 69 -35 44 q 104 93 53 93 q 210 55 172 93 q 276 -75 249 17 l 278 -81 q 336 68 336 -36 q 308 144 336 122 q 219 167 279 167 l 100 167 l 119 304 l 344 549 l 54 549 l 81 742 l 647 742 l 622 565 m 168 -115 q 144 -52 156 -69 q 114 -35 133 -35 q 90 -46 99 -35 q 82 -75 82 -57 q 97 -106 82 -96 q 154 -115 113 -115 l 168 -115 z "},"ƹ":{"ha":656,"x_min":-43,"x_max":675,"o":"m 647 549 l 344 549 l 514 293 l 493 154 l 490 156 l 492 154 l 367 154 q 262 113 300 154 q 224 -3 224 72 q 249 -87 224 -60 q 321 -115 275 -115 q 404 -97 364 -115 q 496 -35 444 -78 l 607 -167 q 275 -314 478 -314 q 41 -234 125 -314 q -43 -24 -43 -154 q 40 199 -43 113 q 271 299 124 285 l 83 565 l 110 742 l 675 742 l 647 549 z "},"ƺ":{"ha":658,"x_min":-33,"x_max":642,"o":"m 158 -314 q 19 -233 71 -285 q -33 -114 -33 -182 q 29 25 -33 -25 q 207 104 92 75 q 318 147 286 125 q 350 204 350 169 q 331 241 350 231 q 264 251 311 251 l 118 251 l 138 383 l 331 563 l 47 563 l 74 742 l 642 742 l 618 578 l 406 392 l 415 392 q 560 344 507 392 q 613 214 613 297 q 538 35 613 97 q 335 -60 464 -28 q 244 -86 274 -75 q 203 -108 214 -97 q 193 -133 193 -118 q 201 -156 193 -146 q 226 -178 210 -167 l 158 -314 z "},"f":{"ha":463,"x_min":-121,"x_max":664,"o":"m 483 871 q 425 849 446 871 q 397 775 404 826 l 393 742 l 546 742 l 492 563 l 368 563 l 304 101 q 235 -107 288 -26 q 112 -233 183 -187 q -61 -314 40 -279 l -121 -125 q -6 -50 -43 -96 q 44 88 32 -4 l 110 563 l 25 563 l 50 742 l 133 742 l 140 790 q 239 986 157 911 q 456 1061 321 1061 q 573 1042 519 1061 q 664 996 626 1024 l 574 844 q 483 871 532 871 z "},"ḟ":{"ha":463,"x_min":-121,"x_max":664,"o":"m 483 871 q 425 849 446 871 q 397 775 404 826 l 393 742 l 546 742 l 492 563 l 368 563 l 304 101 q 235 -107 288 -26 q 112 -233 183 -187 q -61 -314 40 -279 l -121 -125 q -6 -50 -43 -96 q 44 88 32 -4 l 110 563 l 25 563 l 50 742 l 133 742 l 140 790 q 239 986 157 911 q 456 1061 321 1061 q 573 1042 519 1061 q 664 996 626 1024 l 574 844 q 483 871 532 871 m 451 1103 q 357 1137 392 1103 q 322 1226 322 1171 q 369 1342 322 1296 q 485 1388 417 1388 q 579 1353 544 1388 q 614 1264 614 1319 q 567 1149 614 1194 q 451 1103 521 1103 z "},"ʩ":{"ha":1094,"x_min":-121,"x_max":1082,"o":"m 932 768 q 1042 723 1003 768 q 1082 597 1082 678 q 1078 546 1082 574 l 1000 0 l 994 -40 q 889 -245 974 -176 q 674 -314 804 -314 q 479 -250 556 -314 l 582 -101 q 624 -121 607 -115 q 663 -126 640 -126 q 711 -109 693 -126 q 733 -60 729 -92 l 810 488 q 811 513 811 497 q 807 535 811 529 q 794 542 803 542 q 755 509 776 542 q 699 400 733 476 l 642 0 l 383 0 l 461 563 l 368 563 l 304 101 q 235 -107 288 -26 q 112 -233 183 -187 q -61 -314 40 -279 l -121 -125 q -6 -50 -43 -96 q 44 88 32 -4 l 110 563 l 25 563 l 50 742 l 133 742 l 140 790 q 239 986 157 911 q 456 1061 321 1061 q 573 1042 519 1061 q 664 996 626 1024 l 574 844 q 483 871 532 871 q 425 849 446 871 q 397 775 404 826 l 393 742 l 711 742 l 713 626 q 810 729 753 690 q 932 768 867 768 z "},"g":{"ha":729,"x_min":-12,"x_max":733,"o":"m 438 768 q 589 748 513 768 q 733 689 665 728 l 644 61 q 526 -224 617 -133 q 258 -314 436 -314 q 117 -292 188 -314 q -12 -232 47 -271 l 75 -65 q 251 -119 168 -119 q 342 -92 307 -119 q 388 13 376 -64 l 399 89 q 229 -1 329 -1 q 72 74 126 -1 q 17 276 17 149 q 59 516 17 404 q 196 698 101 628 q 438 768 290 768 m 419 586 q 314 493 349 586 q 279 276 279 400 q 292 209 279 228 q 326 190 304 190 q 417 264 369 190 l 461 581 q 419 586 443 586 z "}}}
